<svg width="67" height="24" viewBox="0 0 67 24" fill="none" xmlns="http://www.w3.org/2000/svg">
<g clip-path="url(#clip0_1_1121)">
<g clip-path="url(#clip1_1_1121)">
<mask id="mask0_1_1121" style="mask-type:luminance" maskUnits="userSpaceOnUse" x="0" y="1" width="67" height="22">
<path d="M66.0308 1.42505H0.467529V22.5745H66.0308V1.42505Z" fill="white"/>
</mask>
<g mask="url(#mask0_1_1121)">
<path d="M28.6073 1.43786L17.6297 9.67476C17.1138 7.64877 15.9215 5.84793 14.2406 4.55606C12.5597 3.26417 10.486 2.55472 8.34615 2.53952H0.467529V21.4728H8.34615C10.4974 21.5011 12.5933 20.8079 14.2832 19.5091C15.9731 18.2102 17.1546 16.3846 17.6297 14.3376L28.6073 22.5745L39.5848 14.3376V21.4728H51.9675V17.6299H43.7999V2.52671H39.296V9.66192L28.8831 17.8988L26.6377 15.9773L31.7063 12.1343L37.0505 8.02223L33.9517 5.54989L23.5388 13.5049L21.2933 11.5834L31.7063 3.89738L28.6073 1.42505V1.43786ZM4.68259 6.36973H8.05729C8.75561 6.37105 9.44544 6.51963 10.0795 6.80527C10.7235 7.09424 11.3035 7.5033 11.7865 8.00942C12.2949 8.54214 12.6959 9.16363 12.9683 9.84124C13.5282 11.2815 13.5282 12.8718 12.9683 14.312C12.7135 14.9875 12.3354 15.6126 11.8521 16.1566C11.3824 16.6914 10.8061 17.1272 10.1582 17.4376C9.49089 17.752 8.75897 17.914 8.01788 17.9116H4.68259V6.38254V6.36973ZM66.0177 17.6299V21.4728H53.6482V2.52671H58.1522V17.6299H66.0307H66.0177Z" fill="black"/>
</g>
</g>
</g>
<defs>
<clipPath id="clip0_1_1121">
<rect width="66.13" height="23" fill="white" transform="translate(0.380005 0.5)"/>
</clipPath>
<clipPath id="clip1_1_1121">
<rect width="66.125" height="23" fill="white" transform="translate(0.382507 0.5)"/>
</clipPath>
</defs>
</svg>
