<svg width="127" height="26" viewBox="0 0 127 26" fill="none" xmlns="http://www.w3.org/2000/svg">
<g clip-path="url(#clip0_1_1072)">
<g clip-path="url(#clip1_1_1072)">
<mask id="mask0_1_1072" style="mask-type:luminance" maskUnits="userSpaceOnUse" x="0" y="0" width="127" height="26">
<path d="M126.013 0.699219H0.922775V25.3003H126.013V0.699219Z" fill="white"/>
</mask>
<g mask="url(#mask0_1_1072)">
<path d="M15.4333 5.32209L8.17803 9.94495L15.4333 14.5678L8.17803 19.1907L0.922775 14.5428L8.17803 9.91996L0.922775 5.32209L8.17803 0.699219L15.4333 5.32209ZM8.1405 20.6775L15.3958 16.0546L22.651 20.6775L15.3958 25.3004L8.1405 20.6775ZM15.4333 14.5428L22.6886 9.91996L15.4333 5.32209L22.651 0.699219L29.9063 5.32209L22.651 9.94495L29.9063 14.5678L22.651 19.1907L15.4333 14.5428Z" fill="black"/>
<path d="M35.5979 5.32184H41.4647C45.2049 5.32184 48.2945 7.48335 48.2945 12.4186V13.4555C48.2945 18.4283 45.405 20.6648 41.5772 20.6648H35.5979V5.32184ZM38.8753 8.10805V17.866H41.3896C43.5162 17.866 44.9422 16.4792 44.9422 13.3931V12.581C44.9422 9.49492 43.4411 8.10805 41.277 8.10805H38.8753ZM50.0334 8.25799H52.6603L53.0856 11.1441C53.586 9.18256 54.8618 8.13305 57.176 8.13305H57.9891V11.444H56.6382C53.9737 11.444 53.3233 12.3686 53.3233 14.9924V20.7023H50.0833V8.25799H50.0334ZM58.6396 14.73V14.3802C58.6396 10.2196 61.304 7.94563 64.9316 7.94563C68.6343 7.94563 71.2237 10.2196 71.2237 14.3802V14.73C71.2237 18.8157 68.7094 21.0146 64.9316 21.0146C60.9162 20.9771 58.6396 18.8281 58.6396 14.73ZM67.9088 14.6925V14.3802C67.9088 12.0688 66.7454 10.6819 64.8941 10.6819C63.0803 10.6819 61.8794 11.9563 61.8794 14.3802V14.6925C61.8794 16.929 63.0427 18.2034 64.8941 18.2034C66.7454 18.1659 67.9088 16.929 67.9088 14.6925ZM72.9249 8.25799H75.6269L75.9396 10.6069C76.5901 9.03263 77.9786 7.94563 80.03 7.94563C83.1949 7.94563 85.2839 10.2196 85.2839 14.4301V14.78C85.2839 18.8656 82.9697 21.0271 80.03 21.0271C78.0662 21.0271 76.7151 20.14 76.0521 18.7157V25.0003H72.8874L72.9249 8.25799ZM81.994 14.6925V14.4176C81.994 11.9437 80.7181 10.7194 79.0168 10.7194C77.2031 10.7194 76.0022 12.1062 76.0022 14.4176V14.655C76.0022 16.8541 77.1655 18.2408 78.9793 18.2408C80.8432 18.2034 81.994 17.0165 81.994 14.6925ZM90.0748 18.4033L89.7996 20.6773H87.0226V4.09741H90.1875V10.457C90.888 8.83273 92.2765 7.94563 94.2403 7.94563C97.2175 7.98311 99.4191 10.0322 99.4191 14.1553V14.5426C99.4191 18.6657 97.3301 21.0271 94.1653 21.0271C92.0763 20.9771 90.7253 20.015 90.0748 18.4033ZM96.0917 14.5426V14.2302C96.0917 11.9563 94.8533 10.6819 93.1145 10.6819C91.3383 10.6819 90.0998 12.1062 90.0998 14.2677V14.5426C90.0998 16.8541 91.3007 18.2034 93.077 18.2034C94.9784 18.2034 96.0917 17.0165 96.0917 14.5426ZM100.808 14.73V14.3802C100.808 10.2196 103.472 7.94563 107.1 7.94563C110.802 7.94563 113.391 10.2196 113.391 14.3802V14.73C113.391 18.8157 110.84 21.0146 107.1 21.0146C103.084 20.9771 100.808 18.8281 100.808 14.73ZM110.101 14.6925V14.3802C110.101 12.0688 108.939 10.6819 107.087 10.6819C105.273 10.6819 104.072 11.9563 104.072 14.3802V14.6925C104.072 16.929 105.236 18.2034 107.087 18.2034C108.951 18.1659 110.101 16.929 110.101 14.6925ZM117.633 14.2302L113.267 8.25799H117.006L119.521 11.9938L122.073 8.25799H125.776L121.347 14.1927L126.013 20.6773H122.348L119.496 16.5542L116.719 20.6773H112.891L117.633 14.2302Z" fill="black"/>
</g>
</g>
</g>
<defs>
<clipPath id="clip0_1_1072">
<rect width="126.75" height="26" fill="white" transform="translate(0.129974)"/>
</clipPath>
<clipPath id="clip1_1_1072">
<rect width="126.75" height="26" fill="white" transform="translate(0.129974)"/>
</clipPath>
</defs>
</svg>
