<svg width="113" height="26" viewBox="0 0 113 26" fill="none" xmlns="http://www.w3.org/2000/svg">
<g clip-path="url(#clip0_1_1106)">
<g clip-path="url(#clip1_1_1106)">
<path d="M10.9191 9.75599C10.9191 10.8356 10.4605 11.7907 9.71015 12.5381C8.87642 13.3686 7.66751 13.5762 7.66751 14.2821C7.66751 15.2371 9.20992 14.9465 10.6898 16.4206C11.6694 17.3964 12.2739 18.6836 12.2739 20.1785C12.2739 23.1267 9.89775 25.4728 6.91715 25.4728C3.93656 25.4728 1.56042 23.1287 1.56042 20.1806C1.56042 18.6857 2.16488 17.3985 3.14451 16.4226C4.62438 14.9486 6.16679 15.2392 6.16679 14.2842C6.16679 13.5783 4.95788 13.3706 4.12415 12.5402C3.37379 11.7927 2.91523 10.8377 2.91523 9.71655C2.91523 7.55731 4.68691 5.81331 6.85462 5.81331C7.27148 5.81331 7.64666 5.87559 7.95931 5.87559C8.52208 5.87559 8.8139 5.62645 8.8139 5.23197C8.8139 5.00359 8.70967 4.71293 8.70967 4.4015C8.70967 3.69559 9.31414 3.11426 10.0436 3.11426C10.7732 3.11426 11.3568 3.71635 11.3568 4.44302C11.3568 5.21121 10.7523 5.56416 10.2938 5.73026C9.91858 5.85483 9.62679 6.02093 9.62679 6.39464C9.62679 7.09847 10.9191 7.78361 10.9191 9.75599ZM10.5022 20.1806C10.5022 18.1251 8.98063 16.4642 6.91715 16.4642C4.85366 16.4642 3.3321 18.1251 3.3321 20.1806C3.3321 22.2152 4.85366 23.8969 6.91715 23.8969C8.98063 23.8969 10.5022 22.2131 10.5022 20.1806ZM9.27244 9.71447C9.27244 8.40647 8.20943 7.32685 6.91715 7.32685C5.62486 7.32685 4.56185 8.40647 4.56185 9.71447C4.56185 11.0225 5.62486 12.1021 6.91715 12.1021C8.20943 12.1021 9.27244 11.0225 9.27244 9.71447Z" fill="black"/>
<path d="M18.4224 6.01883C19.0894 6.01883 19.5896 6.51711 19.5896 7.13997C19.5896 7.76283 19.1102 8.26112 18.4432 8.26112C17.7554 8.26112 17.3802 7.82512 16.6924 7.82512C16.0254 7.82512 15.5043 8.30264 15.5043 9.11235V15.6524C15.5043 16.1506 15.1083 16.5451 14.6081 16.5451C14.1287 16.5451 13.7327 16.1506 13.7327 15.6524V6.84931C13.7327 6.35102 14.1287 5.95654 14.6081 5.95654C15.5043 5.95654 15.3376 6.80778 16.2339 6.80778C17.0884 6.80778 17.4011 6.01883 18.4224 6.01883Z" fill="black"/>
<path d="M20.3603 11.2511C20.3603 8.11608 22.5281 5.85303 25.5086 5.85303C28.2391 5.85303 30.4068 7.84617 30.4068 10.566C30.4068 11.2096 29.99 11.6456 29.3855 11.6456H22.6114C22.3196 11.6456 22.2154 11.7494 22.2154 11.9778C22.2154 12.4968 22.6323 13.4519 23.2576 14.0747C23.8829 14.6976 24.7374 15.0713 25.9464 15.0713C26.8426 15.0713 27.6347 14.7391 28.2391 14.3031C28.4267 14.1578 28.6351 14.0747 28.8436 14.0747C29.2813 14.0747 29.6356 14.4692 29.6356 14.8845C29.6356 15.1336 29.5522 15.3412 29.3438 15.5281C28.4684 16.2547 27.2386 16.6492 25.9047 16.6492C22.674 16.6492 20.3603 14.3239 20.3603 11.2511ZM27.7389 8.26141C27.1553 7.68008 26.4049 7.38941 25.5086 7.38941C24.6124 7.38941 23.7786 7.74236 23.1742 8.34446C22.6948 8.82198 22.3613 9.44484 22.3613 9.86008C22.3613 10.0677 22.4864 10.1507 22.7573 10.1507H28.1766C28.4267 10.1507 28.5518 10.0677 28.5518 9.86008C28.5518 9.36179 28.1557 8.67665 27.7389 8.26141Z" fill="black"/>
<path d="M32.1992 11.2511C32.1992 8.11608 34.3669 5.85303 37.3475 5.85303C40.078 5.85303 42.2457 7.84617 42.2457 10.566C42.2457 11.2096 41.8288 11.6456 41.2244 11.6456H34.4503C34.1585 11.6456 34.0543 11.7494 34.0543 11.9778C34.0543 12.4968 34.4711 13.4519 35.0964 14.0747C35.7217 14.6976 36.5763 15.0713 37.7852 15.0713C38.6815 15.0713 39.4735 14.7391 40.078 14.3031C40.2656 14.1578 40.474 14.0747 40.6824 14.0747C41.1201 14.0747 41.4745 14.4692 41.4745 14.8845C41.4745 15.1336 41.3911 15.3412 41.1827 15.5281C40.3073 16.2547 39.0775 16.6492 37.7435 16.6492C34.5128 16.6492 32.1992 14.3239 32.1992 11.2511ZM39.5777 8.26141C38.9941 7.68008 38.2438 7.38941 37.3475 7.38941C36.4512 7.38941 35.6175 7.74236 35.0131 8.34446C34.5337 8.82198 34.2002 9.44484 34.2002 9.86008C34.2002 10.0677 34.3252 10.1507 34.5962 10.1507H40.0155C40.2656 10.1507 40.3906 10.0677 40.3906 9.86008C40.3906 9.36179 39.9946 8.67665 39.5777 8.26141Z" fill="black"/>
<path d="M52.6889 16.5454C52.1886 16.5454 51.7926 16.1509 51.7926 15.6527V10.0054C51.7926 8.53131 50.6254 7.41017 49.1246 7.41017C47.6031 7.41017 46.4359 8.55208 46.4359 10.0054V15.6527C46.4359 16.1509 46.0398 16.5454 45.5396 16.5454C45.0602 16.5454 44.6642 16.1509 44.6642 15.6527V6.82884C44.6642 6.35131 45.0602 5.95684 45.5188 5.95684C46.3942 5.95684 46.3525 6.74579 46.811 6.74579C47.2696 6.74579 47.8949 5.85303 49.5207 5.85303C51.7926 5.85303 53.5643 7.74236 53.5643 10.0054V15.6527C53.5643 16.1509 53.1682 16.5454 52.6889 16.5454Z" fill="black"/>
<path d="M64.6533 16.5452C64.1531 16.5452 63.7571 16.1507 63.7571 15.6524V10.0052C63.7571 8.53107 62.5898 7.40993 61.0891 7.40993C59.5676 7.40993 58.4003 8.55183 58.4003 10.0052V15.6524C58.4003 16.1507 58.0043 16.5452 57.5041 16.5452C57.0247 16.5452 56.6287 16.1507 56.6287 15.6524V1.65888C56.6287 1.16059 57.0247 0.766113 57.5041 0.766113C58.0043 0.766113 58.4003 1.16059 58.4003 1.65888V6.24726C58.4003 6.4964 58.5046 6.64174 58.7755 6.64174C59.2341 6.64174 59.8594 5.85278 61.4851 5.85278C63.7571 5.85278 65.5287 7.74212 65.5287 10.0052V15.6524C65.5287 16.1507 65.1327 16.5452 64.6533 16.5452Z" fill="black"/>
<path d="M67.9662 11.2511C67.9662 8.24065 70.384 5.85303 73.4271 5.85303C76.4703 5.85303 78.8881 8.24065 78.8881 11.2511C78.8881 14.2616 76.4703 16.6492 73.4271 16.6492C70.3861 16.6492 67.9662 14.2616 67.9662 11.2511ZM77.1185 11.2511C77.1185 9.15417 75.5552 7.43093 73.4292 7.43093C71.324 7.43093 69.7608 9.15417 69.7608 11.2511C69.7608 13.3481 71.324 15.0713 73.4292 15.0713C75.5552 15.0713 77.1185 13.3481 77.1185 11.2511Z" fill="black"/>
<path d="M82.2009 5.95654C82.7011 5.95654 83.0971 6.35102 83.0971 6.84931V12.4965C83.0971 13.9706 84.2643 15.0918 85.7651 15.0918C87.2866 15.0918 88.4538 13.9499 88.4538 12.4965V6.84931C88.4538 6.35102 88.8499 5.95654 89.3501 5.95654C89.8295 5.95654 90.2255 6.35102 90.2255 6.84931V15.6731C90.2255 16.1506 89.8295 16.5451 89.3709 16.5451C88.4955 16.5451 88.5372 15.7562 88.0787 15.7562C87.6201 15.7562 86.9948 16.6489 85.369 16.6489C83.0971 16.6489 81.3254 14.7596 81.3254 12.4965V6.84931C81.3275 6.35102 81.7215 5.95654 82.2009 5.95654Z" fill="black"/>
<path d="M93.3724 15.881C92.9764 15.6319 92.7054 15.3827 92.7054 14.9052C92.7054 14.4485 93.0598 14.0955 93.4975 14.0955C94.0186 14.0955 94.2478 14.4069 94.6856 14.6353C95.2275 14.9467 95.8528 15.1128 96.624 15.1128C98.0413 15.1128 98.75 14.4692 98.75 13.6803C98.75 12.5591 97.7078 12.3515 96.2905 11.9778C94.5396 11.521 92.8513 11.002 92.8513 8.98808C92.8513 7.20255 94.227 5.85303 96.6657 5.85303C97.6245 5.85303 98.5207 6.10217 99.2294 6.53817C99.4795 6.6835 99.7296 6.99493 99.7296 7.34789C99.7296 7.80465 99.3545 8.19912 98.8751 8.19912C98.5624 8.19912 98.3123 7.9915 97.9996 7.78389C97.687 7.57627 97.2284 7.38941 96.6031 7.38941C95.2066 7.38941 94.6022 7.9915 94.6022 8.80122C94.6022 9.86008 95.6235 10.1092 97.0825 10.4622C98.7917 10.8774 100.48 11.4172 100.48 13.4727C100.48 15.2582 99.146 16.6492 96.5823 16.6492C95.3317 16.6492 94.2062 16.4001 93.3724 15.881Z" fill="black"/>
<path d="M102.148 11.2511C102.148 8.11608 104.316 5.85303 107.296 5.85303C110.027 5.85303 112.194 7.84617 112.194 10.566C112.194 11.2096 111.777 11.6456 111.173 11.6456H104.399C104.107 11.6456 104.003 11.7494 104.003 11.9778C104.003 12.4968 104.42 13.4519 105.045 14.0747C105.67 14.6976 106.525 15.0713 107.734 15.0713C108.63 15.0713 109.422 14.7391 110.027 14.3031C110.214 14.1578 110.423 14.0747 110.631 14.0747C111.069 14.0747 111.423 14.4692 111.423 14.8845C111.423 15.1336 111.34 15.3412 111.131 15.5281C110.256 16.2547 109.026 16.6492 107.692 16.6492C104.464 16.6492 102.148 14.3239 102.148 11.2511ZM109.528 8.26141C108.945 7.68008 108.194 7.38941 107.298 7.38941C106.402 7.38941 105.568 7.74236 104.964 8.34446C104.484 8.82198 104.151 9.44484 104.151 9.86008C104.151 10.0677 104.276 10.1507 104.547 10.1507H109.966C110.216 10.1507 110.341 10.0677 110.341 9.86008C110.341 9.36179 109.945 8.67665 109.528 8.26141Z" fill="black"/>
</g>
</g>
<defs>
<clipPath id="clip0_1_1106">
<rect width="112" height="25" fill="white" transform="translate(0.380005 0.5)"/>
</clipPath>
<clipPath id="clip1_1_1106">
<rect width="112" height="25" fill="white" transform="translate(0.380005 0.5)"/>
</clipPath>
</defs>
</svg>
