<svg width="46" height="30" viewBox="0 0 46 30" fill="none" xmlns="http://www.w3.org/2000/svg">
<g clip-path="url(#clip0_1_1054)">
<mask id="mask0_1_1054" style="mask-type:luminance" maskUnits="userSpaceOnUse" x="-104" y="1" width="149" height="28">
<path d="M44.8181 1.46533H-103.901V28.5342H44.8181V1.46533Z" fill="white"/>
</mask>
<g mask="url(#mask0_1_1054)">
<path d="M42.2633 17.4961C43.1274 17.4961 43.6444 18.1104 43.6444 19.1167V22.5651H44.8174V19.0378C44.8174 17.3266 44.0115 16.3345 42.495 16.3345C41.9018 16.3345 40.9605 16.4969 40.3998 17.588C40.2688 17.2661 40.0539 16.9857 39.7764 16.7764C39.4999 16.5671 39.1709 16.4367 38.8262 16.3992C38.609 16.3595 38.3874 16.3464 38.1669 16.3604C37.6845 16.3992 36.825 16.6993 36.5037 17.3796V16.4651H35.3297V22.5651H36.5037V19.2732C36.5037 17.9928 37.342 17.4961 38.1804 17.4961C38.9672 17.4961 39.4843 18.0975 39.4843 19.1037V22.5651H40.6516V19.2732C40.6516 18.254 41.2627 17.4843 42.2633 17.4961ZM31.0184 21.5458C31.5545 21.5576 32.0727 21.3434 32.4488 20.9551C32.8248 20.5667 33.0252 20.0382 33.005 19.4957C33.005 18.267 32.1007 17.4961 31.0184 17.4961C29.935 17.4961 29.0318 18.267 29.0318 19.4957C29.0105 20.0371 29.2108 20.5643 29.5847 20.9515C29.9596 21.3398 30.4744 21.5553 31.0094 21.5458H31.0184ZM31.0184 22.6898C29.3026 22.6898 27.87 21.4222 27.87 19.4886C27.87 17.5549 29.3026 16.3275 31.0184 16.3275C32.7342 16.3275 34.178 17.5549 34.178 19.4886C34.178 21.4222 32.7263 22.6957 31.0106 22.6957L31.0184 22.6898ZM21.8273 19.4886L21.815 19.4957C21.815 17.562 23.2856 16.3345 25.0126 16.3275C25.4469 16.3191 25.8778 16.4019 26.2773 16.5706C26.678 16.7392 27.0373 16.99 27.335 17.3066L26.4452 18.0645C26.2561 17.879 26.0322 17.7327 25.786 17.6341C25.5409 17.5356 25.2779 17.4867 25.0126 17.4903C23.9303 17.4903 22.989 18.2611 22.989 19.4886C22.989 20.3183 23.4815 21.0656 24.2381 21.3834C24.9947 21.7011 25.8655 21.5246 26.4452 20.9386L27.3473 21.6964C27.0496 22.0164 26.6881 22.2702 26.2863 22.4413C25.8834 22.6123 25.4502 22.697 25.0126 22.6898C23.2979 22.6898 21.8273 21.4222 21.8273 19.4886ZM18.0689 21.394C18.0678 21.2874 18.0879 21.1815 18.1271 21.0825C18.1674 20.9835 18.2256 20.8933 18.3006 20.8171C18.3744 20.7407 18.464 20.6799 18.5614 20.638C18.6598 20.596 18.7651 20.5737 18.8714 20.5725C18.9788 20.5737 19.084 20.596 19.1814 20.638C19.2799 20.6799 19.3683 20.7407 19.4433 20.8171C19.5183 20.8933 19.5765 20.9835 19.6157 21.0825C19.656 21.1815 19.6761 21.2874 19.6739 21.394C19.6638 21.6005 19.5754 21.7953 19.4254 21.9385C19.2765 22.0818 19.0784 22.1627 18.8714 22.1649C18.6654 22.1627 18.4673 22.0818 18.3174 21.9385C18.1685 21.7953 18.0801 21.6005 18.0689 21.394Z" fill="black"/>
<path fill-rule="evenodd" clip-rule="evenodd" d="M21.28 8.71035H17.1008L14.1717 16.2625L11.2573 8.71035H7.07917L12.1594 20.6442L8.99976 28.5341H13.1476L21.28 8.71035ZM-4.13586 15.3481C-4.13586 17.2546 -2.46933 18.5093 -0.832344 18.5093C0.776443 18.5093 2.35702 17.3418 2.35702 15.3469C2.35702 13.3521 0.776443 12.1834 -0.832344 12.1834C-2.46933 12.1834 -4.13586 13.4392 -4.13586 15.3469V15.3481ZM2.35702 22.0117V20.5017C1.50965 21.7846 -0.467468 22.2695 -1.48194 22.2695C-4.84075 22.2695 -8.20079 19.6215 -8.20079 15.3469C-8.20079 11.0736 -4.84199 8.42554 -1.48194 8.42554C-0.635803 8.42554 1.34143 8.708 2.35702 10.1909V8.71506H6.2525V22.014L2.35702 22.0129V22.0117ZM-9.30939 22.0117H-13.2049V20.3594C-13.8557 21.5834 -15.4339 22.2965 -17.0722 22.2965C-20.4604 22.2965 -23.4532 19.5908 -23.4532 15.4011C-23.4532 11.1324 -20.4604 8.42319 -17.0722 8.42319C-15.4363 8.42319 -13.8534 9.1058 -13.2049 10.331V1.46533H-9.30939V22.0117ZM-13.2896 15.3175C-13.2896 13.3238 -14.7289 12.1552 -16.3377 12.1552C-18.0043 12.1552 -19.3883 13.4085 -19.3883 15.3175C-19.3883 17.2876 -18.0042 18.5351 -16.3389 18.5351C-14.6995 18.5375 -13.2896 17.2264 -13.2896 15.3175ZM-33.0848 14.9739C-33.0848 12.952 -32.0397 12.2681 -30.6569 12.2681C-29.3305 12.2681 -28.3702 13.1509 -28.3702 14.9162V22.0093H-24.4464V14.0629C-24.4464 10.2756 -26.3106 8.42319 -29.2752 8.42319C-30.8275 8.42319 -32.3799 9.30587 -33.086 10.6452V8.71035H-37.0073V22.0093H-33.0848V14.9739ZM-44.9749 22.2377C-48.7008 22.2377 -51.809 19.5037 -51.809 15.3163C-51.809 11.1265 -48.7044 8.41966 -44.9749 8.41966C-41.2453 8.41966 -38.1136 11.1265 -38.1136 15.3163C-38.1136 19.5061 -41.2489 22.2389 -44.9749 22.2389V22.2377ZM-44.9749 18.3657C-43.339 18.3657 -41.9821 17.1676 -41.9821 15.3175C-41.9821 13.5227 -43.3378 12.2976 -44.9749 12.2976C-45.369 12.2914 -45.7604 12.3655 -46.1249 12.5155C-46.4896 12.6654 -46.8197 12.8879 -47.0956 13.1697C-47.373 13.4528 -47.5907 13.7889 -47.7356 14.1578C-47.8807 14.5268 -47.9499 14.9213 -47.9394 15.3175C-47.9383 17.1699 -46.5837 18.3657 -44.9749 18.3657ZM-58.8433 12.2693C-57.6864 12.2693 -56.6695 13.1814 -56.6695 14.9173V22.0117H-52.774V14.4583C-52.774 10.4428 -54.7265 8.42084 -57.8558 8.42084C-58.7856 8.42084 -60.5368 8.70329 -61.8078 10.7841C-62.5422 9.24585 -63.9533 8.4479 -66.0387 8.4479C-66.7628 8.44422 -67.4726 8.64915 -68.0832 9.03817C-68.6939 9.42721 -69.1796 9.98389 -69.4823 10.6417V8.71153H-73.4084V22.0106H-69.4858V14.9739C-69.4858 12.952 -68.3843 12.2681 -67.1991 12.2681C-66.0693 12.2681 -65.0548 13.1509 -65.0255 14.8314V22.0106H-61.1017V14.9739C-61.1017 13.0402 -60.0849 12.2705 -58.8433 12.2705V12.2693Z" fill="black"/>
</g>
</g>
<defs>
<clipPath id="clip0_1_1054">
<rect width="150" height="29.1" fill="white" transform="translate(-104.87 0.449951)"/>
</clipPath>
</defs>
</svg>
