<svg width="66" height="20" viewBox="0 0 66 20" fill="none" xmlns="http://www.w3.org/2000/svg">
<g clip-path="url(#clip0_1_1131)">
<g clip-path="url(#clip1_1_1131)">
<mask id="mask0_1_1131" style="mask-type:luminance" maskUnits="userSpaceOnUse" x="1" y="0" width="65" height="20">
<path d="M65.9606 0.710449H1.18701V19.2893H65.9606V0.710449Z" fill="white"/>
</mask>
<g mask="url(#mask0_1_1131)">
<path d="M19.3044 0.710449C16.337 0.710449 13.9221 3.12446 13.9221 6.09282V15.6772H11.9509V6.09636C11.9509 3.128 9.53686 0.713105 6.56938 0.713105C3.60191 0.713105 1.18701 3.128 1.18701 6.09548V19.0768H4.58398V6.09548C4.58398 5.00094 5.47396 4.11096 6.5685 4.11096C7.66304 4.11096 8.55302 5.00094 8.55302 6.09548V19.0768L17.3191 19.0723V6.09282C17.3191 4.99829 18.2091 4.1083 19.3036 4.1083C20.3982 4.1083 21.2881 4.99829 21.2881 6.09282V19.0741H24.6851V6.09282C24.6851 3.12534 22.271 0.710449 19.3027 0.710449H19.3044Z" fill="black"/>
<path d="M34.4372 13.4118C34.4372 14.7791 33.3249 15.8923 31.9568 15.8923C30.5886 15.8923 29.4764 14.78 29.4764 13.4118V6.09277H26.0793V13.4128C26.0793 16.6538 28.7156 19.2902 31.9568 19.2902C35.1979 19.2902 37.8342 16.6538 37.8342 13.4128V6.09277H34.4372V13.4128V13.4118Z" fill="black"/>
<path d="M65.9602 0.92041H62.5632V19.0733H65.9602V0.92041Z" fill="black"/>
<path d="M39.2286 19.0741H42.6256V9.51275H47.6006V6.09277H39.2286V19.0741Z" fill="black"/>
<path d="M57.7718 7.19976C56.718 6.39037 55.4198 5.9104 54.0171 5.9104C50.5032 5.9104 47.6455 8.91064 47.6455 12.598C47.6455 16.2855 50.504 19.2858 54.0171 19.2858C55.4206 19.2858 56.718 18.8058 57.7718 17.9964V19.0732H61.1688V6.09282H57.7718V7.19976ZM57.7718 12.761C57.6921 14.6835 56.215 16.2217 54.4085 16.2217C52.6019 16.2217 51.0415 14.5959 51.0415 12.598C51.0415 10.6003 52.5523 8.9744 54.4085 8.9744C56.2645 8.9744 57.6921 10.5126 57.7718 12.4351V12.7601V12.761Z" fill="black"/>
</g>
</g>
</g>
<defs>
<clipPath id="clip0_1_1131">
<rect width="65.45" height="20" fill="white" transform="translate(0.51001)"/>
</clipPath>
<clipPath id="clip1_1_1131">
<rect width="65.45" height="19.9986" fill="white" transform="translate(0.51001 0.000732422)"/>
</clipPath>
</defs>
</svg>
