<svg width="144" height="36" viewBox="0 0 144 36" fill="none" xmlns="http://www.w3.org/2000/svg">
<g clip-path="url(#clip0_1_1080)">
<g clip-path="url(#clip1_1_1080)">
<mask id="mask0_1_1080" style="mask-type:luminance" maskUnits="userSpaceOnUse" x="0" y="0" width="143" height="36">
<path d="M142.963 0.499756H0.879974V35.0458H142.963V0.499756Z" fill="white"/>
</mask>
<g mask="url(#mask0_1_1080)">
<path d="M35.1391 30.7519V29.4355H29.4623V34.9295H30.8867V32.8531H34.1133V31.5658H30.8867V30.7519H35.1391Z" fill="black"/>
<path d="M48.473 29.4355H47.0486V34.9295H48.473V29.4355Z" fill="black"/>
<path d="M60.3071 30.7436H62.8527V34.9295H64.277V30.7436H66.8226V29.4355H60.3071V30.7436Z" fill="black"/>
<path d="M83.5377 32.6456L79.0612 29.3567H78.5753V34.9296H80.0038V31.7029L84.4966 35.0459H84.9667V29.4356H83.5377V32.6456Z" fill="black"/>
<path d="M98.6033 32.7576H101.618V31.4745H98.6033V30.7519H102.781V29.4355H97.1791V34.9295H102.984V33.609H98.6033V32.7576Z" fill="black"/>
<path d="M118.557 31.4746L117.02 31.404C115.998 31.3583 115.998 31.1798 115.998 31.0842C115.998 30.7894 116.584 30.615 117.56 30.615C118.806 30.615 119.42 30.8559 119.897 31.1175L120.172 31.267L120.795 30.1084L120.521 29.9589C119.74 29.5311 118.852 29.3525 117.556 29.3525C115.662 29.3525 114.574 30.0087 114.574 31.1465C114.574 32.5958 116.235 32.6871 116.862 32.7204L118.398 32.791C119.537 32.845 119.537 33.0194 119.537 33.173C119.537 33.5385 118.888 33.7585 117.805 33.7585C116.501 33.7585 115.72 33.4264 115.301 33.1481L115.047 32.9779L114.283 34.0783L114.553 34.2527C115.359 34.776 116.392 35.021 117.805 35.021C119.823 35.021 120.982 34.3233 120.982 33.1107C120.982 31.5909 119.342 31.512 118.557 31.4746Z" fill="black"/>
<path d="M136.463 31.4743L134.927 31.4037C133.905 31.3581 133.905 31.1795 133.905 31.084C133.905 30.7891 134.487 30.6147 135.467 30.6147C136.712 30.6147 137.331 30.8556 137.808 31.1131L138.082 31.2626L138.706 30.104L138.432 29.9545C137.647 29.5267 136.762 29.3481 135.467 29.3481C133.572 29.3481 132.489 30.0043 132.489 31.1421C132.489 32.5914 134.146 32.6827 134.777 32.716L136.313 32.7866C137.452 32.8406 137.452 33.015 137.452 33.1686C137.452 33.5341 136.803 33.7541 135.72 33.7541C134.416 33.7541 133.635 33.4219 133.216 33.1437L132.962 32.9776L132.198 34.0739L132.468 34.2483C133.274 34.7716 134.307 35.0166 135.72 35.0166C137.738 35.0166 138.892 34.3189 138.892 33.1063C138.892 31.5865 137.252 31.5076 136.467 31.4701L136.463 31.4743Z" fill="black"/>
<path d="M26.5417 12.3932H29.3821V13.6016L29.5233 13.4397L29.7019 13.2195C30.2708 12.5385 31.0722 12.1938 31.9775 12.1523H32.3181V14.7269C32.1768 14.6854 32.0356 14.6647 31.8945 14.6481C30.2832 14.5068 29.4984 15.3333 29.4984 16.9238V22.8247H26.5376V12.3932H26.5417Z" fill="black"/>
<path d="M35.7187 16.4792C36.1838 16.4168 36.6448 16.3961 37.1057 16.4583C38.0733 16.558 38.717 16.7989 39.261 17.2017V16.4792C39.261 15.4119 38.5757 14.7475 36.8649 14.544C36.2212 14.4651 35.2162 14.4651 34.0867 14.6062C33.9248 14.6271 33.7628 14.6478 33.6051 14.6852V12.4302C34.2071 12.3306 34.7304 12.2891 35.3159 12.2476C40.2077 12.0648 42.1014 13.6553 42.1014 16.6577V22.8202H39.1821V21.8942C39.0824 21.9731 38.962 22.0769 38.8623 22.1558C38.0566 22.7206 37.1929 23.003 36.0841 22.9822C33.5676 22.9822 32.0768 21.4332 32.1557 19.7597C32.1931 18.1277 33.4638 16.7573 35.7187 16.4792ZM36.8482 21.1717C37.1099 21.1924 37.3507 21.1924 37.5916 21.1509C38.0566 21.0886 38.3764 20.9682 38.6381 20.7896C39.3814 20.3079 39.4644 19.3403 38.8996 18.8171C38.6173 18.5555 38.1522 18.3353 37.5916 18.2731C36.0426 18.0696 35.154 18.7756 35.0958 19.7223C35.1125 20.4657 35.698 21.072 36.8482 21.1717Z" fill="black"/>
<path d="M44.324 12.3931H47.1644V13.5226C47.2433 13.4437 47.3264 13.3607 47.4052 13.2818C48.2316 12.5592 49.0746 12.2145 50.0837 12.1938C52.621 12.1315 54.1907 13.8424 54.1907 16.824V22.8246H51.2299V17.206C51.2506 15.6737 50.7066 14.8889 49.6394 14.6106C48.1694 14.2494 47.2848 15.055 47.2848 16.6662V22.8288H44.324V12.3931Z" fill="black"/>
<path d="M55.9769 16.6618C56.197 15.254 56.9652 14.0456 58.0698 13.2607C60.1046 11.8115 62.7623 12.1146 64.0081 13.6013V12.3929H66.8486V22.762C66.8486 25.6814 64.8927 27.496 60.9061 27.5542C60.304 27.5542 59.6977 27.5127 59.0747 27.413V24.8342C59.6395 24.9962 60.2002 25.075 60.7649 25.0543C62.8994 25.0128 63.8669 24.1283 63.8669 22.6V21.836C62.7997 23.0652 60.7649 23.5261 58.7717 22.6209C57.2019 21.9149 56.1554 20.4864 55.9312 18.655C55.8938 18.3311 55.8482 17.9906 55.8689 17.6667C55.8689 17.3262 55.9104 17.0023 55.9686 16.6618M58.9086 18.0695C59.1121 19.8427 60.3579 20.8061 61.9691 20.5279C63.0779 20.3452 63.842 19.4815 64.004 18.0903C64.0455 17.7664 64.0455 17.4466 64.004 17.1435C63.8047 15.5115 62.8371 14.627 61.4459 14.627C60.0548 14.627 59.108 15.5115 58.9086 17.1227C58.8879 17.2847 58.8672 17.4466 58.8672 17.6045C58.8672 17.7622 58.8879 17.9075 58.9086 18.0695Z" fill="black"/>
<path d="M79.8258 12.3931H80.9927V9.73538L82.5001 9.11255V12.3931H85.2992L85.0167 13.5019H82.5001V19.3156L82.5416 19.9634C82.5623 21.1926 83.3264 21.857 84.8958 21.7574C85.0167 21.7574 85.1367 21.7366 85.2575 21.7159V22.8827C85.1367 22.9035 85.0167 22.9243 84.8958 22.9243C81.9353 23.1651 80.9927 22.1394 80.9927 19.0374V13.5019H79.643L79.8258 12.3931Z" fill="black"/>
<path d="M86.5725 8.32342L88.1008 7.99951V14.079C88.2833 13.8174 88.5033 13.5765 88.7441 13.3564C89.33 12.8124 90.0358 12.4512 90.8166 12.2893C93.8566 11.6456 96.1116 13.5973 96.1116 16.7575V22.8163H94.5791V17.2599C94.5791 14.7019 93.4116 13.4146 91.3775 13.4561C89.3425 13.4768 88.0966 14.8265 88.0966 16.9983V22.8163H86.5683V8.32342H86.5725Z" fill="black"/>
<path d="M98.1925 15.4578C98.9025 13.7094 100.422 12.5218 102.316 12.2311C105.542 11.7411 108.329 14.0541 108.482 17.289C108.487 17.5008 108.482 17.7293 108.466 17.9535H99.38C99.3675 18.0199 99.3716 18.1445 99.3675 18.2275C99.4583 19.5688 100.193 20.6901 101.456 21.3296C103.03 22.1393 104.932 21.8279 106.357 20.4451C106.414 20.3786 106.497 20.3163 106.56 20.2291L107.697 21.0223C107.382 21.4168 107.017 21.7532 106.597 22.0563C105.197 23.0488 103.549 23.3478 101.838 22.8785C98.7691 22.0313 97.2616 19.4443 97.8725 16.5042C97.9475 16.1471 98.0466 15.7983 98.18 15.4618M106.987 16.8447L106.979 16.6537L106.946 16.417C106.925 16.2508 106.904 16.1761 106.838 15.9478C106.402 14.4278 105.04 13.3855 103.333 13.3523C101.602 13.3357 100.173 14.3614 99.6041 16.0433C99.5333 16.2966 99.4583 16.5665 99.4466 16.8364L106.983 16.8447H106.987Z" fill="black"/>
<path d="M116.654 12.1106C119.511 12.5342 121.284 14.6478 121.284 17.5672C121.284 20.4865 119.511 22.6002 116.654 23.0237C112.85 23.5677 110.068 21.1094 110.068 17.5672C110.068 14.0249 112.846 11.5666 116.654 12.1106ZM115.001 21.6534C115.446 21.7322 115.907 21.7322 116.368 21.6534C118.664 21.2506 120.051 19.2573 119.611 16.6785C119.448 15.7732 119.067 15.0465 118.444 14.4652C117.738 13.8007 116.791 13.4394 115.687 13.4394C114.582 13.4394 113.631 13.8007 112.929 14.4652C112.123 15.2126 111.683 16.2591 111.683 17.5672C111.683 19.7432 112.971 21.3128 115.005 21.6534" fill="black"/>
<path d="M123.308 12.393H124.798V13.8631C124.857 13.7842 124.898 13.7011 124.961 13.6222C125.683 12.6172 126.609 12.1107 127.818 12.094C127.958 12.094 128.1 12.094 128.241 12.1148V13.5433C128.1 13.5226 127.938 13.5017 127.776 13.5017C126.85 13.4602 126.044 13.7842 125.5 14.3863C125.035 14.9303 124.836 15.4951 124.836 16.4211V22.8245H123.303V12.393H123.308Z" fill="black"/>
<path d="M129.487 12.3931H131.019V18.0905C131.019 20.2832 131.762 21.313 133.494 21.6327C133.959 21.7158 134.42 21.7158 134.885 21.612C136.637 21.2881 137.443 20.2416 137.443 18.4103V12.3889H138.955V22.3761C138.955 25.2538 136.862 27.1475 132.593 26.8858C132.332 26.8858 132.091 26.8443 131.85 26.8236V25.5362C132.091 25.5777 132.336 25.5944 132.577 25.6152C135.898 25.7978 137.431 24.4482 137.431 22.1103V21.1635C137.352 21.2839 137.248 21.3836 137.169 21.4874C136.264 22.4923 135.217 22.9574 133.764 22.9574C131.247 22.9574 129.677 21.4458 129.516 19.1328C129.495 18.8505 129.495 18.838 129.495 18.2483V12.3889L129.487 12.3931Z" fill="black"/>
<path d="M141.874 8.5437C142.953 8.5437 143.793 9.3825 143.793 10.429C143.793 11.4755 142.953 12.3268 141.862 12.3268C140.769 12.3268 139.918 11.5004 139.918 10.429C139.918 9.35758 140.782 8.5437 141.862 8.5437H141.874ZM141.849 8.92158C141.023 8.92158 140.4 9.5985 140.4 10.429C140.4 11.2596 141.023 11.9364 141.87 11.9364C142.696 11.9489 143.307 11.2678 143.307 10.429C143.307 9.59017 142.696 8.92158 141.858 8.92158H141.845H141.849ZM141.563 11.4049H141.127V9.532C141.301 9.49883 141.542 9.46142 141.849 9.46142C142.206 9.46142 142.368 9.51958 142.505 9.61092C142.609 9.68983 142.688 9.83933 142.688 10.0138C142.688 10.2338 142.526 10.3917 142.298 10.4623V10.4872C142.48 10.5453 142.584 10.6948 142.643 10.9481C142.7 11.2347 142.733 11.3509 142.779 11.409H142.31C142.252 11.3384 142.218 11.1807 142.161 10.9606C142.128 10.7529 142.011 10.6616 141.77 10.6616H141.563V11.409V11.4049ZM141.575 10.3459H141.783C142.023 10.3459 142.218 10.2671 142.218 10.0719C142.218 9.8975 142.09 9.78533 141.816 9.78533C141.699 9.78533 141.621 9.79783 141.575 9.81025V10.3501V10.3459Z" fill="black"/>
<path d="M79.2262 18.4019C79.2427 18.1195 79.2427 17.8122 79.2427 17.5257C79.1597 14.4694 77.0667 12.3141 74.1059 12.1314C73.3833 12.094 72.6691 12.1854 71.9963 12.418C70.165 13.0533 68.9151 14.5275 68.4957 16.392C67.8686 19.1619 69.3719 22.0563 72.4988 22.9117C74.6126 23.5055 76.61 22.9366 78.1547 21.3212C78.2461 21.2215 78.3126 21.1344 78.4039 21.0347L76.1366 19.4982C76.0826 19.5439 76.0452 19.5979 75.9912 19.6435C75.5718 20.092 75.1648 20.3536 74.7122 20.4782C73.9564 20.7066 73.2214 20.6444 72.6442 20.3163C71.8261 19.8761 71.3817 19.083 71.4233 18.406H71.4482H79.2262V18.4019ZM74.189 14.2866C75.4597 14.3074 76.4397 15.1504 76.5809 16.4211V16.5415H71.5271C71.5687 16.3879 71.5936 16.2342 71.6558 16.0847C72.0587 14.9427 73.047 14.2575 74.189 14.2866Z" fill="black"/>
<path d="M25.9524 24.0537C23.9923 24.336 23.0123 22.704 23.656 21.2922C24.1917 20.1169 24.4533 18.8545 24.4533 17.5091C24.4533 16.1636 24.2124 14.9261 23.6767 13.7509C23.2033 12.6047 23.9965 10.6821 25.9566 10.9686C27.0072 11.1222 27.8252 10.1339 27.8252 8.77186C27.8252 7.40978 27.0072 6.09339 25.9566 5.81932C24.852 5.53278 23.9176 6.4962 23.9176 7.98285C23.9176 10.5741 22.4974 11.6164 21.3471 10.6447C20.3338 9.78092 19.1503 9.2245 17.7924 9.00858C16.3888 8.78432 15.006 8.98783 13.7685 9.53592C13.6439 9.58992 13.5111 9.63558 13.374 9.65225C12.0077 9.83075 9.85665 8.21955 9.85665 5.13827C9.85665 3.20314 8.20393 1.20986 6.04039 0.649251C3.72736 0.0512675 1.72163 1.30122 1.72163 3.48552C1.72163 5.66982 3.72321 7.73369 6.04039 8.07006C9.24623 8.53516 10.8658 10.4454 10.5502 11.9943C10.5128 12.1687 10.4422 12.3348 10.3467 12.4843C9.4539 13.863 8.91403 15.5739 8.91403 17.5049C8.91403 19.3487 9.41232 20.9932 10.2346 22.3427C10.3259 22.4922 10.3924 22.6542 10.4215 22.8286C10.6831 24.2488 9.29607 26.4581 6.03208 26.9314C3.71905 27.2678 1.71332 29.3317 1.71332 31.516C1.71332 33.7002 3.71905 34.9544 6.03624 34.3522C8.19978 33.7917 9.85257 31.8025 9.85257 29.8715C9.85257 26.7861 11.7378 24.9797 13.2909 25.2953C13.4031 25.3161 13.5111 25.3576 13.6148 25.4074C14.8939 26.0096 16.3307 26.2463 17.7966 26.0096C19.1462 25.7936 20.3172 25.2537 21.3263 24.3983C22.269 23.6592 23.9135 24.444 23.9135 27.0352C23.9135 28.5219 24.8478 29.4853 25.9524 29.1988C27.0031 28.9247 27.8211 27.6083 27.8211 26.2463C27.8211 24.8842 27.0031 23.8958 25.9524 24.0495V24.0537ZM17.7302 22.8245C14.9478 23.1359 12.4438 20.7731 12.4438 17.5091C12.4438 14.2451 14.952 11.8822 17.7302 12.1937C20.2176 12.476 22.0489 14.8431 22.0489 17.5091C22.0489 20.1751 20.2176 22.5462 17.7302 22.8245Z" fill="black"/>
</g>
</g>
</g>
<defs>
<clipPath id="clip0_1_1080">
<rect width="142.5" height="35" fill="white" transform="translate(0.879974 0.5)"/>
</clipPath>
<clipPath id="clip1_1_1080">
<rect width="142.5" height="35" fill="white" transform="translate(0.879974 0.5)"/>
</clipPath>
</defs>
</svg>
