<svg width="87" height="16" viewBox="0 0 87 16" fill="none" xmlns="http://www.w3.org/2000/svg">
<g clip-path="url(#clip0_1_1128)">
<g clip-path="url(#clip1_1_1128)">
<path fill-rule="evenodd" clip-rule="evenodd" d="M81.2113 3.13849C82.7422 3.13849 84.3459 3.48015 85.4637 3.91943V0.917681C84.3216 0.551614 82.7422 0.185547 80.6767 0.185547C76.7645 0.185547 74.1158 1.64981 74.1158 4.70037C74.1158 9.97176 81.673 8.89794 81.673 11.3384C81.673 12.2902 80.7739 12.827 79 12.827C77.3963 12.827 75.5252 12.7782 74.0672 12.0949V15.0723C75.5252 15.5848 77.6393 15.8044 79.243 15.8044C83.301 15.8044 86.2413 14.5842 86.2413 10.8259C86.2413 5.79857 78.6355 7.26284 78.6355 4.2855C78.6112 3.16289 79.8262 3.13849 81.2113 3.13849ZM65.2465 11.7288H63.8858V15.8044H59.1474V0.185547C59.2446 0.185547 62.9138 0.25876 64.5662 0.185547C69.4504 0.25876 72.7065 1.82065 72.7065 5.62774C72.7065 10.0694 69.5232 11.7288 65.2465 11.7288ZM64.5905 2.89444C64.3475 2.89444 64.1774 2.89444 63.9101 2.89444V8.99556H64.5905C66.9718 8.99556 67.9681 8.26342 67.9681 5.60334C67.9681 3.96824 66.8503 2.91885 64.5905 2.89444ZM51.7361 0.185547H56.4744V15.8044H51.7361V0.185547ZM40.2424 15.8044V0.185547H44.9809V12.4122H49.7192L49.0389 15.8044H40.2424ZM32.8069 0.185547H37.5452V15.8044H32.8069V0.185547ZM25.3712 9.70329H20.6329V15.8044H15.8944V0.185547H20.6329V6.28667H25.3712V0.185547H30.1096V15.8044H25.3712V9.70329ZM7.09804 11.7288H5.73728V15.8044H1.02319V0.185547C1.12039 0.185547 4.78961 0.25876 6.44196 0.185547C11.3261 0.25876 14.558 1.82065 14.558 5.62774C14.558 10.0694 11.3747 11.7288 7.09804 11.7288ZM6.44196 2.89444C6.19897 2.89444 6.02887 2.89444 5.76158 2.89444V8.99556H6.44196C8.82331 8.99556 9.81959 8.26342 9.81959 5.60334C9.81959 3.96824 8.70181 2.91885 6.44196 2.89444Z" fill="black"/>
</g>
</g>
<defs>
<clipPath id="clip0_1_1128">
<rect width="86" height="15.82" fill="white" transform="translate(0.51001 0.0900879)"/>
</clipPath>
<clipPath id="clip1_1_1128">
<rect width="85.9669" height="15.81" fill="white" transform="translate(0.526611 0.0900879)"/>
</clipPath>
</defs>
</svg>
