<svg width="78" height="24" viewBox="0 0 78 24" fill="none" xmlns="http://www.w3.org/2000/svg">
<g clip-path="url(#clip0_1_1142)">
<g clip-path="url(#clip1_1_1142)">
<path d="M19.9642 23.9998L62.5389 20.1133H16.274L19.9642 23.9998Z" fill="black"/>
<path d="M72.4125 4.08154C71.5391 4.10303 70.6901 4.38983 69.9678 4.90744V4.37304H67.1079V17.5873H69.9678V9.86285C69.9477 9.52439 69.9935 9.18521 70.1027 8.86615C70.2118 8.54718 70.3818 8.25508 70.6022 8.00792C70.8226 7.76077 71.0889 7.56379 71.3843 7.42915C71.6797 7.2945 71.9983 7.22503 72.3202 7.22503C72.6422 7.22503 72.9607 7.2945 73.2562 7.42915C73.5517 7.56379 73.8178 7.76077 74.0382 8.00792C74.2587 8.25508 74.4287 8.54718 74.5378 8.86615C74.6469 9.18521 74.6929 9.52439 74.6727 9.86285V17.6359H77.5325V9.86285C77.5325 6.65639 75.4569 4.08154 72.4125 4.08154Z" fill="black"/>
<path d="M60.5094 4.03223C57.1883 4.03223 54.8358 7.09289 54.8358 10.9795C54.8358 15.0604 57.7879 17.9266 60.7862 17.9266C62.3083 17.9266 64.1995 17.3923 65.814 14.9632L63.277 13.4086C61.3397 16.4206 58.0647 14.9146 57.6956 11.8539H65.9062C66.6442 7.19006 63.7383 4.03223 60.5094 4.03223ZM57.8802 9.27905C58.4799 6.21842 62.4467 6.02409 63.0002 9.27905H57.8802Z" fill="black"/>
<path d="M48.749 13.2144C48.7236 13.8199 48.8142 14.4247 49.0155 14.9926C49.2168 15.5604 49.5248 16.0797 49.9209 16.5195C50.3169 16.9593 50.793 17.3107 51.3207 17.5524C51.8485 17.7942 52.4171 17.9215 52.9926 17.9268C53.9649 17.8909 54.9145 17.6076 55.7602 17.1009L53.9152 14.4775C53.6318 14.6904 53.2944 14.8088 52.9465 14.8175C52.7564 14.8119 52.5695 14.7651 52.3974 14.68C52.2253 14.5947 52.0717 14.4732 51.9462 14.3227C51.8206 14.1724 51.7259 13.9962 51.6679 13.8055C51.6098 13.6149 51.5898 13.4136 51.6088 13.2144V7.53025H54.0535V4.37243H51.6088V1.06885H48.749V4.37243H47.2268V7.53025H48.749V13.2144Z" fill="black"/>
<path d="M40.9493 17.9274C41.8227 17.9059 42.6717 17.6191 43.394 17.1016V17.5873H46.2539V4.37305H43.394V12.1462C43.4141 12.4846 43.3683 12.8238 43.2591 13.1428C43.15 13.4618 42.9801 13.7539 42.7596 14.0011C42.5392 14.2482 42.273 14.4452 41.9776 14.5798C41.6821 14.7145 41.3635 14.7839 41.0416 14.7839C40.7196 14.7839 40.4011 14.7145 40.1056 14.5798C39.8101 14.4452 39.544 14.2482 39.3236 14.0011C39.1031 13.7539 38.9332 13.4618 38.824 13.1428C38.7149 12.8238 38.669 12.4846 38.6892 12.1462V4.37305H35.8293V12.1462C35.8293 15.3526 37.905 17.9274 40.9493 17.9274Z" fill="black"/>
<path d="M27.9468 12.1941L32.1905 17.6353H36.1573L30.4838 10.5909L35.3732 4.37238H31.4063L27.9468 8.98771V0H25.0409V17.6353H27.9468V12.1941Z" fill="black"/>
<path d="M20.5655 17.0036V17.5867H23.4254V4.37231H20.5655V4.95529C19.7861 4.36294 18.8512 4.04038 17.8901 4.03223C14.6613 4.03223 12.1704 7.14148 12.1704 10.9795C12.1704 14.8175 14.6152 17.9266 17.8901 17.9266C18.8524 17.9261 19.7894 17.6028 20.5655 17.0036ZM15.0764 11.0281C15.0764 8.93905 16.2296 7.28722 17.844 7.28722C19.4584 7.28722 20.5655 8.93905 20.5655 11.0281C20.5655 13.1171 19.4584 14.7689 17.844 14.7689C16.2296 14.7689 15.0764 13.1171 15.0764 11.0281Z" fill="black"/>
<path d="M11.2468 6.75295C11.2456 5.24583 10.6765 3.8008 9.66474 2.7351C8.6529 1.6694 7.28092 1.07013 5.84997 1.06885H0.960571V17.5868H3.95879V12.4856H6.03448L9.67847 17.5868H13.4148L8.98657 11.4169C9.69323 10.8898 10.268 10.1902 10.6617 9.37786C11.0554 8.56562 11.2561 7.66488 11.2468 6.75295ZM5.8961 9.37641H3.95879V4.22668H5.8961C6.54448 4.22668 7.16629 4.49796 7.62477 4.98083C8.08323 5.46371 8.3408 6.11863 8.3408 6.80153C8.3408 7.48442 8.08323 8.13934 7.62477 8.62218C7.16629 9.10512 6.54448 9.37641 5.8961 9.37641Z" fill="black"/>
</g>
</g>
<defs>
<clipPath id="clip0_1_1142">
<rect width="77" height="24" fill="white" transform="translate(0.959961)"/>
</clipPath>
<clipPath id="clip1_1_1142">
<rect width="77" height="24" fill="white" transform="translate(0.959961)"/>
</clipPath>
</defs>
</svg>
