<svg width="89" height="28" viewBox="0 0 89 28" fill="none" xmlns="http://www.w3.org/2000/svg">
<g clip-path="url(#clip0_1_1118)">
<g clip-path="url(#clip1_1_1118)">
<path fill-rule="evenodd" clip-rule="evenodd" d="M86.8806 4.56929C86.9734 4.93369 86.565 5.28375 86.3526 5.55156C84.5708 7.78293 82.5948 10.4227 80.221 12.1175C80.3921 13.0051 80.3013 14.1834 79.9913 14.8338C80.613 15.6257 81.273 16.3755 81.6574 17.4009C81.1516 20.0789 79.977 22.1563 78.0995 23.5144C76.267 24.8382 73.7908 25.3604 70.9817 26.005C65.5501 27.2532 56.6131 28.4841 52.5837 25.2495C48.2204 27.8013 39.4029 28.1379 35.3218 25.0983C32.4209 28.7586 20.9772 28.4372 22.6796 21.174C20.5572 22.7761 17.4191 24.9845 14.4255 26.2317C10.9537 27.6759 4.3791 27.5133 5.03618 22.6087C5.11556 22.0243 5.36328 21.6943 5.64256 21.174C4.62682 19.4075 3.98505 18.1813 3.37102 16.6453C2.7828 15.1724 1.88566 13.4957 1.78045 11.4384C1.56047 7.06177 4.98262 4.28714 8.37033 2.98351C10.0986 2.31879 11.5027 1.35565 13.2147 0.872648C15.7731 0.145753 17.9663 1.54885 18.1355 3.89117C21.11 3.01125 24.7321 2.04047 28.6602 2.60858C31.7878 0.18401 37.8956 1.6818 41.9098 2.83335C42.8175 3.09446 44.0388 3.76875 44.7111 3.74006C45.2803 3.7171 46.3085 2.94716 46.9053 2.68319C49.7219 1.4379 53.4043 0.112278 57.43 0.796132C58.1922 0.924295 58.8894 1.32696 59.7005 1.39869C60.2514 1.44938 60.9247 1.27722 61.5178 1.24949C70.9262 0.79135 78.7585 3.3087 86.8806 4.56929ZM60.5345 4.26897C59.5733 4.38374 58.8913 5.432 58.263 5.77823C58.3089 5.77345 58.3519 5.7658 58.3375 5.70171C58.4524 5.18715 58.6723 4.77684 58.7163 4.19341C53.6778 2.42399 48.7742 5.01021 45.1655 6.98526C42.2789 8.56339 39.7042 10.4188 37.8965 12.2677C38.5498 11.1582 39.2432 10.0602 40.017 9.02343C40.8012 7.97039 41.6745 7.01777 42.365 6.08047C40.8557 5.68641 39.3427 5.27036 37.8201 4.94708C35.6566 4.488 32.6476 3.72762 30.8552 4.72136C30.3368 5.0083 29.9121 5.71511 29.4168 5.77823C29.0064 5.83083 28.3312 5.53242 27.8262 5.47695C25.9764 5.27131 24.274 5.44252 22.6021 5.77823C21.0364 6.09099 17.7262 6.64572 17.3015 8.11673C17.0299 9.06169 17.6363 9.977 17.5292 10.9114C17.4259 11.8296 16.5402 13.0462 16.0906 13.7788C15.5407 14.6779 14.9812 15.4736 14.0458 15.8916C13.4796 13.0797 14.0955 10.5786 14.5766 8.1942C14.8731 6.72415 15.4709 5.21967 14.9564 3.74006C13.5121 3.54016 12.2965 4.67928 10.8666 5.24836C8.18095 6.31957 5.19016 7.2961 4.81046 10.3815C4.59621 12.1195 5.25137 13.2241 5.71907 14.4579C6.64326 16.9266 7.89117 19.2615 9.43006 21.4017C9.02836 22.1362 8.08435 22.3275 7.98967 23.3624C8.41719 23.9649 9.30668 24.0453 10.1857 24.0424C12.7259 24.0367 14.809 22.7627 16.6961 21.7029C20.8049 19.3979 23.5652 15.8505 26.4642 12.4953C26.973 11.9052 27.392 11.1945 28.0547 10.8349C28.7051 13.8161 27.4398 15.4106 26.5388 17.8533C26.1916 18.7944 25.0965 21.7402 25.6302 23.1357C26.2156 24.6708 31.1996 24.7377 32.5204 23.7421C33.1861 23.24 33.451 22.1066 33.8087 21.4017C34.2649 20.495 34.66 19.7126 35.0196 18.9111C35.0396 22.2176 37.5035 23.1883 40.1671 23.8922C45.8292 25.3843 51.5392 22.7187 54.6285 20.8747C54.2421 23.3241 55.1966 23.5699 57.1277 23.9688C62.1202 24.996 67.1483 23.8109 71.2093 22.8354C74.9328 21.9421 77.9264 21.3108 78.4783 17.6266C77.8825 17.113 76.3932 17.177 75.3746 17.3263C72.3714 17.7643 69.4639 19.2774 65.4564 18.9857C64.7247 18.9331 63.1456 18.6787 63.0318 18.2321C62.8558 17.5358 64.1069 17.0479 65.155 16.8739C68.1583 16.3669 72.5005 16.8787 74.9194 15.9652C76.0805 15.5292 77.4817 14.2686 77.3411 12.8722C77.2492 11.9291 76.0145 11.4356 74.8428 11.3638C71.5297 11.1572 69.1616 13.0854 65.6849 12.4197C66.1191 11.8727 66.1976 10.9707 66.7427 10.5336C69.2859 10.4801 71.7565 10.9831 74.1628 10.8349C77.5084 10.6265 79.3946 9.22141 80.9774 7.36305C81.1468 7.1622 81.5714 6.947 81.4318 6.60938C75.6204 5.72754 67.6992 3.39287 60.5345 4.26897ZM49.0256 10.0784C48.6526 11.7713 47.8731 13.709 47.4361 15.5875C49.8425 15.6219 52.3809 15.1322 54.8552 14.984C55.1899 14.5383 55.3544 13.9223 55.5372 13.3236C56.0335 14.0237 56.3827 15.334 55.9158 16.3421C52.158 16.2895 49.4571 19.3578 45.7709 19.3607C44.1201 19.3625 42.717 18.4166 43.4984 16.5678C44.6022 13.9615 47.3395 12.1405 49.0256 10.0784ZM57.8086 7.28558C58.5164 8.08994 60.0658 8.05552 60.9879 8.64564C59.7436 8.96413 58.1769 8.96221 57.0502 9.39835C57.3161 8.70589 57.5543 7.98761 57.8086 7.28558Z" fill="black"/>
</g>
</g>
<defs>
<clipPath id="clip0_1_1118">
<rect width="88" height="27" fill="white" transform="translate(0.380005 0.5)"/>
</clipPath>
<clipPath id="clip1_1_1118">
<rect width="86.7857" height="27" fill="white" transform="translate(0.987122 0.5)"/>
</clipPath>
</defs>
</svg>
