<svg width="1422" height="232" viewBox="0 0 1422 232" fill="none" xmlns="http://www.w3.org/2000/svg">
<path opacity="0.35" d="M42 -22L0 20" stroke="#220E39" stroke-width="3.5"/>
<path opacity="0.35" d="M84 -22L42 20" stroke="#220E39" stroke-width="3.5"/>
<path opacity="0.35" d="M84 -22L126 20" stroke="#220E39" stroke-width="3.5"/>
<path opacity="0.35" d="M126 -22L168 20" stroke="#220E39" stroke-width="3.5"/>
<path opacity="0.35" d="M168 -22L210 20" stroke="#220E39" stroke-width="3.5"/>
<path opacity="0.35" d="M210 -22L252 20" stroke="#220E39" stroke-width="3.5"/>
<path opacity="0.35" d="M294 -22L252 20" stroke="#220E39" stroke-width="3.5"/>
<path opacity="0.35" d="M294 -22L336 20" stroke="#220E39" stroke-width="3.5"/>
<path opacity="0.35" d="M378 -22L336 20" stroke="#220E39" stroke-width="3.5"/>
<path opacity="0.35" d="M420 -22L378 20" stroke="#220E39" stroke-width="3.5"/>
<path opacity="0.35" d="M420 -22L462 20" stroke="#220E39" stroke-width="3.5"/>
<path opacity="0.35" d="M504 -22L462 20" stroke="#220E39" stroke-width="3.5"/>
<path opacity="0.35" d="M546 -22L504 20" stroke="#220E39" stroke-width="3.5"/>
<path opacity="0.35" d="M588 -22L546 20" stroke="#220E39" stroke-width="3.5"/>
<path opacity="0.35" d="M630 -22L588 20" stroke="#220E39" stroke-width="3.5"/>
<path opacity="0.35" d="M630 -22L672 20" stroke="#220E39" stroke-width="3.5"/>
<path opacity="0.35" d="M672 -22L714 20" stroke="#220E39" stroke-width="3.5"/>
<path opacity="0.35" d="M756 -22L714 20" stroke="#220E39" stroke-width="3.5"/>
<path opacity="0.35" d="M756 -22L798 20" stroke="#220E39" stroke-width="3.5"/>
<path opacity="0.35" d="M840 -22L798 20" stroke="#220E39" stroke-width="3.5"/>
<path opacity="0.35" d="M840 -22L882 20" stroke="#220E39" stroke-width="3.5"/>
<path opacity="0.35" d="M882 -22L924 20" stroke="#220E39" stroke-width="3.5"/>
<path opacity="0.35" d="M966 -22L924 20" stroke="#220E39" stroke-width="3.5"/>
<path opacity="0.35" d="M1008 -22L966 20" stroke="#220E39" stroke-width="3.5"/>
<path opacity="0.35" d="M1050 -22L1008 20" stroke="#220E39" stroke-width="3.5"/>
<path opacity="0.35" d="M1050 -22L1092 20" stroke="#220E39" stroke-width="3.5"/>
<path opacity="0.35" d="M1092 -22L1134 20" stroke="#220E39" stroke-width="3.5"/>
<path opacity="0.35" d="M1176 -22L1134 20" stroke="#220E39" stroke-width="3.5"/>
<path opacity="0.35" d="M1218 -22L1176 20" stroke="#220E39" stroke-width="3.5"/>
<path opacity="0.35" d="M1260 -22L1218 20" stroke="#220E39" stroke-width="3.5"/>
<path opacity="0.35" d="M1260 -22L1302 20" stroke="#220E39" stroke-width="3.5"/>
<path opacity="0.35" d="M1302 -22L1344 20" stroke="#220E39" stroke-width="3.5"/>
<path opacity="0.35" d="M1344 -22L1386 20" stroke="#220E39" stroke-width="3.5"/>
<path opacity="0.35" d="M1428 -22L1386 20" stroke="#220E39" stroke-width="3.5"/>
<path opacity="0.3" d="M42 20L0 62" stroke="#220E39" stroke-width="3.5"/>
<path opacity="0.3" d="M84 20L42 62" stroke="#220E39" stroke-width="3.5"/>
<path opacity="0.3" d="M84 20L126 62" stroke="#220E39" stroke-width="3.5"/>
<path opacity="0.3" d="M126 20L168 62" stroke="#220E39" stroke-width="3.5"/>
<path opacity="0.3" d="M168 20L210 62" stroke="#220E39" stroke-width="3.5"/>
<path opacity="0.3" d="M252 20L210 62" stroke="#220E39" stroke-width="3.5"/>
<path opacity="0.3" d="M294 20L252 62" stroke="#220E39" stroke-width="3.5"/>
<path opacity="0.3" d="M336 20L294 62" stroke="#220E39" stroke-width="3.5"/>
<path opacity="0.3" d="M378 20L336 62" stroke="#220E39" stroke-width="3.5"/>
<path opacity="0.3" d="M378 20L420 62" stroke="#220E39" stroke-width="3.5"/>
<path opacity="0.3" d="M420 20L462 62" stroke="#220E39" stroke-width="3.5"/>
<path opacity="0.3" d="M462 20L504 62" stroke="#220E39" stroke-width="3.5"/>
<path opacity="0.3" d="M546 20L504 62" stroke="#220E39" stroke-width="3.5"/>
<path opacity="0.3" d="M588 20L546 62" stroke="#220E39" stroke-width="3.5"/>
<path opacity="0.3" d="M630 20L588 62" stroke="#220E39" stroke-width="3.5"/>
<path opacity="0.3" d="M672 20L630 62" stroke="#220E39" stroke-width="3.5"/>
<path opacity="0.3" d="M714 20L672 62" stroke="#220E39" stroke-width="3.5"/>
<path opacity="0.3" d="M714 20L756 62" stroke="#220E39" stroke-width="3.5"/>
<path opacity="0.3" d="M756 20L798 62" stroke="#220E39" stroke-width="3.5"/>
<path opacity="0.3" d="M798 20L840 62" stroke="#220E39" stroke-width="3.5"/>
<path opacity="0.3" d="M882 20L840 62" stroke="#220E39" stroke-width="3.5"/>
<path opacity="0.3" d="M924 20L882 62" stroke="#220E39" stroke-width="3.5"/>
<path opacity="0.3" d="M966 20L924 62" stroke="#220E39" stroke-width="3.5"/>
<path opacity="0.3" d="M1008 20L966 62" stroke="#220E39" stroke-width="3.5"/>
<path opacity="0.3" d="M1008 20L1050 62" stroke="#220E39" stroke-width="3.5"/>
<path opacity="0.3" d="M1092 20L1050 62" stroke="#220E39" stroke-width="3.5"/>
<path opacity="0.3" d="M1134 20L1092 62" stroke="#220E39" stroke-width="3.5"/>
<path opacity="0.3" d="M1134 20L1176 62" stroke="#220E39" stroke-width="3.5"/>
<path opacity="0.3" d="M1218 20L1176 62" stroke="#220E39" stroke-width="3.5"/>
<path opacity="0.3" d="M1260 20L1218 62" stroke="#220E39" stroke-width="3.5"/>
<path opacity="0.3" d="M1260 20L1302 62" stroke="#220E39" stroke-width="3.5"/>
<path opacity="0.3" d="M1344 20L1302 62" stroke="#220E39" stroke-width="3.5"/>
<path opacity="0.3" d="M1344 20L1386 62" stroke="#220E39" stroke-width="3.5"/>
<path opacity="0.3" d="M1428 20L1386 62" stroke="#220E39" stroke-width="3.5"/>
<path opacity="0.25" d="M0 62L42 104" stroke="#220E39" stroke-width="3.5"/>
<path opacity="0.25" d="M42 62L84 104" stroke="#220E39" stroke-width="3.5"/>
<path opacity="0.25" d="M84 62L126 104" stroke="#220E39" stroke-width="3.5"/>
<path opacity="0.25" d="M126 62L168 104" stroke="#220E39" stroke-width="3.5"/>
<path opacity="0.25" d="M210 62L168 104" stroke="#220E39" stroke-width="3.5"/>
<path opacity="0.25" d="M210 62L252 104" stroke="#220E39" stroke-width="3.5"/>
<path opacity="0.25" d="M252 62L294 104" stroke="#220E39" stroke-width="3.5"/>
<path opacity="0.25" d="M336 62L294 104" stroke="#220E39" stroke-width="3.5"/>
<path opacity="0.25" d="M336 62L378 104" stroke="#220E39" stroke-width="3.5"/>
<path opacity="0.25" d="M420 62L378 104" stroke="#220E39" stroke-width="3.5"/>
<path opacity="0.25" d="M462 62L420 104" stroke="#220E39" stroke-width="3.5"/>
<path opacity="0.25" d="M462 62L504 104" stroke="#220E39" stroke-width="3.5"/>
<path opacity="0.25" d="M504 62L546 104" stroke="#220E39" stroke-width="3.5"/>
<path opacity="0.25" d="M546 62L588 104" stroke="#220E39" stroke-width="3.5"/>
<path opacity="0.25" d="M588 62L630 104" stroke="#220E39" stroke-width="3.5"/>
<path opacity="0.25" d="M630 62L672 104" stroke="#220E39" stroke-width="3.5"/>
<path opacity="0.25" d="M672 62L714 104" stroke="#220E39" stroke-width="3.5"/>
<path opacity="0.25" d="M714 62L756 104" stroke="#220E39" stroke-width="3.5"/>
<path opacity="0.25" d="M798 62L756 104" stroke="#220E39" stroke-width="3.5"/>
<path opacity="0.25" d="M840 62L798 104" stroke="#220E39" stroke-width="3.5"/>
<path opacity="0.25" d="M882 62L840 104" stroke="#220E39" stroke-width="3.5"/>
<path opacity="0.25" d="M882 62L924 104" stroke="#220E39" stroke-width="3.5"/>
<path opacity="0.25" d="M1008 62L966 104" stroke="#220E39" stroke-width="3.5"/>
<path opacity="0.25" d="M1050 62L1008 104" stroke="#220E39" stroke-width="3.5"/>
<path opacity="0.25" d="M1092 62L1050 104" stroke="#220E39" stroke-width="3.5"/>
<path opacity="0.25" d="M1092 62L1134 104" stroke="#220E39" stroke-width="3.5"/>
<path opacity="0.25" d="M1176 62L1134 104" stroke="#220E39" stroke-width="3.5"/>
<path opacity="0.25" d="M1176 62L1218 104" stroke="#220E39" stroke-width="3.5"/>
<path opacity="0.25" d="M1260 62L1218 104" stroke="#220E39" stroke-width="3.5"/>
<path opacity="0.25" d="M1260 62L1302 104" stroke="#220E39" stroke-width="3.5"/>
<path opacity="0.25" d="M1344 62L1302 104" stroke="#220E39" stroke-width="3.5"/>
<path opacity="0.25" d="M1344 62L1386 104" stroke="#220E39" stroke-width="3.5"/>
<path opacity="0.25" d="M1428 62L1386 104" stroke="#220E39" stroke-width="3.5"/>
<path opacity="0.2" d="M0 104L42 146" stroke="#220E39" stroke-width="3.5"/>
<path opacity="0.2" d="M42 104L84 146" stroke="#220E39" stroke-width="3.5"/>
<path opacity="0.2" d="M84 104L126 146" stroke="#220E39" stroke-width="3.5"/>
<path opacity="0.2" d="M126 104L168 146" stroke="#220E39" stroke-width="3.5"/>
<path opacity="0.2" d="M210 104L168 146" stroke="#220E39" stroke-width="3.5"/>
<path opacity="0.2" d="M252 104L210 146" stroke="#220E39" stroke-width="3.5"/>
<path opacity="0.2" d="M252 104L294 146" stroke="#220E39" stroke-width="3.5"/>
<path opacity="0.2" d="M336 104L294 146" stroke="#220E39" stroke-width="3.5"/>
<path opacity="0.2" d="M378 104L336 146" stroke="#220E39" stroke-width="3.5"/>
<path opacity="0.2" d="M378 104L420 146" stroke="#220E39" stroke-width="3.5"/>
<path opacity="0.2" d="M462 104L420 146" stroke="#220E39" stroke-width="3.5"/>
<path opacity="0.2" d="M462 104L504 146" stroke="#220E39" stroke-width="3.5"/>
<path opacity="0.2" d="M504 104L546 146" stroke="#220E39" stroke-width="3.5"/>
<path opacity="0.2" d="M588 104L546 146" stroke="#220E39" stroke-width="3.5"/>
<path opacity="0.2" d="M630 104L588 146" stroke="#220E39" stroke-width="3.5"/>
<path opacity="0.2" d="M630 104L672 146" stroke="#220E39" stroke-width="3.5"/>
<path opacity="0.2" d="M714 104L672 146" stroke="#220E39" stroke-width="3.5"/>
<path opacity="0.2" d="M756 104L714 146" stroke="#220E39" stroke-width="3.5"/>
<path opacity="0.2" d="M756 104L798 146" stroke="#220E39" stroke-width="3.5"/>
<path opacity="0.2" d="M840 104L798 146" stroke="#220E39" stroke-width="3.5"/>
<path opacity="0.2" d="M840 104L882 146" stroke="#220E39" stroke-width="3.5"/>
<path opacity="0.2" d="M924 104L882 146" stroke="#220E39" stroke-width="3.5"/>
<path opacity="0.2" d="M924 104L966 146" stroke="#220E39" stroke-width="3.5"/>
<path opacity="0.2" d="M966 104L1008 146" stroke="#220E39" stroke-width="3.5"/>
<path opacity="0.2" d="M1050 104L1008 146" stroke="#220E39" stroke-width="3.5"/>
<path opacity="0.2" d="M1050 104L1092 146" stroke="#220E39" stroke-width="3.5"/>
<path opacity="0.2" d="M1134 104L1092 146" stroke="#220E39" stroke-width="3.5"/>
<path opacity="0.2" d="M1176 104L1134 146" stroke="#220E39" stroke-width="3.5"/>
<path opacity="0.2" d="M1176 104L1218 146" stroke="#220E39" stroke-width="3.5"/>
<path opacity="0.2" d="M1260 104L1218 146" stroke="#220E39" stroke-width="3.5"/>
<path opacity="0.2" d="M1260 104L1302 146" stroke="#220E39" stroke-width="3.5"/>
<path opacity="0.2" d="M1344 104L1302 146" stroke="#220E39" stroke-width="3.5"/>
<path opacity="0.2" d="M1344 104L1386 146" stroke="#220E39" stroke-width="3.5"/>
<path opacity="0.2" d="M1386 104L1428 146" stroke="#220E39" stroke-width="3.5"/>
<path opacity="0.15" d="M0 146L42 188" stroke="#220E39" stroke-width="3.5"/>
<path opacity="0.15" d="M42 146L84 188" stroke="#220E39" stroke-width="3.5"/>
<path opacity="0.15" d="M84 146L126 188" stroke="#220E39" stroke-width="3.5"/>
<path opacity="0.15" d="M168 146L126 188" stroke="#220E39" stroke-width="3.5"/>
<path opacity="0.15" d="M168 146L210 188" stroke="#220E39" stroke-width="3.5"/>
<path opacity="0.15" d="M210 146L252 188" stroke="#220E39" stroke-width="3.5"/>
<path opacity="0.15" d="M294 146L252 188" stroke="#220E39" stroke-width="3.5"/>
<path opacity="0.15" d="M336 146L294 188" stroke="#220E39" stroke-width="3.5"/>
<path opacity="0.15" d="M378 146L336 188" stroke="#220E39" stroke-width="3.5"/>
<path opacity="0.15" d="M378 146L420 188" stroke="#220E39" stroke-width="3.5"/>
<path opacity="0.15" d="M462 146L420 188" stroke="#220E39" stroke-width="3.5"/>
<path opacity="0.15" d="M504 146L462 188" stroke="#220E39" stroke-width="3.5"/>
<path opacity="0.15" d="M504 146L546 188" stroke="#220E39" stroke-width="3.5"/>
<path opacity="0.15" d="M588 146L546 188" stroke="#220E39" stroke-width="3.5"/>
<path opacity="0.15" d="M588 146L630 188" stroke="#220E39" stroke-width="3.5"/>
<path opacity="0.15" d="M672 146L630 188" stroke="#220E39" stroke-width="3.5"/>
<path opacity="0.15" d="M672 146L714 188" stroke="#220E39" stroke-width="3.5"/>
<path opacity="0.15" d="M756 146L714 188" stroke="#220E39" stroke-width="3.5"/>
<path opacity="0.15" d="M756 146L798 188" stroke="#220E39" stroke-width="3.5"/>
<path opacity="0.15" d="M798 146L840 188" stroke="#220E39" stroke-width="3.5"/>
<path opacity="0.15" d="M882 146L840 188" stroke="#220E39" stroke-width="3.5"/>
<path opacity="0.15" d="M882 146L924 188" stroke="#220E39" stroke-width="3.5"/>
<path opacity="0.15" d="M924 146L966 188" stroke="#220E39" stroke-width="3.5"/>
<path opacity="0.15" d="M966 146L1008 188" stroke="#220E39" stroke-width="3.5"/>
<path opacity="0.15" d="M1008 146L1050 188" stroke="#220E39" stroke-width="3.5"/>
<path opacity="0.15" d="M1050 146L1092 188" stroke="#220E39" stroke-width="3.5"/>
<path opacity="0.15" d="M1092 146L1134 188" stroke="#220E39" stroke-width="3.5"/>
<path opacity="0.15" d="M1134 146L1176 188" stroke="#220E39" stroke-width="3.5"/>
<path opacity="0.15" d="M1176 146L1218 188" stroke="#220E39" stroke-width="3.5"/>
<path opacity="0.15" d="M1218 146L1260 188" stroke="#220E39" stroke-width="3.5"/>
<path opacity="0.15" d="M1260 146L1302 188" stroke="#220E39" stroke-width="3.5"/>
<path opacity="0.15" d="M1302 146L1344 188" stroke="#220E39" stroke-width="3.5"/>
<path opacity="0.15" d="M1344 146L1386 188" stroke="#220E39" stroke-width="3.5"/>
<path opacity="0.15" d="M1428 146L1386 188" stroke="#220E39" stroke-width="3.5"/>
<path opacity="0.1" d="M42 188L0 230" stroke="#220E39" stroke-width="3.5"/>
<path opacity="0.1" d="M42 188L84 230" stroke="#220E39" stroke-width="3.5"/>
<path opacity="0.1" d="M84 188L126 230" stroke="#220E39" stroke-width="3.5"/>
<path opacity="0.1" d="M126 188L168 230" stroke="#220E39" stroke-width="3.5"/>
<path opacity="0.1" d="M210 188L168 230" stroke="#220E39" stroke-width="3.5"/>
<path opacity="0.1" d="M210 188L252 230" stroke="#220E39" stroke-width="3.5"/>
<path opacity="0.1" d="M252 188L294 230" stroke="#220E39" stroke-width="3.5"/>
<path opacity="0.1" d="M294 188L336 230" stroke="#220E39" stroke-width="3.5"/>
<path opacity="0.1" d="M336 188L378 230" stroke="#220E39" stroke-width="3.5"/>
<path opacity="0.1" d="M420 188L378 230" stroke="#220E39" stroke-width="3.5"/>
<path opacity="0.1" d="M462 188L420 230" stroke="#220E39" stroke-width="3.5"/>
<path opacity="0.1" d="M462 188L504 230" stroke="#220E39" stroke-width="3.5"/>
<path opacity="0.1" d="M504 188L546 230" stroke="#220E39" stroke-width="3.5"/>
<path opacity="0.1" d="M588 188L546 230" stroke="#220E39" stroke-width="3.5"/>
<path opacity="0.1" d="M588 188L630 230" stroke="#220E39" stroke-width="3.5"/>
<path opacity="0.1" d="M630 188L672 230" stroke="#220E39" stroke-width="3.5"/>
<path opacity="0.1" d="M672 188L714 230" stroke="#220E39" stroke-width="3.5"/>
<path opacity="0.1" d="M756 188L714 230" stroke="#220E39" stroke-width="3.5"/>
<path opacity="0.1" d="M756 188L798 230" stroke="#220E39" stroke-width="3.5"/>
<path opacity="0.1" d="M840 188L798 230" stroke="#220E39" stroke-width="3.5"/>
<path opacity="0.1" d="M840 188L882 230" stroke="#220E39" stroke-width="3.5"/>
<path opacity="0.1" d="M924 188L882 230" stroke="#220E39" stroke-width="3.5"/>
<path opacity="0.1" d="M924 188L966 230" stroke="#220E39" stroke-width="3.5"/>
<path opacity="0.1" d="M1008 188L966 230" stroke="#220E39" stroke-width="3.5"/>
<path opacity="0.1" d="M1008 188L1050 230" stroke="#220E39" stroke-width="3.5"/>
<path opacity="0.1" d="M1050 188L1092 230" stroke="#220E39" stroke-width="3.5"/>
<path opacity="0.1" d="M1092 188L1134 230" stroke="#220E39" stroke-width="3.5"/>
<path opacity="0.1" d="M1176 188L1134 230" stroke="#220E39" stroke-width="3.5"/>
<path opacity="0.1" d="M1218 188L1176 230" stroke="#220E39" stroke-width="3.5"/>
<path opacity="0.1" d="M1260 188L1218 230" stroke="#220E39" stroke-width="3.5"/>
<path opacity="0.1" d="M1302 188L1260 230" stroke="#220E39" stroke-width="3.5"/>
<path opacity="0.1" d="M1344 188L1302 230" stroke="#220E39" stroke-width="3.5"/>
<path opacity="0.1" d="M1344 188L1386 230" stroke="#220E39" stroke-width="3.5"/>
<path opacity="0.1" d="M1386 188L1428 230" stroke="#220E39" stroke-width="3.5"/>
<path opacity="0.05" d="M0 230L42 272" stroke="#220E39" stroke-width="3.5"/>
<path opacity="0.05" d="M42 230L84 272" stroke="#220E39" stroke-width="3.5"/>
<path opacity="0.05" d="M126 230L84 272" stroke="#220E39" stroke-width="3.5"/>
<path opacity="0.05" d="M126 230L168 272" stroke="#220E39" stroke-width="3.5"/>
<path opacity="0.05" d="M210 230L168 272" stroke="#220E39" stroke-width="3.5"/>
<path opacity="0.05" d="M252 230L210 272" stroke="#220E39" stroke-width="3.5"/>
<path opacity="0.05" d="M252 230L294 272" stroke="#220E39" stroke-width="3.5"/>
<path opacity="0.05" d="M336 230L294 272" stroke="#220E39" stroke-width="3.5"/>
<path opacity="0.05" d="M336 230L378 272" stroke="#220E39" stroke-width="3.5"/>
<path opacity="0.05" d="M420 230L378 272" stroke="#220E39" stroke-width="3.5"/>
<path opacity="0.05" d="M420 230L462 272" stroke="#220E39" stroke-width="3.5"/>
<path opacity="0.05" d="M504 230L462 272" stroke="#220E39" stroke-width="3.5"/>
<path opacity="0.05" d="M504 230L546 272" stroke="#220E39" stroke-width="3.5"/>
<path opacity="0.05" d="M588 230L546 272" stroke="#220E39" stroke-width="3.5"/>
<path opacity="0.05" d="M588 230L630 272" stroke="#220E39" stroke-width="3.5"/>
<path opacity="0.05" d="M672 230L630 272" stroke="#220E39" stroke-width="3.5"/>
<path opacity="0.05" d="M714 230L672 272" stroke="#220E39" stroke-width="3.5"/>
<path opacity="0.05" d="M756 230L714 272" stroke="#220E39" stroke-width="3.5"/>
<path opacity="0.05" d="M798 230L756 272" stroke="#220E39" stroke-width="3.5"/>
<path opacity="0.05" d="M840 230L798 272" stroke="#220E39" stroke-width="3.5"/>
<path opacity="0.05" d="M840 230L882 272" stroke="#220E39" stroke-width="3.5"/>
<path opacity="0.05" d="M924 230L882 272" stroke="#220E39" stroke-width="3.5"/>
<path opacity="0.05" d="M966 230L924 272" stroke="#220E39" stroke-width="3.5"/>
<path opacity="0.05" d="M1008 230L966 272" stroke="#220E39" stroke-width="3.5"/>
<path opacity="0.05" d="M1050 230L1008 272" stroke="#220E39" stroke-width="3.5"/>
<path opacity="0.05" d="M1050 230L1092 272" stroke="#220E39" stroke-width="3.5"/>
<path opacity="0.05" d="M1092 230L1134 272" stroke="#220E39" stroke-width="3.5"/>
<path opacity="0.05" d="M1176 230L1134 272" stroke="#220E39" stroke-width="3.5"/>
<path opacity="0.05" d="M1218 230L1176 272" stroke="#220E39" stroke-width="3.5"/>
<path opacity="0.05" d="M1218 230L1260 272" stroke="#220E39" stroke-width="3.5"/>
<path opacity="0.05" d="M1260 230L1302 272" stroke="#220E39" stroke-width="3.5"/>
<path opacity="0.05" d="M1302 230L1344 272" stroke="#220E39" stroke-width="3.5"/>
<path opacity="0.05" d="M1386 230L1344 272" stroke="#220E39" stroke-width="3.5"/>
<path opacity="0.05" d="M1386 230L1428 272" stroke="#220E39" stroke-width="3.5"/>
</svg>
