<svg width="878" height="878" viewBox="0 0 878 878" fill="none" xmlns="http://www.w3.org/2000/svg">
<path d="M878 671.494H0V671.933H878V671.494Z" fill="#EBEBEB"/>
<path d="M790.024 699.748H751.954V700.187H790.024V699.748Z" fill="#EBEBEB"/>
<path d="M605.241 690.652H545.344V691.091H605.241V690.652Z" fill="#EBEBEB"/>
<path d="M774.607 683.453H696.412V683.892H774.607V683.453Z" fill="#EBEBEB"/>
<path d="M303.824 692.303H284.262V692.742H303.824V692.303Z" fill="#EBEBEB"/>
<path d="M268.615 692.303H201.202V692.742H268.615V692.303Z" fill="#EBEBEB"/>
<path d="M165.082 684.893H116.44V685.332H165.082V684.893Z" fill="#EBEBEB"/>
<path d="M416.172 593.177H77.1059C74.4497 593.172 71.9038 592.114 70.0272 590.234C68.1507 588.354 67.0967 585.806 67.0967 583.15V106.519C67.1198 103.878 68.184 101.353 70.0581 99.4918C71.9322 97.6309 74.4648 96.5845 77.1059 96.58H416.172C418.831 96.58 421.382 97.6364 423.262 99.5168C425.142 101.397 426.199 103.947 426.199 106.607V583.15C426.199 585.809 425.142 588.36 423.262 590.24C421.382 592.12 418.831 593.177 416.172 593.177ZM77.1059 96.9312C74.5661 96.9359 72.1319 97.948 70.3377 99.7456C68.5434 101.543 67.5357 103.979 67.5357 106.519V583.15C67.5357 585.69 68.5434 588.126 70.3377 589.923C72.1319 591.721 74.5661 592.733 77.1059 592.738H416.172C418.713 592.733 421.149 591.722 422.946 589.924C424.743 588.127 425.755 585.691 425.76 583.15V106.519C425.755 103.978 424.743 101.542 422.946 99.7445C421.149 97.9475 418.713 96.9358 416.172 96.9312H77.1059Z" fill="#EBEBEB"/>
<path d="M796.013 593.177H456.929C454.271 593.172 451.724 592.114 449.844 590.235C447.965 588.356 446.907 585.808 446.902 583.15V106.519C446.93 103.876 447.998 101.351 449.875 99.4907C451.752 97.6303 454.286 96.5845 456.929 96.58H796.013C798.651 96.5891 801.179 97.6376 803.049 99.498C804.919 101.358 805.981 103.881 806.004 106.519V583.15C806.004 585.803 804.953 588.348 803.08 590.228C801.207 592.107 798.666 593.167 796.013 593.177ZM456.929 96.9312C454.388 96.9358 451.952 97.9475 450.155 99.7445C448.358 101.542 447.346 103.978 447.341 106.519V583.15C447.346 585.691 448.358 588.127 450.155 589.924C451.952 591.722 454.388 592.733 456.929 592.738H796.013C798.554 592.733 800.99 591.722 802.787 589.924C804.584 588.127 805.596 585.691 805.6 583.15V106.519C805.596 103.978 804.584 101.542 802.787 99.7445C800.99 97.9475 798.554 96.9358 796.013 96.9312H456.929Z" fill="#EBEBEB"/>
<path d="M379.419 352.745L380.209 329.671L366.056 325.036C365.447 317.216 364.179 309.462 362.263 301.856L374.274 293.076L366.126 271.407L351.27 272.601C347.748 265.62 343.636 258.952 338.978 252.671L346.67 239.834L330.866 222.959L317.59 229.755C311.621 224.652 305.243 220.048 298.52 215.988L300.662 201.238L279.59 191.685L269.932 202.994C262.482 200.61 254.846 198.848 247.104 197.726L243.592 183.274L220.448 182.484L215.883 196.654C208.071 197.269 200.324 198.531 192.721 200.43L183.801 188.489L162.132 196.584L163.326 211.44C156.348 215.016 149.681 219.169 143.395 223.855L130.471 215.988L113.526 231.792L120.321 245.138C115.217 251.077 110.635 257.446 106.624 264.173L91.8916 261.96L82.2687 283.032L93.6476 292.673C91.2473 300.119 89.4849 307.756 88.3796 315.501L73.7521 319.171L72.9619 342.244L87.1855 346.88C87.7739 354.695 89.037 362.445 90.9609 370.042L78.9499 378.822L87.1153 400.508L101.971 399.314C105.484 406.301 109.597 412.969 114.263 419.245L106.554 432.081L122.358 448.957L135.634 442.161C141.587 447.262 147.954 451.861 154.669 455.91L152.456 470.643L173.528 480.213L183.239 468.905C190.689 471.31 198.324 473.101 206.067 474.26L209.579 488.712L232.723 489.503L237.288 475.332C245.105 474.71 252.858 473.448 260.468 471.556L269.248 483.497L290.917 475.402L289.793 460.546C296.758 456.948 303.423 452.796 309.723 448.131L322.489 455.822L339.435 440.018L332.639 426.673C337.745 420.734 342.327 414.366 346.336 407.638L361.069 409.85L370.692 388.778L359.313 379.12C361.754 371.68 363.546 364.042 364.669 356.292L379.419 352.745ZM223.504 427.498C205.396 426.886 187.876 420.918 173.161 410.348C158.445 399.777 147.195 385.08 140.834 368.115C134.473 351.151 133.286 332.68 137.424 315.041C141.561 297.401 150.838 281.385 164.079 269.018C177.32 256.651 193.932 248.49 211.813 245.565C229.694 242.641 248.04 245.086 264.531 252.59C281.023 260.094 294.918 272.32 304.459 287.723C314.001 303.125 318.76 321.011 318.135 339.119C317.301 363.386 306.864 386.329 289.118 402.902C271.373 419.475 247.771 428.323 223.504 427.498Z" fill="#EBEBEB"/>
<path d="M774.396 276.429L780.208 271.003L777.908 266.42C779.662 264.367 781.242 262.17 782.631 259.853L787.724 260.608L791.007 253.338L787.109 250.019C787.949 247.449 788.565 244.811 788.953 242.135L793.957 240.888L794.203 232.916L789.322 231.335C789.107 228.635 788.673 225.957 788.022 223.328L792.149 220.255L789.339 212.792L784.229 213.196C782.997 210.789 781.57 208.487 779.962 206.312L782.614 201.922L777.152 196.092L772.587 198.428C770.53 196.677 768.334 195.097 766.019 193.704L766.757 188.612L759.505 185.293L756.168 189.209C753.593 188.407 750.956 187.82 748.284 187.453L747.037 182.466L739.065 182.167L737.467 187.084C734.777 187.29 732.11 187.725 729.495 188.384L726.439 184.257L718.959 187.049L719.38 192.177C716.966 193.397 714.663 194.825 712.497 196.444L708.071 193.792L702.241 199.218L704.507 203.696C702.739 205.744 701.153 207.941 699.766 210.263L694.691 209.508L691.389 216.778L695.305 220.115C694.493 222.681 693.906 225.313 693.549 227.981L688.527 229.228L688.281 237.2L693.181 238.781C693.38 241.481 693.809 244.16 694.462 246.788L690.318 249.844L693.128 257.307L698.255 256.92C699.488 259.327 700.915 261.629 702.522 263.804L699.871 268.194L705.332 274.024L709.898 271.688C711.95 273.445 714.147 275.025 716.465 276.412L715.71 281.487L722.98 284.806L726.316 280.907C728.894 281.701 731.53 282.288 734.201 282.663L735.447 287.65L743.42 287.949L745.018 283.032C747.707 282.828 750.374 282.393 752.99 281.733L756.045 285.859L763.526 283.067L763.122 277.94C765.529 276.718 767.826 275.29 769.988 273.673L774.396 276.429ZM732.919 242.837C731.385 241.194 730.374 239.133 730.012 236.915C729.65 234.697 729.954 232.421 730.886 230.376C731.818 228.33 733.335 226.607 735.246 225.425C737.157 224.242 739.376 223.653 741.622 223.731C743.869 223.81 746.041 224.553 747.865 225.866C749.688 227.18 751.082 229.005 751.868 231.11C752.654 233.216 752.799 235.507 752.283 237.695C751.767 239.882 750.613 241.867 748.969 243.399C747.877 244.428 746.592 245.231 745.189 245.76C743.785 246.289 742.291 246.535 740.791 246.483C739.292 246.43 737.818 246.081 736.455 245.455C735.091 244.83 733.866 243.94 732.849 242.837H732.919Z" fill="#EBEBEB"/>
<path d="M561.92 513.349L543.763 500.794C541.983 494.256 539.535 487.918 536.458 481.882L541.111 463.619L514.771 435.418L496.228 438.807C490.41 435.322 484.249 432.444 477.843 430.22L466.569 411.238L427.937 409.921L415.399 428.078C408.869 429.856 402.538 432.298 396.505 435.365L378.242 430.712L350.041 457.052L353.43 475.56C349.948 481.389 347.076 487.562 344.861 493.98L325.879 505.254L324.562 543.886L342.736 556.424C344.486 562.997 346.929 569.366 350.024 575.424L345.317 593.528L371.657 621.729L390.078 618.358C395.939 621.847 402.14 624.73 408.586 626.962L419.842 645.909L458.474 647.244L470.994 629.087C477.583 627.308 483.973 624.86 490.064 621.782L508.222 626.418L536.44 600.078L533.051 581.57C536.544 575.74 539.416 569.56 541.621 563.132L560.603 551.858L561.92 513.349ZM441.722 571.982C433.146 571.689 424.849 568.859 417.881 563.851C410.912 558.843 405.586 551.881 402.574 543.846C399.562 535.81 399 527.062 400.96 518.708C402.919 510.353 407.312 502.768 413.583 496.909C419.853 491.051 427.72 487.184 436.188 485.797C444.657 484.409 453.346 485.564 461.159 489.115C468.971 492.665 475.555 498.453 480.078 505.745C484.601 513.038 486.86 521.507 486.57 530.084C486.167 541.586 481.216 552.458 472.804 560.314C464.393 568.169 453.207 572.366 441.704 571.982H441.722Z" fill="#EBEBEB"/>
<path d="M603.274 403.88H603.151L572.737 402.844C572.121 402.833 571.517 402.666 570.983 402.359C570.449 402.052 570.001 401.615 569.681 401.088L561.481 387.303C557.061 385.687 552.785 383.701 548.697 381.368L535.58 383.633C534.969 383.745 534.339 383.701 533.75 383.504C533.16 383.308 532.63 382.966 532.208 382.509L511.435 360.279C510.999 359.818 510.689 359.253 510.535 358.638C510.381 358.022 510.389 357.378 510.557 356.767L513.876 343.755C511.819 339.538 510.139 335.149 508.854 330.637L495.631 321.506C495.118 321.154 494.703 320.678 494.423 320.122C494.144 319.567 494.01 318.949 494.033 318.328L495.069 287.914C495.09 287.3 495.26 286.7 495.567 286.167C495.873 285.635 496.305 285.185 496.825 284.858L510.645 276.658C512.238 272.248 514.219 267.988 516.562 263.927L514.139 250.704C514.026 250.09 514.069 249.458 514.266 248.865C514.462 248.273 514.805 247.74 515.263 247.315L537.494 226.559C537.954 226.122 538.518 225.809 539.133 225.653C539.748 225.496 540.393 225.5 541.006 225.664L554.071 229C558.276 226.943 562.654 225.256 567.153 223.96L576.284 210.738C576.623 210.212 577.097 209.787 577.656 209.506C578.215 209.225 578.838 209.099 579.462 209.14L609.859 210.193C610.477 210.206 611.082 210.374 611.618 210.681C612.155 210.987 612.607 211.423 612.932 211.949L621.132 225.751C625.521 227.362 629.762 229.348 633.81 231.687L647.086 229.246C647.697 229.132 648.327 229.176 648.917 229.372C649.506 229.569 650.037 229.912 650.457 230.37L671.231 252.601C671.664 253.063 671.972 253.628 672.125 254.243C672.279 254.857 672.273 255.501 672.109 256.113L668.772 269.16C670.83 273.368 672.522 277.744 673.83 282.242L687.035 291.373C687.548 291.725 687.963 292.201 688.242 292.757C688.522 293.313 688.656 293.93 688.633 294.551L687.597 324.948C687.576 325.564 687.405 326.166 687.099 326.702C686.793 327.237 686.361 327.69 685.841 328.021L672.021 336.221C670.417 340.621 668.437 344.874 666.103 348.935L668.527 362.175C668.64 362.786 668.597 363.416 668.4 364.006C668.203 364.596 667.86 365.126 667.403 365.547L645.031 386.32C644.571 386.756 644.006 387.066 643.39 387.22C642.775 387.373 642.131 387.366 641.519 387.198L628.525 383.879C624.291 385.927 619.891 387.613 615.372 388.919L606.329 402.124C606.003 402.645 605.554 403.078 605.021 403.384C604.488 403.691 603.888 403.861 603.274 403.88ZM575.02 395.504L601.36 396.399L610.14 383.774C610.626 383.037 611.372 382.51 612.229 382.299C617.171 380.947 621.965 379.106 626.541 376.802C627.338 376.418 628.245 376.325 629.104 376.539L641.396 379.682L660.712 361.683L658.5 348.987C658.329 348.1 658.492 347.181 658.956 346.406C661.564 342.058 663.713 337.45 665.366 332.657C665.645 331.788 666.232 331.051 667.016 330.585L680.239 322.753L681.135 296.413L668.491 287.633C667.826 287.178 667.326 286.518 667.069 285.754C667.069 285.666 667.069 285.561 667.069 285.455C665.716 280.602 663.881 275.895 661.59 271.407C661.184 270.604 661.084 269.68 661.309 268.808L664.47 256.376L646.471 237.06L633.846 239.378C632.964 239.538 632.054 239.376 631.282 238.921C626.925 236.308 622.312 234.149 617.515 232.477C617.239 232.389 616.975 232.271 616.725 232.126C616.219 231.81 615.797 231.376 615.495 230.861L607.576 217.604L581.236 216.69L572.456 229.351C571.932 230.093 571.16 230.623 570.278 230.844C565.388 232.18 560.646 234.01 556.125 236.305C555.328 236.712 554.41 236.812 553.544 236.586L541.111 233.425L521.795 251.424L524.113 264.015C524.251 264.809 524.134 265.626 523.78 266.35L523.604 266.649C520.992 271.013 518.844 275.639 517.195 280.451C516.904 281.276 516.332 281.972 515.579 282.417L502.356 290.267L501.461 316.607L514.122 325.387C514.843 325.881 515.366 326.615 515.597 327.459C516.913 332.39 518.743 337.169 521.058 341.718C521.183 341.977 521.283 342.247 521.356 342.525C521.489 343.103 521.489 343.703 521.356 344.281L518.195 356.573L536.194 375.889L548.732 373.589C549.608 373.429 550.513 373.591 551.278 374.046C555.668 376.654 560.31 378.813 565.133 380.49C566.003 380.748 566.74 381.334 567.188 382.123L575.02 395.504ZM591.298 362.193C590.648 362.193 589.998 362.193 589.349 362.193C574.751 361.936 560.846 355.923 550.66 345.464C540.473 335.005 534.83 320.946 534.959 306.347C535.087 291.748 540.977 277.79 551.346 267.512C561.715 257.234 575.723 251.468 590.323 251.468C604.923 251.468 618.932 257.234 629.301 267.512C639.67 277.79 645.559 291.748 645.688 306.347C645.816 320.946 640.173 335.005 629.987 345.464C619.8 355.923 605.895 361.936 591.298 362.193ZM591.298 258.431C578.541 258.65 566.388 263.901 557.484 273.038C548.58 282.175 543.646 294.46 543.756 307.218C543.866 319.976 549.011 332.174 558.071 341.157C567.132 350.139 579.373 355.179 592.132 355.179C604.89 355.179 617.132 350.139 626.192 341.157C635.253 332.174 640.398 319.976 640.508 307.218C640.618 294.46 635.684 282.175 626.78 273.038C617.875 263.901 605.722 258.65 592.966 258.431H591.298Z" fill="#EBEBEB"/>
<path d="M673.32 184.942L660.712 181.57L657.341 168.962L662.275 164.046L667.473 174.81L678.255 180.025L673.32 184.942Z" fill="#E0E0E0"/>
<path d="M674.093 176.513C674.638 175.968 675.071 175.32 675.366 174.608C675.661 173.895 675.813 173.131 675.813 172.36C675.813 171.589 675.661 170.825 675.366 170.113C675.071 169.4 674.638 168.753 674.093 168.207C673.548 167.662 672.9 167.229 672.188 166.934C671.475 166.639 670.711 166.487 669.94 166.487C669.169 166.487 668.405 166.639 667.693 166.934C666.98 167.229 666.332 167.662 665.787 168.207L672.056 158.795L680.45 163.045L682.293 171.825L674.093 176.513Z" fill="#E0E0E0"/>
<path d="M661.274 165.064L670.511 155.827L683.084 159.181L686.473 171.772L677.237 181.008L664.646 177.619L661.274 165.064ZM678.044 172.615C678.866 171.792 679.426 170.744 679.653 169.603C679.879 168.462 679.762 167.279 679.317 166.205C678.871 165.13 678.117 164.212 677.15 163.566C676.183 162.92 675.046 162.575 673.883 162.575C672.719 162.575 671.582 162.92 670.615 163.566C669.648 164.212 668.894 165.13 668.448 166.205C668.003 167.279 667.886 168.462 668.113 169.603C668.339 170.744 668.899 171.792 669.721 172.615C670.833 173.706 672.331 174.314 673.89 174.308C675.448 174.301 676.941 173.68 678.044 172.58V172.615Z" fill="#F0F0F0"/>
<path d="M158.426 521.023L165.187 519.197L166.995 512.436L164.361 509.802L161.569 515.579L155.774 518.371L158.426 521.023Z" fill="#E0E0E0"/>
<path d="M158.04 516.492C157.512 515.889 157.233 515.107 157.259 514.305C157.286 513.504 157.616 512.742 158.183 512.175C158.75 511.608 159.512 511.278 160.314 511.251C161.115 511.225 161.897 511.504 162.501 512.032L159.147 506.992L154.528 509.24L153.545 513.981L158.04 516.492Z" fill="#E0E0E0"/>
<path d="M164.888 510.329L159.937 505.377L153.176 507.133L151.42 513.893L156.284 518.898L163.045 517.142L164.888 510.329ZM155.898 514.385C155.572 514.1 155.309 513.751 155.123 513.36C154.938 512.969 154.835 512.544 154.821 512.112C154.806 511.679 154.881 511.248 155.04 510.846C155.199 510.443 155.439 510.078 155.745 509.772C156.051 509.466 156.416 509.226 156.819 509.067C157.221 508.908 157.652 508.834 158.085 508.848C158.517 508.862 158.942 508.965 159.333 509.15C159.724 509.336 160.073 509.599 160.358 509.925C160.886 510.528 161.165 511.31 161.139 512.112C161.112 512.913 160.782 513.675 160.215 514.242C159.648 514.809 158.886 515.139 158.085 515.166C157.283 515.193 156.501 514.913 155.898 514.385Z" fill="#F0F0F0"/>
<path d="M134.089 150.419L139.708 156.038C140.411 156.729 141.356 157.116 142.342 157.116C143.327 157.116 144.273 156.729 144.976 156.038C145.662 155.333 146.046 154.388 146.046 153.404C146.046 152.42 145.662 151.475 144.976 150.77L139.374 145.169C138.669 144.482 137.724 144.098 136.74 144.098C135.756 144.098 134.811 144.482 134.106 145.169C133.418 145.868 133.032 146.809 133.028 147.79C133.025 148.771 133.406 149.715 134.089 150.419Z" fill="#F0F0F0"/>
<path d="M130.137 136.459C131.604 136.051 133.157 136.08 134.607 136.543C136.057 137.006 137.34 137.882 138.299 139.064C139.258 140.246 139.851 141.682 140.005 143.196C140.159 144.71 139.867 146.236 139.166 147.587C138.465 148.938 137.385 150.055 136.058 150.8C134.731 151.545 133.215 151.887 131.697 151.783C130.179 151.679 128.724 151.134 127.511 150.215C126.298 149.296 125.38 148.042 124.869 146.608C124.545 145.596 124.424 144.53 124.514 143.471C124.604 142.412 124.902 141.381 125.392 140.438C125.881 139.494 126.553 138.657 127.367 137.974C128.181 137.291 129.123 136.776 130.137 136.459Z" fill="#E0E0E0"/>
<path d="M124.026 145.668L124.839 147.932L141.53 141.936L140.717 139.672L124.026 145.668Z" fill="#F0F0F0"/>
<path d="M439 750.795C627.037 750.795 779.471 741.896 779.471 730.917C779.471 719.939 627.037 711.04 439 711.04C250.963 711.04 98.5293 719.939 98.5293 730.917C98.5293 741.896 250.963 750.795 439 750.795Z" fill="#F5F5F5"/>
<path d="M152.28 211.861C150.524 204.117 151.297 197.62 154.633 192.317C157.97 187.014 163.413 183.537 171.157 181.781C178.901 180.025 185.592 180.728 190.825 183.994C196.057 187.26 199.604 192.774 201.361 200.324C202.6 204.985 202.703 209.875 201.659 214.583C200.638 218.493 198.481 222.013 195.46 224.698C191.872 227.718 187.566 229.763 182.958 230.633C178.44 231.832 173.71 231.995 169.12 231.107C165.131 230.138 161.523 227.997 158.76 224.961C155.459 221.258 153.22 216.732 152.28 211.861ZM166.925 208.595C168.014 213.372 169.682 216.603 171.93 218.288C173.09 219.062 174.395 219.593 175.766 219.849C177.136 220.106 178.545 220.083 179.906 219.781C181.268 219.479 182.554 218.905 183.688 218.093C184.822 217.281 185.78 216.249 186.505 215.057C187.769 212.616 187.787 208.736 186.593 203.45C185.574 198.99 183.929 195.934 181.658 194.284C180.515 193.463 179.202 192.909 177.816 192.663C176.43 192.417 175.007 192.485 173.651 192.861C172.294 193.116 171.012 193.674 169.901 194.496C168.791 195.317 167.882 196.379 167.241 197.603C165.942 200.184 165.819 203.696 166.925 208.595Z" fill="#263238"/>
<path d="M208.244 206.067C207.62 203.674 207.509 201.176 207.917 198.737C208.326 196.298 209.245 193.972 210.614 191.913C212.149 189.726 214.102 187.863 216.359 186.431C218.616 185 221.133 184.028 223.767 183.572C230.638 182.015 236.281 182.829 240.694 186.013C244.409 188.892 246.934 193.037 247.789 197.658C248.644 202.28 247.769 207.054 245.33 211.071C242.591 215.25 238.131 218.037 231.95 219.43C227.187 220.761 222.107 220.35 217.621 218.271C215.222 217.098 213.127 215.386 211.5 213.269C209.873 211.152 208.758 208.687 208.244 206.067ZM221.431 203.029C221.786 205.483 222.985 207.736 224.82 209.403C225.548 209.954 226.387 210.339 227.278 210.533C228.17 210.727 229.093 210.725 229.984 210.526C230.874 210.327 231.711 209.937 232.436 209.382C233.16 208.827 233.755 208.121 234.18 207.313C235.099 204.955 235.186 202.353 234.425 199.938C234.056 197.542 232.871 195.346 231.072 193.722C230.373 193.156 229.553 192.758 228.676 192.56C227.799 192.362 226.888 192.369 226.014 192.581C225.103 192.769 224.247 193.163 223.511 193.732C222.774 194.301 222.177 195.03 221.765 195.864C220.819 198.14 220.701 200.675 221.431 203.029Z" fill="#263238"/>
<path d="M260.907 225.769L250.143 178.357L262.435 175.547L263.594 180.622C264.461 178.598 265.72 176.766 267.299 175.231C269.031 173.761 271.1 172.741 273.322 172.264C275.375 171.705 277.535 171.673 279.604 172.17C281.672 172.667 283.582 173.678 285.157 175.108C288.628 178.353 290.982 182.613 291.883 187.277C293.182 192.984 292.796 197.655 290.759 201.325C289.79 203.08 288.451 204.603 286.835 205.789C285.219 206.974 283.364 207.794 281.399 208.191C279.506 208.64 277.545 208.718 275.622 208.42C273.778 208.097 272.021 207.397 270.46 206.365L274.182 222.749L260.907 225.769ZM267.246 192.651C267.569 194.844 268.665 196.849 270.337 198.305C271.007 198.818 271.785 199.173 272.612 199.344C273.439 199.514 274.294 199.495 275.113 199.288C275.873 199.136 276.587 198.807 277.197 198.328C277.807 197.849 278.296 197.234 278.625 196.532C279.372 194.334 279.372 191.951 278.625 189.753C278.304 187.549 277.245 185.519 275.622 183.994C275.02 183.494 274.311 183.138 273.55 182.956C272.789 182.773 271.996 182.768 271.232 182.94C270.425 183.114 269.668 183.468 269.018 183.976C268.367 184.484 267.839 185.132 267.474 185.873C266.615 188.037 266.534 190.433 267.246 192.651Z" fill="#263238"/>
<path d="M297.519 193.687L310.303 189.49C310.983 190.726 312.042 191.711 313.323 192.3C314.703 192.699 316.162 192.731 317.558 192.392C318.953 192.053 320.236 191.355 321.278 190.368C321.57 190.058 321.781 189.682 321.894 189.272C322.007 188.862 322.019 188.43 321.928 188.015C321.822 187.54 321.577 187.107 321.223 186.772C320.87 186.437 320.424 186.215 319.944 186.136C317.959 185.918 315.957 185.918 313.973 186.136C310.643 186.419 307.294 186.419 303.964 186.136C302.014 185.853 300.187 185.018 298.696 183.73C297.106 182.354 296.008 180.497 295.567 178.441C295.127 176.384 295.368 174.241 296.255 172.334C297.279 170.293 298.871 168.592 300.838 167.435C303.639 165.843 306.683 164.722 309.847 164.116C312.867 163.296 315.99 162.917 319.118 162.992C321.083 163.118 322.987 163.721 324.667 164.748C326.457 165.955 327.976 167.522 329.127 169.349L316.835 173.405C316.376 172.49 315.612 171.764 314.676 171.35C313.395 170.892 312.006 170.831 310.689 171.175C309.526 171.337 308.448 171.873 307.616 172.703C307.352 172.985 307.162 173.328 307.061 173.702C306.96 174.075 306.951 174.468 307.037 174.845C307.132 175.26 307.351 175.637 307.664 175.925C307.978 176.214 308.371 176.4 308.793 176.46C310.756 176.688 312.741 176.647 314.693 176.338C318.079 175.847 321.515 175.8 324.913 176.197C327.051 176.499 329.053 177.421 330.673 178.849C332.137 180.176 333.155 181.924 333.588 183.853C334.038 185.921 333.873 188.076 333.114 190.052C332.185 192.391 330.569 194.393 328.478 195.794C325.398 197.807 321.947 199.186 318.328 199.85C312.065 201.279 307.382 201.401 304.28 200.219C301.257 199.012 298.83 196.666 297.519 193.687Z" fill="#263238"/>
<path d="M340.4 150.261H354.817V161.324L352.166 183.572H343.245L340.4 161.359V150.261ZM341.103 186.926H354.554V198.832H341.103V186.926Z" fill="#263238"/>
<path d="M225.962 301.294H225.646C217.744 298.221 213.02 295.236 210.562 291.636C208.638 292.001 206.647 291.73 204.89 290.864C202.832 289.857 201.125 288.254 199.991 286.263C199.395 286.721 198.693 287.02 197.95 287.134C197.207 287.247 196.447 287.171 195.741 286.913C193.577 286.103 191.731 284.62 190.473 282.681C189.687 283.267 188.71 283.536 187.734 283.436C182.466 283.015 175.442 272.619 174.933 261.556C174.928 261.323 175.012 261.096 175.169 260.923C175.326 260.75 175.543 260.643 175.776 260.626C175.891 260.621 176.006 260.639 176.114 260.679C176.223 260.719 176.322 260.779 176.407 260.858C176.492 260.936 176.56 261.03 176.609 261.135C176.657 261.24 176.684 261.353 176.689 261.468C177.181 272.004 183.906 281.364 187.892 281.68C188.182 281.713 188.476 281.687 188.756 281.606C189.036 281.525 189.298 281.389 189.525 281.206C188.152 278.702 187.289 275.951 186.988 273.111C186.687 270.272 186.952 267.4 187.769 264.664C189.279 259.396 190.614 257.324 192.229 257.64C195.25 258.395 194.846 269.932 193.248 277.466C193.006 278.824 192.505 280.124 191.773 281.294C192.808 283.03 194.371 284.389 196.233 285.174C196.729 285.363 197.27 285.406 197.789 285.297C198.309 285.188 198.787 284.932 199.166 284.56C197.796 281.171 197.41 276.535 199.376 270.635C201.835 262.856 202.888 262.645 203.433 262.504C203.637 262.461 203.85 262.475 204.048 262.543C204.246 262.611 204.422 262.731 204.557 262.891C206.19 264.735 204.24 276.816 202.204 282.786C201.965 283.505 201.634 284.189 201.22 284.823C202.162 286.722 203.697 288.263 205.593 289.213C206.836 289.818 208.218 290.078 209.596 289.968C209.438 289.635 209.298 289.301 209.157 288.95C207.77 285.174 208.455 280.837 211.247 275.639C213.091 272.215 214.601 270.6 216.006 270.6C216.379 270.605 216.742 270.716 217.053 270.922C217.365 271.127 217.611 271.418 217.762 271.759C219.289 274.586 218.183 283.91 215.163 288.546C214.456 289.609 213.472 290.459 212.318 291.004C214.671 294.095 219.149 296.817 226.366 299.591C226.474 299.63 226.574 299.69 226.658 299.769C226.743 299.847 226.811 299.941 226.858 300.046C226.906 300.15 226.932 300.264 226.934 300.379C226.937 300.494 226.917 300.608 226.875 300.715C226.807 300.898 226.681 301.054 226.516 301.158C226.351 301.263 226.157 301.311 225.962 301.294ZM215.988 272.373C215.988 272.373 214.987 272.373 212.775 276.5C210.228 281.206 209.579 285.087 210.79 288.353C210.937 288.757 211.113 289.15 211.317 289.529C212.268 289.136 213.077 288.462 213.635 287.598C216.093 283.84 217.27 276.113 216.357 273.093C216.234 272.479 215.988 272.373 215.988 272.373ZM203.38 264.98C202.43 266.98 201.643 269.053 201.027 271.179C199.68 274.864 199.448 278.865 200.36 282.681L200.518 282.224C202.362 276.658 203.345 270.843 203.433 264.98H203.38ZM191.826 259.449C191.527 259.712 190.667 260.819 189.455 265.103C188.022 269.912 188.474 275.086 190.719 279.573C191.08 278.788 191.345 277.962 191.509 277.114C193.388 268.492 192.862 260.696 191.878 259.449H191.826Z" fill="#263238"/>
<path d="M292.726 393.344C289.918 393.371 287.154 392.65 284.718 391.254C284.518 391.134 284.372 390.939 284.313 390.713C284.254 390.487 284.286 390.246 284.402 390.043C284.46 389.944 284.537 389.857 284.629 389.788C284.721 389.72 284.825 389.67 284.936 389.642C285.048 389.614 285.163 389.609 285.277 389.627C285.39 389.644 285.499 389.684 285.596 389.744C291.865 393.414 299.96 390.85 301.628 388.164C301.749 387.995 301.834 387.804 301.88 387.602C301.925 387.4 301.929 387.191 301.892 386.987C298.686 387.171 295.512 386.268 292.884 384.424C288.406 381.631 288.055 380.789 288.09 380.121C288.098 379.93 288.158 379.744 288.263 379.583C288.368 379.422 288.515 379.293 288.687 379.208C290.443 378.33 298.362 381.965 301.664 384.143C302.059 384.405 302.425 384.712 302.752 385.056C304.05 384.761 305.219 384.06 306.089 383.054C306.578 382.478 306.932 381.8 307.125 381.07H306.774C303.964 381.351 301.154 380.139 298.152 377.364C296.079 375.468 295.289 374.151 295.553 373.115C295.632 372.824 295.794 372.562 296.018 372.359C296.242 372.157 296.519 372.023 296.817 371.973C299.24 371.359 305.246 373.923 307.687 376.609C308.231 377.194 308.618 377.907 308.81 378.681C311.111 377.61 313.534 375.169 316.396 371.183C316.463 371.088 316.548 371.007 316.646 370.945C316.744 370.883 316.853 370.841 316.967 370.822C317.081 370.802 317.198 370.805 317.311 370.831C317.424 370.857 317.531 370.905 317.626 370.973C317.814 371.11 317.941 371.315 317.98 371.544C318.019 371.774 317.968 372.01 317.836 372.202C314.517 376.838 311.743 379.472 308.969 380.543C308.825 381.841 308.292 383.065 307.441 384.055C306.429 385.231 305.1 386.09 303.613 386.531C303.696 386.95 303.696 387.381 303.611 387.8C303.527 388.219 303.36 388.617 303.121 388.972C301.646 391.483 297.396 393.344 292.726 393.344ZM291.163 381.157C291.76 381.596 292.603 382.176 293.814 382.913C295.702 384.187 297.872 384.983 300.136 385.231C297.309 383.536 294.299 382.17 291.163 381.157ZM297.291 373.694C297.796 374.644 298.496 375.476 299.346 376.135C301.945 378.541 304.315 379.647 306.598 379.366H307.16C307.035 378.821 306.769 378.318 306.387 377.909C303.929 375.134 298.52 373.413 297.291 373.694Z" fill="#263238"/>
<path d="M315.975 390.938L288.616 395.908L263.769 260.309L210.983 269.897L124.939 422.669L134.176 473.084L244.541 453.048L252.091 494.279L304.877 484.656L297.326 443.425L324.684 438.456L315.975 390.938ZM177.514 416.172L223.17 336.151L235.901 405.583L177.514 416.172Z" fill="#ED3456"/>
<path d="M536.335 251.108C535.504 242.584 533.616 234.196 530.716 226.138C527.731 218.419 523.586 211.2 518.424 204.732C512.312 197.207 504.722 191.015 496.123 186.54C486.757 181.401 474.336 177.824 458.86 175.811C426.725 171.62 401.685 177.321 383.739 192.914C365.792 208.507 353.968 238.359 348.267 282.47C345.991 298.956 345.403 315.63 346.511 332.235C347.682 347.454 350.48 359.705 354.905 368.988C360.536 381.507 369.419 392.289 380.63 400.21C391.717 407.995 406.935 413.14 426.286 415.645C460.681 420.129 486.184 413.52 502.795 395.82C519.407 378.119 530.411 348.209 535.808 306.088C538.207 287.85 538.384 269.389 536.335 251.108Z" fill="#ED3456"/>
<path d="M442.108 397.611C437.876 397.471 433.328 397.084 428.745 396.487C412.66 394.398 400.227 390.324 391.763 384.388C383.323 378.428 376.649 370.298 372.447 360.858L372.36 360.665C368.988 353.641 366.775 343.544 365.81 330.813C364.787 315.52 365.328 300.164 367.425 284.981C373.694 236.305 386.636 215.988 396.382 207.524C407.761 197.655 423.126 193.195 443.32 193.898C447.464 194.038 451.854 194.407 456.367 194.986C469.326 196.742 479.598 199.552 486.868 203.52C493.15 206.755 498.711 211.23 503.217 216.673C507.159 221.589 510.327 227.078 512.611 232.951C514.944 239.499 516.454 246.312 517.107 253.233C518.979 270.002 518.808 286.937 516.597 303.665C511.733 341.489 502.321 368.075 488.642 382.685C478.492 393.502 463.268 398.489 442.09 397.681L442.108 397.611Z" fill="#263238"/>
<path d="M476.473 251.617L476.702 244.962L472.61 243.627C472.436 241.376 472.072 239.144 471.521 236.955L475.033 234.391L472.68 228.14L468.396 228.491C467.388 226.482 466.213 224.561 464.884 222.749L467.096 219.043L462.531 214.179L458.703 216.146C456.99 214.673 455.157 213.346 453.224 212.177L453.839 207.928L447.763 205.171L444.988 208.437C442.84 207.741 440.637 207.224 438.403 206.892L437.367 202.73L430.694 202.502L429.377 206.576C427.127 206.756 424.895 207.12 422.705 207.665L420.123 204.153L413.872 206.488L414.223 210.773C412.215 211.781 410.294 212.956 408.481 214.285L404.793 212.055L399.912 216.603L401.879 220.448C400.402 222.16 399.079 223.999 397.928 225.945L393.678 225.295L390.904 231.371L394.187 234.145C393.474 236.295 392.957 238.505 392.642 240.748L388.463 241.801L388.234 248.439L392.326 249.773C392.497 252.031 392.862 254.269 393.415 256.464L389.903 259.01L392.256 265.261L396.54 264.91C397.538 266.925 398.713 268.847 400.052 270.652L397.822 274.357L402.388 279.222L406.216 277.272C407.929 278.739 409.762 280.061 411.695 281.223L411.062 285.473L417.138 288.23L419.93 284.981C422.085 285.674 424.293 286.185 426.533 286.509L427.569 290.688L434.224 290.917L435.541 286.825C437.798 286.654 440.036 286.289 442.231 285.736L444.778 289.248L451.029 286.913L450.695 282.646C452.697 281.624 454.616 280.45 456.437 279.134L460.125 281.346L465.007 276.798L463.058 272.953C464.529 271.247 465.845 269.413 466.991 267.474L471.24 268.106L474.015 262.03L470.749 259.256C471.447 257.109 471.959 254.906 472.277 252.671L476.473 251.617ZM431.52 273.163C426.319 272.973 421.291 271.247 417.07 268.202C412.849 265.156 409.625 260.929 407.805 256.053C405.985 251.178 405.65 245.872 406.842 240.806C408.035 235.74 410.701 231.141 414.505 227.589C418.309 224.037 423.08 221.691 428.216 220.849C433.352 220.006 438.622 220.703 443.362 222.853C448.102 225.003 452.098 228.509 454.847 232.928C457.596 237.347 458.975 242.482 458.808 247.684C458.697 251.151 457.902 254.562 456.469 257.721C455.036 260.881 452.993 263.726 450.458 266.093C447.922 268.461 444.944 270.304 441.694 271.517C438.444 272.731 434.986 273.29 431.52 273.163Z" fill="#ED3456"/>
<path opacity="0.3" d="M504.183 373.8L504.674 369.304L501.97 368.216C501.966 366.686 501.837 365.159 501.584 363.65L504.025 362.087L502.778 357.75H499.863C499.287 356.339 498.587 354.982 497.773 353.693L499.424 351.305L496.614 347.793L493.928 348.917C492.839 347.84 491.665 346.854 490.416 345.967L491.065 343.122L487.114 340.945L485.042 343.035C483.631 342.454 482.175 341.99 480.687 341.647L480.196 338.785L475.718 338.276L474.612 340.98C473.086 340.987 471.564 341.128 470.064 341.401L468.501 338.908L464.164 340.19V343.105C462.753 343.688 461.395 344.393 460.107 345.212L457.719 343.456L454.207 346.266L455.331 348.952C454.26 350.042 453.28 351.216 452.398 352.464L449.554 351.832L447.394 355.783L449.466 357.838C448.877 359.252 448.413 360.715 448.079 362.21L445.199 362.684L444.725 367.162L447.411 368.286C447.413 369.805 447.548 371.321 447.815 372.816L445.339 374.379L446.604 378.716H449.536C450.122 380.12 450.827 381.471 451.643 382.755L449.887 385.143L452.697 388.655L455.419 387.514C456.499 388.595 457.675 389.576 458.931 390.447L458.316 393.344L462.267 395.504L464.322 393.449C465.735 394.016 467.191 394.469 468.676 394.801L469.186 397.681L473.663 398.173L474.752 395.486C476.305 395.484 477.856 395.355 479.388 395.1L480.951 397.576L485.271 396.312V393.397C486.682 392.803 488.045 392.099 489.345 391.289L491.698 393.045L495.21 390.218L494.068 387.532C495.15 386.443 496.143 385.268 497.036 384.02L499.863 384.652L502.04 380.701L499.968 378.664C500.533 377.25 500.985 375.794 501.32 374.309L504.183 373.8ZM481.583 372.044C480.84 373.403 479.71 374.512 478.337 375.229C476.964 375.947 475.409 376.241 473.868 376.074C472.328 375.907 470.872 375.288 469.683 374.293C468.495 373.298 467.629 371.974 467.194 370.487C466.759 369 466.775 367.417 467.239 365.939C467.704 364.461 468.597 363.154 469.804 362.183C471.012 361.213 472.48 360.622 474.024 360.486C475.567 360.35 477.116 360.675 478.475 361.42C480.292 362.421 481.638 364.1 482.22 366.091C482.803 368.081 482.574 370.221 481.583 372.044Z" fill="#ED3456"/>
<path d="M529.065 297.905L523.797 294.288C523.279 292.408 522.573 290.584 521.69 288.844L523.025 283.576L515.439 275.446L510.171 276.43C508.499 275.435 506.735 274.605 504.903 273.954L501.654 268.475L490.539 268.106L486.921 273.374C485.038 273.885 483.214 274.591 481.478 275.481L476.21 274.129L468.079 281.733L469.063 287.001C468.054 288.664 467.224 290.43 466.587 292.269L461.126 295.517L460.739 306.633L466.007 310.25C466.518 312.144 467.224 313.981 468.114 315.729L466.78 320.997L474.366 329.127L479.634 328.161C481.306 329.155 483.07 329.984 484.902 330.637L488.133 336.098L499.266 336.485L502.866 331.217C504.764 330.701 506.606 329.995 508.362 329.11L513.63 330.444L521.76 322.858L520.794 317.59C521.792 315.921 522.622 314.156 523.27 312.322L528.732 309.074L529.065 297.905ZM494.419 314.798C491.948 314.713 489.557 313.897 487.549 312.454C485.542 311.01 484.007 309.004 483.14 306.688C482.272 304.372 482.111 301.851 482.677 299.443C483.242 297.036 484.509 294.85 486.317 293.163C488.125 291.476 490.392 290.362 492.833 289.964C495.273 289.565 497.777 289.899 500.028 290.924C502.279 291.948 504.175 293.617 505.477 295.719C506.779 297.822 507.429 300.263 507.344 302.734C507.224 306.046 505.797 309.176 503.375 311.437C500.952 313.699 497.732 314.907 494.419 314.798Z" fill="white"/>
<path d="M567.188 209.175L568.101 206.98C568.722 206.63 569.31 206.224 569.857 205.768H571.894L574.283 202.256L573.51 200.377C573.806 199.751 574.041 199.099 574.212 198.428L575.968 196.812L575.231 192.686L573.018 191.773C572.671 191.15 572.266 190.562 571.807 190.017V187.98L568.382 185.592L566.486 186.382C565.793 186.138 565.074 185.973 564.344 185.89L562.728 184.134L558.619 184.872L557.688 187.084C557.037 187.422 556.419 187.822 555.845 188.278H553.825L551.437 191.79L552.21 193.669C551.974 194.365 551.809 195.083 551.718 195.812L549.962 197.445L550.699 201.554L552.912 202.467C553.247 203.093 553.647 203.681 554.106 204.223V206.242L557.618 208.63L559.497 207.858C560.2 208.086 560.923 208.245 561.657 208.332L563.272 210.088L567.188 209.175ZM558.408 197.796C558.242 196.88 558.352 195.935 558.723 195.081C559.094 194.227 559.71 193.502 560.493 192.998C561.277 192.495 562.191 192.235 563.122 192.251C564.053 192.268 564.959 192.56 565.723 193.091C566.488 193.622 567.078 194.369 567.419 195.235C567.759 196.102 567.835 197.05 567.637 197.96C567.438 198.87 566.974 199.7 566.304 200.346C565.633 200.992 564.786 201.424 563.869 201.589C562.643 201.804 561.381 201.526 560.358 200.816C559.336 200.106 558.635 199.02 558.408 197.796Z" fill="#ED3456"/>
<path d="M519.091 197.532L517.739 196.391C520.637 192.797 524.218 189.813 528.275 187.611L529.101 189.156C525.242 191.257 521.839 194.104 519.091 197.532Z" fill="#ED3456"/>
<path d="M533.104 187.541L532.419 185.925C538.903 183.107 545.994 181.972 553.034 182.624L552.859 184.38C546.112 183.744 539.315 184.832 533.104 187.541Z" fill="#ED3456"/>
<path d="M529.786 199.692L528.346 198.709C532.576 192.996 538.733 189.01 545.677 187.488L546.011 189.244C539.522 190.661 533.761 194.371 529.786 199.692Z" fill="#ED3456"/>
<path d="M413.257 368.76C413.018 368.753 412.791 368.652 412.625 368.479L408.955 364.686C407.084 364.516 405.233 364.176 403.424 363.668L397.682 366.196C397.555 366.265 397.413 366.302 397.269 366.302C397.125 366.302 396.983 366.265 396.856 366.196L387.234 359.822C387.109 359.74 387.009 359.628 386.941 359.495C386.873 359.363 386.841 359.215 386.847 359.067V352.816C385.673 351.346 384.638 349.771 383.757 348.109L378.822 346.213C378.684 346.159 378.562 346.072 378.467 345.958C378.371 345.845 378.306 345.709 378.278 345.563L375.995 334.255C375.965 334.11 375.972 333.96 376.015 333.819C376.058 333.678 376.135 333.55 376.241 333.447L380.034 329.777C380.215 327.907 380.556 326.057 381.052 324.245L378.524 318.503C378.455 318.377 378.418 318.235 378.418 318.091C378.418 317.946 378.455 317.805 378.524 317.678L384.898 308.055C384.977 307.928 385.089 307.826 385.222 307.758C385.355 307.689 385.504 307.659 385.653 307.669L391.905 307.757C393.369 306.576 394.945 305.541 396.611 304.666L398.525 299.732C398.575 299.595 398.66 299.473 398.77 299.378C398.881 299.282 399.014 299.217 399.157 299.187L410.465 296.904C410.61 296.873 410.76 296.878 410.902 296.921C411.043 296.965 411.171 297.043 411.273 297.15L414.943 300.943C416.82 301.114 418.677 301.455 420.492 301.962L426.217 299.433C426.346 299.364 426.491 299.328 426.638 299.328C426.785 299.328 426.93 299.364 427.06 299.433L436.665 305.807C436.787 305.893 436.887 306.006 436.957 306.137C437.027 306.268 437.065 306.414 437.069 306.562L436.963 312.814C438.144 314.283 439.184 315.858 440.072 317.52L444.988 319.434C445.125 319.485 445.247 319.569 445.342 319.68C445.438 319.79 445.503 319.923 445.533 320.066L447.833 331.375C447.86 331.519 447.852 331.668 447.809 331.809C447.766 331.949 447.69 332.078 447.587 332.183L443.777 335.87C443.601 337.735 443.26 339.58 442.758 341.384L445.287 347.126C445.356 347.256 445.392 347.401 445.392 347.548C445.392 347.695 445.356 347.839 445.287 347.969L439 357.504C438.918 357.623 438.808 357.721 438.679 357.788C438.551 357.855 438.408 357.89 438.263 357.89L431.994 357.803C430.524 358.967 428.955 360.001 427.305 360.893L425.391 365.827C425.339 365.967 425.252 366.09 425.138 366.185C425.024 366.281 424.888 366.345 424.742 366.372L413.433 368.76H413.257ZM403.371 361.736C403.452 361.72 403.536 361.72 403.617 361.736C405.513 362.288 407.461 362.647 409.429 362.807C409.64 362.832 409.837 362.924 409.991 363.071L413.503 366.758L423.864 364.669L425.725 359.857C425.811 359.663 425.96 359.502 426.147 359.401C427.901 358.493 429.554 357.405 431.081 356.152C431.242 356.016 431.45 355.947 431.66 355.959L437.754 356.047L443.584 347.267L441.125 341.682C441.055 341.49 441.055 341.278 441.125 341.085C441.668 339.187 442.027 337.24 442.196 335.273C442.214 335.06 442.308 334.861 442.46 334.711L446.147 331.199L444.058 320.839L439.264 318.977C439.058 318.902 438.888 318.752 438.79 318.556C437.879 316.804 436.79 315.151 435.541 313.622C435.416 313.461 435.348 313.263 435.348 313.06V306.949L426.568 301.119L421.001 303.577C420.803 303.648 420.586 303.648 420.387 303.577C418.484 303.028 416.531 302.669 414.557 302.506C414.346 302.481 414.149 302.389 413.995 302.243L410.483 298.555L400.123 300.662L398.279 305.544C398.205 305.745 398.062 305.913 397.875 306.018C396.114 306.923 394.454 308.012 392.923 309.267C392.847 309.335 392.758 309.388 392.662 309.421C392.565 309.454 392.463 309.467 392.361 309.46L386.268 309.372L380.42 318.152L382.879 323.736C382.935 323.854 382.964 323.983 382.964 324.114C382.964 324.244 382.935 324.373 382.879 324.491C382.358 326.345 382.017 328.244 381.86 330.163C381.844 330.376 381.75 330.576 381.597 330.725L377.909 334.237L380.016 344.597L384.793 346.459C385.006 346.547 385.18 346.709 385.284 346.915C386.19 348.655 387.273 350.297 388.515 351.815C388.646 351.972 388.715 352.172 388.709 352.377V358.487L397.489 364.317L403.073 361.859C403.164 361.801 403.265 361.759 403.371 361.736ZM411.993 356.047C407.766 356.043 403.62 354.894 399.994 352.722C396.368 350.55 393.399 347.436 391.401 343.711C389.404 339.986 388.453 335.789 388.65 331.567C388.846 327.345 390.184 323.255 392.519 319.732C394.753 316.353 397.826 313.611 401.437 311.774C405.048 309.938 409.074 309.07 413.121 309.256C417.168 309.442 421.097 310.675 424.525 312.835C427.952 314.994 430.761 318.007 432.675 321.577C434.59 325.147 435.545 329.153 435.447 333.203C435.35 337.253 434.203 341.208 432.118 344.682C430.034 348.156 427.084 351.03 423.556 353.022C420.029 355.014 416.044 356.056 411.993 356.047ZM393.994 320.698C391.631 324.264 390.377 328.451 390.393 332.73C390.409 337.008 391.693 341.186 394.083 344.734C396.473 348.283 399.861 351.044 403.82 352.667C407.778 354.29 412.129 354.703 416.322 353.853C420.515 353.004 424.363 350.93 427.377 347.894C430.392 344.859 432.439 340.997 433.259 336.798C434.08 332.599 433.637 328.251 431.986 324.304C430.336 320.357 427.552 316.988 423.987 314.623C421.622 313.04 418.968 311.941 416.177 311.39C413.386 310.839 410.513 310.846 407.724 311.411C404.936 311.976 402.287 313.087 399.93 314.681C397.574 316.275 395.556 318.32 393.994 320.698Z" fill="white"/>
<path d="M747.757 406.777L720.188 403.055L738.415 266.42L685.244 259.256L556.265 377.997L549.487 428.798L660.625 443.794L655.076 485.358L708.247 492.523L713.796 450.976L741.365 454.699L747.757 406.777ZM608.296 387.953L676.358 325.914L667.016 395.873L608.296 387.953Z" fill="#ED3456"/>
<path d="M692.092 491.223H691.864C691.636 491.181 691.434 491.05 691.303 490.859C691.171 490.668 691.12 490.433 691.161 490.205L732.252 265.542C732.299 265.317 732.431 265.118 732.62 264.987C732.81 264.856 733.043 264.803 733.27 264.84C733.498 264.883 733.7 265.014 733.831 265.204C733.963 265.395 734.014 265.63 733.973 265.858L692.97 490.503C692.929 490.706 692.82 490.889 692.66 491.02C692.5 491.152 692.299 491.223 692.092 491.223Z" fill="#263238"/>
<path d="M728.441 269.318C728.427 269.7 728.262 270.06 727.982 270.32C727.702 270.581 727.331 270.719 726.949 270.705C726.567 270.691 726.206 270.526 725.946 270.246C725.686 269.966 725.548 269.594 725.562 269.212C725.575 268.83 725.741 268.47 726.02 268.21C726.3 267.949 726.672 267.811 727.054 267.825C727.436 267.839 727.797 268.004 728.057 268.284C728.317 268.564 728.455 268.936 728.441 269.318Z" fill="#263238"/>
<path d="M722.594 299.697C722.583 299.981 722.488 300.256 722.322 300.487C722.155 300.717 721.923 300.893 721.656 300.993C721.389 301.092 721.099 301.11 720.822 301.044C720.545 300.978 720.294 300.832 720.1 300.623C719.906 300.415 719.779 300.153 719.733 299.872C719.688 299.591 719.727 299.303 719.845 299.044C719.964 298.785 720.156 298.567 720.398 298.418C720.641 298.268 720.922 298.194 721.206 298.204C721.396 298.211 721.582 298.255 721.754 298.333C721.926 298.412 722.081 298.524 722.21 298.663C722.338 298.801 722.439 298.964 722.505 299.141C722.57 299.319 722.601 299.507 722.594 299.697Z" fill="#263238"/>
<path d="M716.747 330.128C716.74 330.317 716.696 330.503 716.618 330.675C716.539 330.847 716.427 331.002 716.288 331.131C716.15 331.26 715.987 331.36 715.81 331.426C715.632 331.492 715.444 331.522 715.254 331.515C715.066 331.511 714.881 331.469 714.709 331.392C714.537 331.315 714.382 331.205 714.252 331.068C714.123 330.93 714.023 330.769 713.957 330.593C713.891 330.416 713.86 330.228 713.867 330.04C713.872 329.85 713.914 329.662 713.992 329.488C714.069 329.313 714.181 329.156 714.32 329.026C714.459 328.895 714.622 328.793 714.801 328.726C714.979 328.659 715.169 328.628 715.36 328.635C715.74 328.654 716.098 328.82 716.358 329.099C716.617 329.378 716.757 329.747 716.747 330.128Z" fill="#263238"/>
<path d="M705.227 361.736C705.188 362.088 705.021 362.414 704.757 362.65C704.493 362.886 704.151 363.017 703.796 363.017C703.442 363.017 703.1 362.886 702.836 362.65C702.572 362.414 702.404 362.088 702.365 361.736C702.343 361.535 702.363 361.331 702.425 361.138C702.487 360.945 702.588 360.768 702.724 360.617C702.859 360.466 703.024 360.345 703.209 360.263C703.394 360.18 703.594 360.137 703.796 360.137C703.999 360.137 704.199 360.18 704.384 360.263C704.569 360.345 704.734 360.466 704.869 360.617C705.004 360.768 705.106 360.945 705.168 361.138C705.229 361.331 705.25 361.535 705.227 361.736Z" fill="#263238"/>
<path d="M705.034 390.833C705.03 391.023 704.987 391.21 704.909 391.383C704.831 391.556 704.72 391.712 704.581 391.841C704.441 391.971 704.278 392.071 704.099 392.136C703.921 392.201 703.731 392.23 703.542 392.22C703.257 392.21 702.982 392.115 702.751 391.948C702.521 391.781 702.345 391.55 702.245 391.283C702.146 391.016 702.128 390.726 702.194 390.449C702.26 390.172 702.406 389.92 702.615 389.727C702.823 389.533 703.085 389.405 703.366 389.36C703.647 389.314 703.935 389.353 704.194 389.472C704.453 389.59 704.671 389.783 704.821 390.025C704.97 390.267 705.044 390.548 705.034 390.833Z" fill="#263238"/>
<path d="M699.187 421.212C699.18 421.497 699.088 421.774 698.923 422.007C698.758 422.24 698.528 422.419 698.261 422.521C697.995 422.623 697.704 422.643 697.425 422.579C697.147 422.515 696.894 422.37 696.699 422.162C696.503 421.954 696.374 421.693 696.327 421.411C696.28 421.129 696.318 420.84 696.436 420.58C696.554 420.32 696.747 420.101 696.99 419.951C697.233 419.801 697.514 419.726 697.8 419.737C698.179 419.75 698.537 419.913 698.796 420.189C699.056 420.465 699.197 420.833 699.187 421.212Z" fill="#263238"/>
<path d="M693.339 451.591C693.325 451.974 693.161 452.337 692.881 452.6C692.602 452.863 692.23 453.005 691.846 452.995C691.657 452.988 691.471 452.944 691.299 452.866C691.127 452.787 690.972 452.675 690.843 452.537C690.714 452.398 690.614 452.235 690.548 452.058C690.482 451.88 690.452 451.692 690.459 451.503C690.465 451.314 690.508 451.127 690.585 450.955C690.663 450.783 690.774 450.627 690.912 450.497C691.05 450.368 691.212 450.266 691.388 450.199C691.565 450.132 691.754 450.101 691.943 450.107C692.132 450.112 692.318 450.155 692.491 450.233C692.663 450.311 692.818 450.422 692.948 450.559C693.078 450.697 693.179 450.859 693.246 451.036C693.313 451.213 693.345 451.401 693.339 451.591Z" fill="#263238"/>
<path d="M687.475 481.987C687.464 482.271 687.369 482.546 687.202 482.777C687.036 483.008 686.804 483.184 686.537 483.283C686.27 483.382 685.98 483.4 685.703 483.334C685.426 483.269 685.175 483.122 684.981 482.914C684.787 482.705 684.659 482.444 684.614 482.163C684.569 481.882 684.608 481.593 684.726 481.334C684.845 481.076 685.037 480.858 685.279 480.708C685.522 480.558 685.803 480.484 686.087 480.494C686.277 480.499 686.464 480.541 686.637 480.619C686.811 480.697 686.966 480.809 687.096 480.948C687.225 481.087 687.325 481.251 687.39 481.429C687.455 481.608 687.484 481.797 687.475 481.987Z" fill="#263238"/>
<path d="M703.787 362.526C703.589 362.526 703.397 362.458 703.244 362.334C703.09 362.209 702.984 362.035 702.944 361.841C702.918 361.728 702.915 361.611 702.934 361.497C702.954 361.383 702.996 361.273 703.058 361.176C703.12 361.078 703.201 360.993 703.296 360.926C703.391 360.86 703.498 360.813 703.611 360.788L707.966 359.857C708.08 359.831 708.199 359.829 708.314 359.85C708.429 359.87 708.539 359.914 708.637 359.978C708.735 360.041 708.82 360.124 708.886 360.221C708.951 360.318 708.997 360.427 709.02 360.542C709.043 360.655 709.043 360.771 709.022 360.885C709 360.998 708.956 361.106 708.892 361.202C708.828 361.298 708.747 361.381 708.651 361.445C708.555 361.51 708.448 361.555 708.335 361.578L703.98 362.509L703.787 362.526Z" fill="#263238"/>
<path d="M718.345 346.353C716.273 351.726 714.514 357.214 713.077 362.79C711.76 368.988 711.689 382.861 711.689 382.861" fill="#263238"/>
<path d="M711.69 383.739C711.456 383.73 711.236 383.632 711.072 383.465C710.909 383.299 710.816 383.076 710.812 382.843C710.812 382.281 710.917 368.795 712.234 362.614C713.663 356.99 715.422 351.455 717.502 346.037C717.537 345.922 717.596 345.815 717.674 345.723C717.752 345.631 717.849 345.556 717.957 345.503C718.066 345.45 718.184 345.421 718.305 345.415C718.426 345.41 718.546 345.43 718.659 345.474C718.772 345.518 718.874 345.584 718.96 345.669C719.046 345.754 719.113 345.856 719.158 345.968C719.202 346.08 719.223 346.2 719.219 346.321C719.216 346.442 719.187 346.56 719.135 346.67C717.066 352.001 715.307 357.448 713.867 362.983C712.585 369.023 712.497 382.72 712.48 382.861C712.481 383.079 712.4 383.29 712.254 383.452C712.108 383.615 711.907 383.717 711.69 383.739Z" fill="#263238"/>
<path d="M390.623 535.299C393.064 495.965 388.586 424.443 462.531 433.925C541.78 444.057 519.11 536.739 519.11 536.739L390.623 535.299Z" fill="#263238"/>
<path d="M441.652 511.663C459.477 511.663 473.928 497.213 473.928 479.388C473.928 461.563 459.477 447.113 441.652 447.113C423.827 447.113 409.377 461.563 409.377 479.388C409.377 497.213 423.827 511.663 441.652 511.663Z" fill="white"/>
<path d="M445.901 447.165C430.606 444.567 414.293 455.822 412.66 467.236L473.26 472.821C471.117 459.809 458.018 449.237 445.901 447.165Z" fill="#263238"/>
<path d="M466.359 478.58C465.92 487.027 461.319 493.647 456.086 493.366C450.853 493.085 446.955 486.043 447.306 477.562C447.657 469.08 452.346 462.495 457.579 462.776C462.812 463.057 466.78 470.151 466.359 478.58Z" fill="#263238"/>
<path d="M441.652 513.419C434.922 513.419 428.342 511.423 422.746 507.684C417.149 503.945 412.787 498.63 410.212 492.411C407.636 486.193 406.962 479.35 408.275 472.749C409.588 466.147 412.829 460.084 417.589 455.324C422.348 450.565 428.412 447.324 435.013 446.011C441.615 444.698 448.457 445.371 454.676 447.947C460.894 450.523 466.209 454.885 469.948 460.481C473.688 466.078 475.684 472.657 475.684 479.388C475.674 488.411 472.086 497.061 465.706 503.442C459.326 509.822 450.675 513.41 441.652 513.419ZM441.652 448.886C435.615 448.886 429.714 450.677 424.695 454.031C419.676 457.385 415.764 462.153 413.455 467.73C411.145 473.308 410.542 479.445 411.721 485.366C412.9 491.287 415.808 496.725 420.078 500.992C424.348 505.26 429.788 508.165 435.709 509.341C441.63 510.516 447.767 509.909 453.344 507.597C458.92 505.284 463.685 501.37 467.037 496.348C470.388 491.327 472.175 485.425 472.172 479.388C472.162 471.298 468.943 463.543 463.221 457.824C457.499 452.105 449.742 448.891 441.652 448.886Z" fill="#ED3456"/>
<path opacity="0.3" d="M510.101 534.316H509.89C509.777 534.291 509.671 534.244 509.577 534.177C509.482 534.11 509.403 534.025 509.342 533.927C509.281 533.828 509.241 533.719 509.224 533.605C509.206 533.491 509.212 533.374 509.241 533.262C509.241 533.034 514.895 509.222 509.083 485.148C509.027 484.915 509.066 484.669 509.191 484.465C509.316 484.261 509.517 484.115 509.75 484.059C509.983 484.003 510.228 484.042 510.432 484.167C510.637 484.292 510.783 484.493 510.839 484.726C516.756 509.31 511.049 533.438 510.997 533.666C510.945 533.861 510.827 534.031 510.664 534.15C510.501 534.268 510.302 534.327 510.101 534.316Z" fill="white"/>
<path opacity="0.3" d="M505.202 471.943C505.033 471.941 504.869 471.892 504.726 471.802C504.584 471.712 504.469 471.585 504.394 471.433C502.212 466.609 499.414 462.088 496.071 457.982C495.925 457.803 495.856 457.573 495.879 457.343C495.902 457.112 496.015 456.901 496.194 456.753C496.283 456.678 496.387 456.622 496.498 456.588C496.609 456.554 496.727 456.542 496.843 456.553C496.959 456.565 497.071 456.599 497.174 456.655C497.277 456.71 497.367 456.785 497.44 456.876C500.866 461.101 503.74 465.745 505.992 470.696C506.042 470.799 506.071 470.912 506.077 471.027C506.082 471.141 506.065 471.256 506.026 471.364C505.987 471.472 505.926 471.571 505.848 471.656C505.77 471.74 505.675 471.808 505.571 471.855C505.455 471.909 505.329 471.938 505.202 471.943Z" fill="white"/>
<path d="M226.051 719.82H225.401C223.072 719.754 220.865 718.767 219.264 717.074C217.664 715.381 216.802 713.122 216.867 710.794C216.932 708.465 217.919 706.258 219.612 704.657C221.305 703.057 223.564 702.194 225.893 702.26H226.051C231.125 702.26 243.33 696.096 268.862 655.848C269.54 654.78 270.44 653.87 271.503 653.182C272.565 652.493 273.763 652.043 275.016 651.861C276.268 651.679 277.545 651.771 278.759 652.128C279.973 652.486 281.096 653.102 282.049 653.934C302.101 671.171 323.969 686.174 347.267 698.677C348.345 699.168 349.313 699.871 350.113 700.745C350.912 701.62 351.526 702.647 351.918 703.764C352.31 704.882 352.471 706.068 352.393 707.25C352.315 708.431 351.998 709.585 351.462 710.642C350.927 711.698 350.182 712.635 349.275 713.396C348.367 714.157 347.315 714.727 346.182 715.071C345.048 715.415 343.857 715.526 342.68 715.398C341.502 715.269 340.363 714.904 339.33 714.323C317.676 702.817 297.208 689.207 278.221 673.689C256.816 705.912 240.941 719.82 226.051 719.82Z" fill="#263238"/>
<path d="M280.381 652.354H279.626C278.246 652.154 277.002 651.415 276.166 650.299C275.33 649.183 274.97 647.782 275.166 646.401C276.413 637.621 274.867 604.907 263.787 579.445C263.296 578.32 263.213 577.058 263.552 575.878C263.892 574.698 264.634 573.674 265.648 572.983C289.706 556.599 340.946 554.633 343.123 554.562C343.815 554.539 344.505 554.653 345.153 554.896C345.8 555.14 346.394 555.508 346.9 555.981C347.405 556.454 347.813 557.022 348.099 557.652C348.385 558.282 348.544 558.963 348.567 559.655C348.59 560.347 348.476 561.036 348.233 561.684C347.99 562.332 347.621 562.926 347.148 563.431C346.675 563.937 346.107 564.344 345.477 564.63C344.847 564.916 344.166 565.075 343.474 565.098C343 565.098 298.205 566.854 275.201 579.498C285 604.854 287.23 636.445 285.597 647.876C285.407 649.123 284.777 650.261 283.82 651.083C282.863 651.905 281.643 652.356 280.381 652.354Z" fill="#263238"/>
<path d="M289.231 645.541C285.719 637.27 269.915 638.201 260.661 645.295C255.709 649.07 249.001 660.467 248.369 664.611C248.158 665.596 248.19 666.617 248.461 667.586C248.732 668.556 249.235 669.446 249.926 670.178C250.617 670.911 251.476 671.464 252.428 671.791C253.38 672.119 254.398 672.209 255.393 672.056C261.451 671.53 269.757 662.732 269.757 662.732C264.226 668.158 271.373 671.986 282.049 664.137C287.879 659.764 293.147 654.795 289.231 645.541Z" fill="#ED3456"/>
<path d="M591.263 537.617C591.182 537.635 591.098 537.635 591.017 537.617C590.905 537.587 590.801 537.534 590.71 537.463C590.618 537.391 590.543 537.302 590.487 537.2C590.431 537.098 590.396 536.986 590.385 536.871C590.374 536.755 590.386 536.639 590.42 536.528C592.756 528.38 595.302 523.411 598.656 520.724C598.13 518.836 598.229 516.828 598.937 515C599.755 512.866 601.2 511.029 603.081 509.732C602.57 509.179 602.207 508.506 602.025 507.775C601.844 507.045 601.851 506.28 602.045 505.552C602.681 503.353 603.996 501.41 605.803 500.003C605.151 499.275 604.795 498.329 604.802 497.352C604.802 492.084 614.478 484.147 625.453 482.637C625.685 482.604 625.922 482.665 626.109 482.807C626.297 482.948 626.421 483.159 626.454 483.392C626.486 483.625 626.425 483.861 626.283 484.049C626.142 484.236 625.931 484.36 625.698 484.393C615.268 485.815 606.523 493.366 606.558 497.352C606.554 497.946 606.781 498.519 607.19 498.95C609.552 497.348 612.21 496.233 615.008 495.669C617.806 495.105 620.688 495.104 623.486 495.666C628.877 496.702 631.072 497.844 630.826 499.477C630.334 502.55 618.868 503.199 611.176 502.286C609.799 502.161 608.458 501.774 607.225 501.145C605.569 502.323 604.338 504.005 603.713 505.939C603.563 506.451 603.564 506.995 603.717 507.506C603.869 508.017 604.167 508.473 604.574 508.819C607.84 507.063 612.423 506.43 618.481 507.765C626.436 509.521 626.734 510.487 626.928 511.066C626.99 511.271 626.994 511.489 626.942 511.696C626.889 511.903 626.781 512.092 626.629 512.243C624.961 513.999 612.757 513.173 606.628 511.663C605.888 511.495 605.174 511.229 604.504 510.873C602.69 511.975 601.293 513.649 600.535 515.632C600.028 516.915 599.888 518.313 600.131 519.671C600.444 519.484 600.766 519.314 601.097 519.161C604.732 517.405 609.122 517.721 614.548 520.039C618.06 521.567 619.816 522.937 619.991 524.324C619.999 524.68 619.91 525.031 619.734 525.34C619.558 525.65 619.301 525.905 618.991 526.08C616.304 527.836 606.927 527.59 602.045 524.991C600.923 524.381 599.988 523.477 599.341 522.375C596.479 525.009 594.161 529.697 592.054 537.055C591.99 537.215 591.881 537.353 591.741 537.452C591.601 537.552 591.435 537.609 591.263 537.617ZM600.781 521.233C601.27 522.142 602.015 522.887 602.923 523.376C606.892 525.483 614.688 525.957 617.603 524.781C618.2 524.535 618.288 524.342 618.288 524.342C618.288 524.342 618.2 523.358 613.898 521.514C608.981 519.407 605.118 519.109 601.905 520.601C601.517 520.788 601.142 520.999 600.781 521.233ZM606.646 509.697L607.085 509.819C612.803 511.137 618.688 511.581 624.54 511.136C622.464 510.367 620.325 509.779 618.148 509.38C614.366 508.356 610.366 508.466 606.646 509.697ZM608.858 499.828C609.669 500.118 610.512 500.307 611.37 500.39C620.15 501.426 627.858 500.214 628.93 499.108C628.631 498.845 627.454 498.089 623.1 497.264C618.199 496.287 613.11 497.203 608.858 499.828Z" fill="#263238"/>
<path d="M362.667 716.887C363.826 716.518 363.44 715.394 362.14 715.394H338.364C293.094 710.601 261.469 717.027 281.399 718.538C301.33 720.048 279.994 719.732 265.437 725.246C250.88 730.759 373.695 732.147 384.845 725.246C395.1 718.889 346.617 722.032 362.667 716.887Z" fill="#263238"/>
<path d="M532.894 723.893L326.037 717.027L317.45 516.457L561.727 521.918L532.894 723.893Z" fill="#ED3456"/>
<path d="M390.622 720.048C390.401 720.049 390.188 719.966 390.025 719.816C389.862 719.666 389.762 719.461 389.744 719.24L373.168 517.792C373.153 517.56 373.229 517.331 373.38 517.154C373.531 516.977 373.744 516.866 373.976 516.844C374.207 516.833 374.433 516.911 374.609 517.061C374.785 517.211 374.897 517.422 374.924 517.651L391.588 719.1C391.598 719.215 391.585 719.331 391.549 719.441C391.514 719.552 391.457 719.654 391.382 719.742C391.307 719.83 391.215 719.902 391.112 719.955C391.008 720.007 390.896 720.039 390.78 720.048H390.622Z" fill="#263238"/>
<path d="M532.894 723.893L588.489 715.43L605.996 528.925L561.727 521.918L532.894 723.893Z" fill="#ED3456"/>
<path opacity="0.2" d="M532.894 723.893L588.489 715.43L605.996 528.925L561.727 521.918L532.894 723.893Z" fill="black"/>
<path d="M343.702 678.378L338.609 559.198C338.484 556.254 338.963 553.315 340.019 550.564C341.074 547.812 342.683 545.307 344.745 543.202C346.807 541.097 349.279 539.437 352.009 538.325C354.738 537.214 357.666 536.674 360.612 536.739L515.245 540.251C518.29 540.32 521.286 541.033 524.035 542.344C526.784 543.656 529.224 545.535 531.193 547.858C533.163 550.181 534.618 552.895 535.462 555.821C536.305 558.748 536.519 561.82 536.089 564.835L518.951 684.84C518.209 690.096 515.554 694.893 511.493 698.312C507.433 701.731 502.253 703.53 496.948 703.366L364.563 698.976C359.129 698.808 353.958 696.592 350.089 692.772C346.22 688.952 343.939 683.81 343.702 678.378Z" fill="#263238"/>
<path d="M360.419 573.316L384.336 574.072L384.143 580.235L369.164 579.761L369.023 584.362L382.913 584.801L382.72 590.701L368.83 590.244L368.655 595.951L384.055 596.443L383.844 602.975L359.488 602.203L360.419 573.316Z" fill="white"/>
<path d="M388.778 603.133L389.691 574.247L404.582 574.721C406.717 574.71 408.842 575.018 410.886 575.634C412.336 576.12 413.575 577.086 414.398 578.374C415.009 579.311 415.419 580.365 415.605 581.468C415.79 582.571 415.747 583.701 415.476 584.786C415.206 585.872 414.715 586.89 414.035 587.778C413.354 588.666 412.497 589.404 411.519 589.946C410.52 590.46 409.448 590.815 408.34 590.999C409.157 591.262 409.931 591.641 410.641 592.123C411.153 592.599 411.612 593.129 412.01 593.704C412.463 594.25 412.862 594.838 413.204 595.46L417.261 603.976L407.181 603.643L402.686 594.669C402.329 593.813 401.804 593.036 401.141 592.387C400.51 591.931 399.758 591.674 398.981 591.649H398.19L397.822 603.362L388.778 603.133ZM398.296 586.241L402.054 586.364C402.851 586.315 403.644 586.203 404.424 586.03C405.012 585.94 405.545 585.633 405.917 585.169C406.297 584.701 406.513 584.121 406.531 583.519C406.565 583.117 406.508 582.713 406.365 582.337C406.222 581.96 405.997 581.62 405.706 581.341C404.726 580.708 403.569 580.407 402.405 580.481L398.471 580.358L398.296 586.241Z" fill="white"/>
<path d="M420.176 604.064L421.089 575.178L435.962 575.652C438.097 575.639 440.222 575.947 442.266 576.565C443.718 577.045 444.959 578.013 445.778 579.304C446.67 580.711 447.088 582.366 446.972 584.028C446.977 585.429 446.603 586.806 445.889 588.012C445.175 589.218 444.147 590.207 442.916 590.876C441.916 591.388 440.845 591.743 439.738 591.93C440.549 592.192 441.318 592.57 442.02 593.054C442.545 593.516 443.011 594.041 443.408 594.617C443.857 595.166 444.256 595.753 444.602 596.373L448.658 604.872L438.579 604.556L434.083 595.583C433.724 594.727 433.199 593.951 432.538 593.3C431.911 592.826 431.147 592.567 430.361 592.562H429.588L429.202 604.292L420.176 604.064ZM429.676 587.171L433.451 587.277C434.25 587.246 435.043 587.141 435.822 586.961C436.406 586.874 436.934 586.566 437.297 586.1C437.69 585.64 437.908 585.055 437.911 584.449C437.949 584.049 437.897 583.645 437.757 583.268C437.617 582.891 437.394 582.551 437.104 582.272C436.124 581.623 434.956 581.32 433.785 581.412L429.869 581.289L429.676 587.171Z" fill="white"/>
<path d="M450.099 590.648C449.963 588.632 450.276 586.612 451.014 584.731C451.752 582.851 452.898 581.157 454.369 579.772C455.839 578.387 457.599 577.345 459.52 576.72C461.441 576.096 463.477 575.905 465.481 576.161C467.504 576.094 469.519 576.434 471.407 577.161C473.296 577.888 475.019 578.987 476.474 580.393C477.773 581.889 478.754 583.633 479.358 585.52C479.961 587.407 480.175 589.396 479.986 591.368C480 594.237 479.326 597.067 478.019 599.621C476.835 601.711 475.065 603.408 472.927 604.503C470.407 605.708 467.618 606.24 464.832 606.048C462.053 606.072 459.305 605.472 456.789 604.292C454.647 603.13 452.899 601.358 451.767 599.2C450.439 596.556 449.862 593.598 450.099 590.648ZM459.019 590.964C458.756 593.178 459.258 595.415 460.442 597.303C460.995 597.921 461.668 598.422 462.419 598.774C463.17 599.127 463.984 599.325 464.813 599.356C465.643 599.387 466.47 599.251 467.245 598.955C468.02 598.66 468.728 598.212 469.327 597.637C470.629 595.666 471.246 593.321 471.083 590.964C471.319 588.848 470.803 586.716 469.625 584.941C469.093 584.328 468.435 583.836 467.696 583.5C466.956 583.163 466.153 582.99 465.341 582.992C464.521 582.933 463.699 583.061 462.936 583.365C462.172 583.669 461.488 584.142 460.933 584.748C459.603 586.54 458.928 588.734 459.019 590.964Z" fill="white"/>
<path d="M484.498 606.189L485.411 577.285L500.284 577.759C502.419 577.756 504.543 578.063 506.589 578.672C508.034 579.165 509.271 580.13 510.101 581.412C510.987 582.821 511.405 584.474 511.295 586.135C511.303 587.54 510.93 588.92 510.216 590.129C509.501 591.338 508.472 592.331 507.238 593.001C506.234 593.498 505.164 593.847 504.06 594.037C504.872 594.305 505.641 594.689 506.343 595.179C506.868 595.641 507.334 596.165 507.73 596.741C508.182 597.288 508.582 597.876 508.924 598.497L512.98 607.014L502.901 606.698L498.406 597.707C498.048 596.856 497.522 596.086 496.86 595.442C496.23 594.971 495.469 594.707 494.683 594.687H493.91L493.524 606.417L484.498 606.189ZM493.998 589.278L497.773 589.401C498.572 589.371 499.366 589.265 500.144 589.085C500.726 588.992 501.251 588.685 501.619 588.225C502.034 587.735 502.252 587.11 502.234 586.469C502.272 586.071 502.219 585.67 502.079 585.296C501.939 584.922 501.715 584.584 501.426 584.309C500.446 583.66 499.278 583.357 498.107 583.449L494.191 583.326L493.998 589.278Z" fill="white"/>
<path d="M498.704 655.269C498.375 655.275 498.048 655.211 497.745 655.081C497.442 654.951 497.171 654.757 496.948 654.514L481.917 638.06L465.692 652.881C465.242 653.293 464.647 653.509 464.038 653.483C463.429 653.457 462.855 653.189 462.443 652.74L447.412 636.287L431.186 651.107C430.737 651.519 430.142 651.736 429.533 651.709C428.924 651.683 428.35 651.416 427.938 650.967L412.889 634.513L396.681 649.334C396.444 649.548 396.167 649.711 395.865 649.814C395.563 649.917 395.243 649.956 394.925 649.931C394.315 649.894 393.742 649.624 393.327 649.176L378.295 632.739L362.088 647.543C361.635 647.956 361.038 648.173 360.425 648.146C359.813 648.12 359.237 647.852 358.821 647.402C358.616 647.179 358.458 646.918 358.354 646.634C358.251 646.349 358.206 646.047 358.22 645.745C358.235 645.442 358.31 645.146 358.44 644.873C358.57 644.6 358.754 644.355 358.979 644.153L376.891 627.77C377.343 627.357 377.941 627.14 378.553 627.166C379.165 627.193 379.741 627.46 380.157 627.91L395.188 644.364L411.396 629.544C411.856 629.14 412.452 628.926 413.064 628.947C413.675 628.979 414.249 629.25 414.662 629.702L429.694 646.155L445.919 631.335C446.14 631.129 446.401 630.969 446.685 630.864C446.969 630.759 447.27 630.712 447.573 630.725C447.875 630.738 448.172 630.811 448.445 630.94C448.719 631.069 448.965 631.251 449.168 631.475L464.199 647.929L480.424 633.108C480.874 632.696 481.469 632.48 482.078 632.506C482.687 632.532 483.261 632.8 483.673 633.249L500.46 651.476C500.76 651.811 500.956 652.227 501.024 652.671C501.092 653.116 501.029 653.571 500.843 653.981C500.657 654.39 500.355 654.737 499.976 654.978C499.596 655.219 499.154 655.345 498.704 655.339V655.269Z" fill="white"/>
<path d="M220.817 728.161L209.825 722.91L200.026 675.2L205.347 669.352L220.817 728.161Z" fill="#ED3456"/>
<path d="M220.817 728.161L235.409 719.626L222.907 680.327L205.347 669.352L220.817 728.161Z" fill="#ED3456"/>
<path opacity="0.2" d="M220.817 728.161L235.409 719.626L222.907 680.327L205.347 669.352L220.817 728.161Z" fill="black"/>
<path d="M460.072 736.835H458.861C456.532 736.772 454.324 735.787 452.722 734.096C451.119 732.405 450.255 730.147 450.318 727.818C450.381 725.49 451.366 723.281 453.057 721.679C454.748 720.077 457.006 719.212 459.335 719.275C472.856 719.714 501.479 711.408 517.845 695.534C518.833 694.565 520.036 693.843 521.357 693.427C549.084 685.103 559.392 701.908 559.813 702.628L544.711 711.566C544.765 711.678 544.829 711.784 544.905 711.882C544.747 711.654 540.813 706.614 528.31 709.705C507.783 728.424 476.28 736.835 460.072 736.835Z" fill="#263238"/>
<path d="M459.002 748.495L427.025 746.493L424.514 687.527L467.483 689.125L459.002 748.495Z" fill="#ED3456"/>
<path d="M459.001 748.495L466.482 741.05L471.117 704.296L467.482 689.125L459.001 748.495Z" fill="#ED3456"/>
<path opacity="0.2" d="M459.001 748.495L466.482 741.05L471.117 704.296L467.482 689.125L459.001 748.495Z" fill="black"/>
<path d="M644.294 726.176C643.146 726.175 642.03 725.799 641.116 725.105C622.854 711.233 598.182 686.596 588.717 662.837C588.575 662.494 588.475 662.134 588.418 661.766C583.8 634.302 579.393 576.512 579.199 574.072C579.147 573.38 579.232 572.685 579.449 572.026C579.666 571.367 580.01 570.757 580.463 570.231C581.377 569.169 582.675 568.513 584.072 568.408C585.469 568.304 586.851 568.758 587.913 569.672C588.975 570.586 589.631 571.884 589.735 573.281C589.735 573.861 594.248 632.213 598.744 659.448C608.191 682.557 633.864 706.281 647.525 716.711C648.405 717.379 649.053 718.306 649.377 719.361C649.701 720.417 649.686 721.547 649.332 722.594C648.979 723.64 648.306 724.548 647.408 725.191C646.511 725.834 645.434 726.179 644.329 726.176H644.294Z" fill="#263238"/>
<path d="M668.65 728.828C664.576 728.828 659.958 726.984 654.918 723.349C653.787 722.529 653.027 721.294 652.806 719.914C652.586 718.534 652.922 717.123 653.742 715.991C654.562 714.86 655.797 714.1 657.177 713.879C658.557 713.659 659.968 713.995 661.1 714.815C665.454 717.958 667.825 718.327 668.65 718.327C670.047 718.327 671.387 718.882 672.375 719.87C673.363 720.858 673.918 722.198 673.918 723.595C673.918 724.992 673.363 726.332 672.375 727.32C671.387 728.308 670.047 728.863 668.65 728.863V728.828Z" fill="#263238"/>
<path d="M656.393 723.191C662.03 706.456 685.139 709.758 693.111 712.251C699.921 714.228 706.453 717.06 712.55 720.68C716.852 723.49 716.922 728.213 711.18 730.9C704.156 734.201 686.315 731.269 686.315 731.269C695.517 735.29 686.315 741.805 670.143 735.413C664.892 733.341 654.409 729.337 656.393 723.191Z" fill="#ED3456"/>
<path d="M600.307 581.236C598.217 595.46 586.434 605.943 576.847 604.538C567.259 603.133 566.873 590.49 568.962 576.196C571.052 561.902 574.845 551.612 584.433 553.017C594.02 554.422 602.396 567.065 600.307 581.236Z" fill="#263238"/>
<path d="M368.549 524.517C369.345 524.517 369.989 523.873 369.989 523.077C369.989 522.282 369.345 521.637 368.549 521.637C367.754 521.637 367.109 522.282 367.109 523.077C367.109 523.873 367.754 524.517 368.549 524.517Z" fill="#263238"/>
<path d="M383.177 533.438C383.177 533.723 383.092 534.001 382.934 534.238C382.776 534.475 382.551 534.659 382.288 534.768C382.025 534.877 381.735 534.906 381.456 534.85C381.177 534.794 380.92 534.657 380.719 534.456C380.517 534.255 380.38 533.998 380.325 533.719C380.269 533.439 380.297 533.15 380.406 532.887C380.515 532.624 380.7 532.399 380.937 532.241C381.174 532.082 381.452 531.998 381.737 531.998C382.119 531.998 382.485 532.15 382.755 532.42C383.025 532.69 383.177 533.056 383.177 533.438Z" fill="#263238"/>
<path d="M384.793 703.594C384.793 703.879 384.708 704.157 384.55 704.394C384.392 704.631 384.167 704.815 383.904 704.924C383.641 705.033 383.351 705.062 383.072 705.006C382.793 704.951 382.536 704.814 382.335 704.612C382.133 704.411 381.996 704.154 381.941 703.875C381.885 703.596 381.914 703.306 382.023 703.043C382.132 702.78 382.316 702.555 382.553 702.397C382.79 702.239 383.068 702.154 383.353 702.154C383.735 702.154 384.101 702.306 384.371 702.576C384.641 702.846 384.793 703.212 384.793 703.594Z" fill="#263238"/>
<path d="M397.98 713.972C397.98 714.257 397.896 714.535 397.738 714.772C397.58 715.009 397.355 715.193 397.092 715.302C396.828 715.411 396.539 715.44 396.26 715.384C395.98 715.329 395.724 715.192 395.522 714.99C395.321 714.789 395.184 714.532 395.128 714.253C395.073 713.974 395.101 713.684 395.21 713.421C395.319 713.158 395.504 712.933 395.741 712.775C395.977 712.617 396.256 712.532 396.541 712.532C396.922 712.532 397.289 712.684 397.559 712.954C397.829 713.224 397.98 713.59 397.98 713.972Z" fill="#263238"/>
<path d="M144.888 731.234C142.36 731.115 139.89 730.431 137.663 729.23C135.435 728.03 133.505 726.344 132.016 724.297C131.943 724.203 131.89 724.095 131.86 723.98C131.83 723.864 131.824 723.744 131.842 723.627C131.86 723.509 131.902 723.396 131.965 723.295C132.028 723.194 132.111 723.106 132.209 723.038C132.307 722.97 132.417 722.923 132.534 722.899C132.651 722.875 132.771 722.876 132.888 722.9C133.005 722.924 133.115 722.971 133.213 723.04C133.31 723.108 133.393 723.195 133.456 723.296C136.74 728.038 143.992 730.549 147.153 729.056C147.469 728.922 147.752 728.718 147.978 728.459C146.381 727.756 144.982 726.671 143.904 725.299C142.826 723.927 142.102 722.31 141.797 720.592C141.393 718.362 141.077 715.324 142.903 714.938C145.432 714.376 148.733 720.469 149.927 725.088C150.144 725.852 150.221 726.649 150.156 727.441C151.168 727.742 152.234 727.826 153.281 727.686C153.753 727.65 154.213 727.516 154.63 727.292C155.047 727.068 155.413 726.76 155.705 726.387C154.549 725.515 153.59 724.409 152.891 723.141C152.192 721.873 151.769 720.472 151.648 719.029C150.981 714.218 151.49 713.393 152.017 712.971C152.188 712.84 152.391 712.759 152.605 712.738C152.819 712.716 153.035 712.754 153.229 712.848C155.108 713.638 157.373 720.452 157.812 724.315C157.864 724.717 157.864 725.124 157.812 725.527C158.569 725.818 159.371 725.972 160.182 725.983C161.671 726.041 163.144 725.656 164.414 724.877C164.168 724.719 163.94 724.543 163.712 724.368C161.956 722.805 161.148 720.311 161.464 716.764C161.71 714.007 162.325 712.497 163.431 712.023C163.788 711.88 164.179 711.843 164.556 711.918C164.933 711.993 165.28 712.176 165.556 712.444C166.741 713.753 167.627 715.305 168.152 716.991C168.676 718.677 168.827 720.457 168.594 722.208C168.441 722.937 168.136 723.625 167.698 724.227C170.929 724.789 175.46 723.876 179.375 722.91C179.491 722.882 179.61 722.878 179.727 722.896C179.845 722.915 179.957 722.956 180.058 723.018C180.159 723.08 180.247 723.162 180.317 723.257C180.386 723.353 180.436 723.462 180.464 723.577C180.492 723.693 180.497 723.812 180.478 723.929C180.459 724.047 180.418 724.159 180.356 724.26C180.294 724.361 180.213 724.449 180.117 724.519C180.021 724.588 179.912 724.638 179.797 724.666C175.038 725.843 169.911 726.808 166.293 725.755C164.527 727.097 162.365 727.814 160.147 727.792C159.163 727.779 158.188 727.595 157.267 727.247C156.859 727.879 156.311 728.409 155.665 728.795C155.02 729.182 154.294 729.415 153.545 729.478C152.225 729.647 150.884 729.534 149.611 729.144C149.202 729.834 148.588 730.38 147.855 730.707C146.913 731.087 145.903 731.266 144.888 731.234ZM143.377 716.694C143.135 717.888 143.183 719.122 143.518 720.294C143.766 721.698 144.348 723.021 145.216 724.152C146.085 725.284 147.213 726.189 148.505 726.791C148.48 726.375 148.41 725.962 148.294 725.562C146.925 720.54 144.291 717.08 143.377 716.694ZM153.158 715.166C153.17 716.378 153.27 717.587 153.457 718.783C153.65 720.924 154.596 722.928 156.126 724.438C155.694 721.196 154.689 718.056 153.158 715.166ZM164.204 713.638C164.204 713.638 163.536 713.972 163.29 716.905C163.045 719.837 163.554 721.856 164.924 723.033C165.248 723.296 165.601 723.52 165.977 723.7C166.439 723.206 166.766 722.601 166.925 721.944C167.238 719.18 166.491 716.4 164.836 714.165C164.467 713.709 164.256 713.638 164.204 713.638Z" fill="#263238"/>
<path d="M401.896 744.509L406.655 736.256L401.896 728.002H396.804L399.684 736.256L396.804 744.509H401.896Z" fill="#263238"/>
<path d="M397.137 740.558C396.55 740.595 395.962 740.512 395.408 740.313C394.855 740.115 394.348 739.805 393.919 739.402C393.49 739 393.148 738.514 392.914 737.974C392.681 737.434 392.56 736.853 392.56 736.264C392.56 735.676 392.681 735.094 392.914 734.555C393.148 734.015 393.49 733.529 393.919 733.127C394.348 732.724 394.855 732.414 395.408 732.215C395.962 732.017 396.55 731.933 397.137 731.971L389.059 730.356L386.899 736.888L390.517 742.402L397.137 740.558Z" fill="#263238"/>
<path d="M397.84 728.002H388.305L383.546 736.256L388.305 744.509H397.84L402.599 736.256L397.84 728.002ZM393.081 740.558C392.229 740.561 391.396 740.312 390.686 739.841C389.976 739.371 389.422 738.7 389.094 737.914C388.765 737.128 388.678 736.263 388.842 735.427C389.006 734.591 389.414 733.823 390.015 733.22C390.616 732.616 391.383 732.205 392.218 732.037C393.053 731.87 393.919 731.954 394.706 732.279C395.493 732.604 396.166 733.156 396.639 733.864C397.113 734.572 397.366 735.404 397.366 736.256C397.366 737.394 396.915 738.485 396.112 739.292C395.309 740.098 394.219 740.553 393.081 740.558Z" fill="#ED3456"/>
<path d="M733.815 727.441L730.285 721.312L733.815 715.184H737.59L735.465 721.312L737.59 727.441H733.815Z" fill="#ED3456"/>
<path d="M737.345 724.508C737.783 724.541 738.224 724.482 738.639 724.337C739.053 724.192 739.434 723.962 739.756 723.663C740.078 723.364 740.335 723.001 740.511 722.598C740.687 722.195 740.777 721.761 740.777 721.321C740.777 720.881 740.687 720.446 740.511 720.043C740.335 719.64 740.078 719.278 739.756 718.979C739.434 718.68 739.053 718.45 738.639 718.305C738.224 718.159 737.783 718.101 737.345 718.134L743.35 716.94L744.948 721.786L742.279 725.878L737.345 724.508Z" fill="#ED3456"/>
<path d="M736.835 715.184H743.859L747.371 721.312L743.859 727.441H736.835L733.323 721.312L736.835 715.184ZM740.347 724.508C740.98 724.511 741.6 724.327 742.128 723.978C742.655 723.629 743.068 723.131 743.312 722.547C743.557 721.964 743.623 721.321 743.501 720.699C743.38 720.078 743.077 719.507 742.631 719.059C742.185 718.61 741.615 718.304 740.995 718.179C740.374 718.054 739.731 718.116 739.146 718.358C738.561 718.599 738.061 719.009 737.709 719.535C737.357 720.061 737.169 720.679 737.169 721.312C737.167 721.732 737.248 722.149 737.407 722.538C737.567 722.927 737.803 723.28 738.1 723.577C738.397 723.874 738.75 724.11 739.139 724.269C739.528 724.429 739.944 724.51 740.365 724.508H740.347Z" fill="#263238"/>
<path d="M602.308 735.588H610.245C611.238 735.584 612.19 735.186 612.891 734.482C613.592 733.777 613.985 732.824 613.985 731.831C613.985 730.837 613.592 729.884 612.891 729.18C612.19 728.475 611.238 728.077 610.245 728.073H602.308C601.311 728.073 600.355 728.469 599.65 729.173C598.946 729.878 598.55 730.834 598.55 731.831C598.55 732.827 598.946 733.783 599.65 734.488C600.355 735.192 601.311 735.588 602.308 735.588Z" fill="#263238"/>
<path d="M589.542 728.494C590.279 727.154 591.391 726.06 592.743 725.345C594.094 724.63 595.625 724.326 597.147 724.471C598.669 724.616 600.115 725.203 601.307 726.16C602.499 727.117 603.385 728.402 603.856 729.856C604.327 731.311 604.362 732.871 603.956 734.345C603.551 735.819 602.722 737.142 601.574 738.151C600.426 739.16 599.007 739.811 597.493 740.023C595.979 740.236 594.436 740 593.054 739.346C591.155 738.367 589.72 736.677 589.062 734.644C588.404 732.611 588.577 730.4 589.542 728.494Z" fill="#ED3456"/>
<path d="M591.683 739.344L593.859 740.37L601.422 724.328L599.246 723.302L591.683 739.344Z" fill="#263238"/>
</svg>
