<svg width="44" height="44" viewBox="0 0 44 44" fill="none" xmlns="http://www.w3.org/2000/svg">
<path d="M23.4954 37.7808C30.893 34.0087 36.6663 27.7619 36.6663 20.1667C36.6663 12.0665 30.0999 5.5 21.9997 5.5C13.8995 5.5 7.33301 12.0665 7.33301 20.1667C7.33301 27.7619 13.1063 34.0087 20.5039 37.7808C21.4438 38.26 22.5556 38.26 23.4954 37.7808Z" stroke="white" stroke-width="1.5" stroke-linecap="round" stroke-linejoin="round"/>
<path d="M27.4997 20.1667C27.4997 23.2042 25.0372 25.6667 21.9997 25.6667C18.9621 25.6667 16.4997 23.2042 16.4997 20.1667C16.4997 17.1291 18.9621 14.6667 21.9997 14.6667C25.0372 14.6667 27.4997 17.1291 27.4997 20.1667Z" stroke="white" stroke-width="1.5" stroke-linecap="round" stroke-linejoin="round"/>
</svg>
