<svg width="164" height="24" viewBox="0 0 164 24" fill="none" xmlns="http://www.w3.org/2000/svg">
<g clip-path="url(#clip0_1_13427)">
<mask id="mask0_1_13427" style="mask-type:luminance" maskUnits="userSpaceOnUse" x="0" y="6" width="41" height="13">
<path d="M40.5031 6H0.599609V18.1581H40.5031V6Z" fill="white"/>
</mask>
<g mask="url(#mask0_1_13427)">
<path fill-rule="evenodd" clip-rule="evenodd" d="M14.6484 17.9788L16.6768 6.19531H19.9134L17.885 17.9788H14.6484Z" fill="#00589B"/>
<path fill-rule="evenodd" clip-rule="evenodd" d="M29.6112 6.4882C28.6813 6.16199 27.7021 5.99655 26.716 5.99905C23.5104 5.99905 21.2692 7.59207 21.2536 9.88356C21.2381 11.5757 22.8564 12.5276 24.0824 13.0872C25.3083 13.6469 25.7672 14.0281 25.7517 14.5503C25.7517 15.3457 24.7541 15.7026 23.8208 15.7026C22.7726 15.7327 21.7317 15.5215 20.7792 15.0857L20.3536 14.8896L19.9102 17.5336C20.6617 17.8729 22.0517 18.1505 23.5082 18.166C26.9089 18.166 29.1013 16.5906 29.1346 14.136C29.1501 12.803 28.2833 11.7784 26.4189 10.9324C25.2906 10.3969 24.6033 10.04 24.6033 9.48696C24.6033 8.98239 25.193 8.4624 26.4522 8.4624C27.2826 8.44156 28.1079 8.59705 28.873 8.91849L29.1656 9.04849L29.609 6.49701L29.6112 6.4882Z" fill="#00589B"/>
<path fill-rule="evenodd" clip-rule="evenodd" d="M37.9022 6.21045H35.3994C34.6302 6.21045 34.0427 6.43078 33.6992 7.18653L28.9062 17.9918H32.2915C32.2915 17.9918 32.8478 16.5309 32.9786 16.2291H37.1175C37.215 16.6367 37.5099 17.9918 37.5099 17.9918H40.5027L37.9022 6.21045ZM33.9119 13.8054L35.2043 10.5224C35.1711 10.5555 35.466 9.83937 35.6278 9.4009L35.8494 10.4078C35.8494 10.4078 36.4724 13.2215 36.6032 13.8054H33.9119Z" fill="#00589B"/>
<path fill-rule="evenodd" clip-rule="evenodd" d="M11.9475 6.21045L8.77517 14.2461L8.45816 12.6156C7.85961 10.7207 6.01962 8.69803 3.9668 7.67347L6.86202 17.9785H10.2804L15.3659 6.21045H11.9475Z" fill="#00589B"/>
<path fill-rule="evenodd" clip-rule="evenodd" d="M5.84913 6.19509H0.632862L0.599609 6.45508C4.63873 7.42896 7.33665 9.78655 8.45838 12.6157L7.3034 7.19541C7.10831 6.44847 6.55188 6.22153 5.84913 6.18848V6.19509Z" fill="#EFA841"/>
</g>
<path d="M66.5556 12.5601C68.35 12.5601 69.8047 11.1055 69.8047 9.31106C69.8047 7.51666 68.35 6.06201 66.5556 6.06201C64.7612 6.06201 63.3066 7.51666 63.3066 9.31106C63.3066 11.1055 64.7612 12.5601 66.5556 12.5601Z" fill="#EF9122"/>
<path d="M63.3066 9.31106C63.3066 7.49909 64.7437 6.06201 66.5556 6.06201C68.3676 6.06201 69.8047 7.49909 69.8047 9.31106C69.8047 11.123 68.3676 12.5601 66.5556 12.5601" fill="#F26E21"/>
<path d="M64.3066 6.99924C65.5563 5.7496 67.6182 5.7496 68.8678 6.99924C70.1174 8.24887 70.1174 10.3108 68.8678 11.5604" fill="#F44500"/>
<path d="M47.7495 6.25049H46V12.3737H47.7495C48.6867 12.3737 49.374 12.1238 49.9364 11.6864C50.6237 11.1241 51.061 10.2493 51.061 9.31209C51.061 7.50012 49.7489 6.25049 47.7495 6.25049ZM49.1866 10.8741C48.8117 11.1865 48.3118 11.374 47.562 11.374H47.1872V7.31268H47.4996C48.2493 7.31268 48.7492 7.43764 49.1241 7.81253C49.5615 8.18742 49.8114 8.74976 49.8114 9.31209C49.8739 9.87443 49.6239 10.4992 49.1866 10.8741Z" fill="#595A5B"/>
<path d="M51.623 6.25049H52.8102V12.3737H51.623V6.25049Z" fill="#595A5B"/>
<path d="M55.8098 8.62429C55.06 8.37436 54.8725 8.18692 54.8725 7.87451C54.8725 7.49962 55.2474 7.18721 55.7473 7.18721C56.1222 7.18721 56.4346 7.31217 56.747 7.68706L57.3718 6.8748C56.872 6.43743 56.2471 6.1875 55.5598 6.1875C54.4977 6.1875 53.6229 6.93728 53.6229 7.93699C53.6229 8.81174 53.9978 9.18663 55.1225 9.624C55.6223 9.81144 55.8098 9.87392 55.9347 9.99889C56.1847 10.1239 56.3096 10.3738 56.3096 10.6237C56.3096 11.1236 55.9347 11.4985 55.3724 11.4985C54.8101 11.4985 54.3102 11.186 54.0603 10.6862L53.3105 11.436C53.8728 12.2482 54.5601 12.6231 55.4349 12.6231C56.6845 12.6231 57.5593 11.8109 57.5593 10.6237C57.5593 9.56152 57.1844 9.12414 55.8098 8.62429Z" fill="#595A5B"/>
<path d="M57.9336 9.31153C57.9336 11.1235 59.3707 12.4981 61.1826 12.4981C61.6825 12.4981 62.1199 12.3731 62.6822 12.1232V10.6861C62.1823 11.186 61.745 11.3734 61.2451 11.3734C60.058 11.3734 59.1832 10.4987 59.1832 9.24905C59.1832 8.0619 60.058 7.12467 61.1826 7.12467C61.745 7.12467 62.1823 7.31212 62.6822 7.81197V6.37489C62.1823 6.12496 61.745 6 61.1826 6C59.4331 6.12496 57.9336 7.56204 57.9336 9.31153Z" fill="#3B3D3F"/>
<path d="M72.4932 10.3743L70.8687 6.25049H69.5566L72.1183 12.5611H72.8056L75.4923 6.25049H74.1802L72.4932 10.3743Z" fill="black"/>
<path d="M75.9902 12.3737H79.4267V11.374H77.2398V9.68699H79.3642V8.6248H77.2398V7.31268H79.4267V6.25049H75.9902V12.3737Z" fill="black"/>
<path d="M82.802 9.81195C83.7392 9.6245 84.2391 8.99969 84.2391 8.06246C84.2391 6.93779 83.4268 6.25049 82.0522 6.25049H80.2402V12.3737H81.4274V9.93691H81.6148L83.3018 12.3737H84.7389L82.802 9.81195ZM81.8023 9.06217H81.4274V7.18771H81.8023C82.5521 7.18771 82.9894 7.50012 82.9894 8.12494C82.9894 8.74976 82.5521 9.06217 81.8023 9.06217Z" fill="#595A5B"/>
<path d="M47.7495 6.25H46V12.3732H47.7495C48.6867 12.3732 49.374 12.1233 49.9364 11.6859C50.6237 11.1236 51.061 10.2488 51.061 9.31161C51.061 7.49964 49.7489 6.25 47.7495 6.25ZM49.1866 10.8737C48.8117 11.1861 48.3118 11.3735 47.562 11.3735H47.1872V7.31219H47.4996C48.2493 7.31219 48.7492 7.43715 49.1241 7.81204C49.5615 8.18693 49.8114 8.74927 49.8114 9.31161C49.8739 9.87394 49.6239 10.4988 49.1866 10.8737Z" fill="#595A5B"/>
<path d="M51.623 6.25H52.8102V12.3732H51.623V6.25Z" fill="#595A5B"/>
<path d="M55.8098 8.62478C55.06 8.37485 54.8725 8.18741 54.8725 7.875C54.8725 7.50011 55.2474 7.1877 55.7473 7.1877C56.1222 7.1877 56.4346 7.31266 56.747 7.68755L57.3718 6.87529C56.872 6.43792 56.2471 6.18799 55.5598 6.18799C54.4977 6.18799 53.6229 6.93777 53.6229 7.93748C53.6229 8.81222 53.9978 9.18711 55.1225 9.62449C55.6223 9.81193 55.8098 9.87441 55.9347 9.99938C56.1847 10.1243 56.3096 10.3743 56.3096 10.6242C56.3096 11.124 55.9347 11.4989 55.3724 11.4989C54.8101 11.4989 54.3102 11.1865 54.0603 10.6867L53.3105 11.4365C53.8728 12.2487 54.5601 12.6236 55.4349 12.6236C56.6845 12.6236 57.5593 11.8113 57.5593 10.6242C57.5593 9.562 57.1844 9.12463 55.8098 8.62478Z" fill="#595A5B"/>
<path d="M61.2451 12.4988C61.745 12.4988 62.1824 12.3739 62.7447 12.124V10.6869C62.2449 11.1867 61.8075 11.3742 61.3076 11.3742C60.1205 11.3742 59.2457 10.4994 59.2457 9.2498C59.2457 8.62498 59.4957 8.12512 59.8705 7.68775L59.0583 6.87549C58.4335 7.43782 57.9961 8.31257 57.9961 9.2498C57.9336 11.1242 59.3707 12.4988 61.2451 12.4988Z" fill="#595A5B"/>
<path d="M82.802 9.81146C83.7392 9.62402 84.2391 8.9992 84.2391 8.06197C84.2391 6.9373 83.4268 6.25 82.0522 6.25H80.2402V12.3732H81.4274V9.93642H81.6148L83.3018 12.3732H84.7389L82.802 9.81146ZM81.8023 9.06168H81.4274V7.18723H81.8023C82.5521 7.18723 82.9894 7.49964 82.9894 8.12445C82.9894 8.74927 82.5521 9.06168 81.8023 9.06168Z" fill="black"/>
<path d="M54.8105 18.0586V14.6221L57.1848 17.0589V14.8095H57.6846V18.246L55.3103 15.8092V18.0586H54.8105Z" fill="#F26E21"/>
<path d="M60.1831 15.3089H58.8709V16.0587H60.1206V16.5586H58.8709V17.6208H60.1831V18.0581H58.3711V14.8091H60.1831V15.3089Z" fill="#F26E21"/>
<path d="M61.7457 15.309V18.0582H61.2459V15.309H60.4961V14.8716H62.4955V15.309H61.7457Z" fill="#F26E21"/>
<path d="M63.2459 14.8725L64.0582 17.0594L64.9329 14.7476L65.7452 17.0594L66.6199 14.8725H67.2448L65.8077 18.309L64.9954 15.9972L64.1207 18.309L62.7461 14.8725H63.2459Z" fill="#F26E21"/>
<path d="M67.3066 16.4346C67.3118 15.9888 67.4912 15.5627 67.8065 15.2474C68.1217 14.9322 68.5478 14.7528 68.9936 14.7476C69.4394 14.7528 69.8655 14.9322 70.1808 15.2474C70.496 15.5627 70.6754 15.9888 70.6806 16.4346C70.6754 16.8804 70.496 17.3065 70.1808 17.6217C69.8655 17.937 69.4394 18.1164 68.9936 18.1216C68.5562 18.1216 68.1813 17.9966 67.8689 17.6842C67.494 17.3718 67.3066 16.9969 67.3066 16.4346ZM67.8065 16.4346C67.8065 16.8095 67.9314 17.0594 68.1813 17.3093C68.4313 17.5592 68.6812 17.6842 68.9936 17.6842C69.306 17.6842 69.6184 17.5592 69.8684 17.3093C70.1183 17.0594 70.2432 16.8095 70.2432 16.4346C70.2432 16.0597 70.1183 15.8098 69.8684 15.5598C69.6184 15.3099 69.3685 15.1849 68.9936 15.1849C68.6812 15.1849 68.3688 15.3099 68.1189 15.5598C67.9314 15.8098 67.8065 16.1222 67.8065 16.4346Z" fill="#F26E21"/>
<path d="M72.4293 16.6835L73.4291 18.0581H72.8042L71.867 16.746H71.8045V18.0581H71.3047V14.8091H71.867C72.3044 14.8091 72.6168 14.8716 72.8042 15.059C72.9917 15.2465 73.1166 15.4964 73.1166 15.7463C73.1166 15.9962 73.0542 16.1837 72.9292 16.3086C72.8042 16.5586 72.6168 16.6835 72.4293 16.6835ZM71.8045 16.3086H71.9295C72.3669 16.3086 72.6168 16.1212 72.6168 15.8088C72.6168 15.4964 72.3669 15.3089 71.9295 15.3089H71.742V16.3086H71.8045Z" fill="#F26E21"/>
<path d="M74.3671 16.1222L75.6167 14.81H76.2415L74.8045 16.2471L76.2415 17.9966H75.6167L74.4296 16.5595L74.3046 16.6845V17.9966H73.8047V14.7476H74.3046V16.1222H74.3671Z" fill="#F26E21"/>
<path d="M78.3645 11.3738H77.2398V10.2491L75.9902 8.99951V12.3735H79.3642L78.3645 11.3738Z" fill="#3B3D3F"/>
<path d="M73.8678 6.87628L72.4932 10.3753L70.8687 6.25146H69.5566L72.1183 12.5621H72.8056L74.805 7.81351L73.8678 6.87628Z" fill="#3B3D3F"/>
<mask id="mask1_1_13427" style="mask-type:luminance" maskUnits="userSpaceOnUse" x="90" y="6" width="44" height="12">
<path d="M134 6H90V17.9628H134V6Z" fill="white"/>
</mask>
<g mask="url(#mask1_1_13427)">
<path d="M98.0916 14.745L98.0563 14.715C98.0563 14.5094 98.0623 14.303 98.0493 14.0983C98.0401 13.9551 98.0785 13.9096 98.2295 13.911C99.1232 13.9188 100.017 13.911 100.911 13.9177C101.039 13.9177 101.087 13.8902 101.081 13.7529C101.07 13.4594 101.073 13.1652 101.081 12.8709C101.083 12.7623 101.049 12.7316 100.94 12.7319C99.5585 12.7352 98.1771 12.7352 96.7958 12.7319C96.6744 12.7319 96.6501 12.7722 96.6504 12.8829C96.6532 14.5293 96.6532 16.1758 96.6504 17.8222C96.6504 17.9315 96.6807 17.9598 96.7883 17.9594C98.164 17.9559 99.54 17.9559 100.916 17.9594C101.055 17.9594 101.084 17.9072 101.081 17.783C101.074 17.5071 101.069 17.2302 101.081 16.9546C101.089 16.7976 101.043 16.7595 100.887 16.7609C99.9939 16.769 99.1003 16.7627 98.2063 16.7676C98.0852 16.7676 98.0401 16.7415 98.0493 16.6142C98.0632 16.4559 98.0632 16.2968 98.0493 16.1386C98.0309 15.9647 98.093 15.9269 98.2609 15.9269C99.1133 15.9361 99.9657 15.9269 100.818 15.9347C100.968 15.9347 101.006 15.8892 101.001 15.7459C100.99 15.47 100.989 15.1931 101.001 14.9175C101.007 14.7736 100.957 14.7447 100.824 14.7454C99.9131 14.75 99.0018 14.7461 98.0916 14.745Z" fill="#FEFEFE"/>
<path d="M129.286 8.087H129.371C129.614 8.45497 129.869 8.81483 130.112 9.1828C130.541 9.83642 130.974 10.4871 131.411 11.1349C131.43 11.167 131.458 11.1931 131.492 11.21C131.525 11.227 131.562 11.2342 131.6 11.2308C132.076 11.2273 132.552 11.2255 133.028 11.2308C133.138 11.2308 133.165 11.1987 133.165 11.0918C133.162 9.44046 133.162 7.78912 133.165 6.13777C133.165 6.02593 133.13 6.00018 133.024 6.00229C132.671 6.00829 132.318 6.01182 131.966 6.00229C131.822 5.99806 131.778 6.03193 131.779 6.18258C131.786 7.10515 131.783 8.02773 131.783 8.9503V9.1454C131.733 9.11787 131.692 9.07722 131.664 9.02792C131.015 8.05454 130.363 7.08328 129.717 6.10849C129.669 6.03793 129.627 6.00265 129.539 6.00265C129.033 6.00688 128.528 6.00688 128.022 6.00265C127.918 6.00265 127.896 6.03793 127.896 6.13318C127.898 7.79064 127.898 9.44787 127.896 11.1049C127.896 11.2079 127.931 11.2322 128.026 11.2308C128.385 11.2255 128.744 11.2213 129.102 11.2308C129.249 11.2358 129.286 11.1955 129.285 11.0474C129.279 10.0613 129.285 9.07414 129.286 8.087Z" fill="#FEFEFE"/>
<path d="M102.025 7.59362C102.028 7.66418 102.033 7.73474 102.033 7.8053C102.033 8.89228 102.035 9.97926 102.03 11.0662C102.03 11.1978 102.062 11.2356 102.195 11.2321C102.553 11.2225 102.912 11.225 103.271 11.2321C103.379 11.2321 103.409 11.1993 103.409 11.0909C103.406 9.43983 103.406 7.7886 103.409 6.13726C103.409 6.04412 103.391 6.00178 103.284 6.00249C102.626 6.00672 101.967 6.00672 101.309 6.00249C101.227 6.00249 101.205 6.03283 101.182 6.10092C101.05 6.48018 100.914 6.85768 100.777 7.23517C100.536 7.90291 100.295 8.57041 100.052 9.23768C99.9926 9.22109 99.9983 9.17347 99.9849 9.13642C99.622 8.13705 99.2591 7.13745 98.8961 6.13761C98.864 6.04835 98.8284 5.99896 98.7152 6.00002C98.0748 6.00743 97.4341 6.00566 96.7934 6.00002C96.6897 6.00002 96.6523 6.02365 96.6523 6.13585C96.6556 7.78696 96.6556 9.43807 96.6523 11.0892C96.6523 11.1975 96.6844 11.2303 96.7934 11.2282C97.1462 11.2225 97.499 11.2183 97.8518 11.2299C98.0011 11.2349 98.0349 11.1901 98.0342 11.0451C98.0286 9.89353 98.0321 8.74164 98.0342 7.59009H98.0498L98.0642 7.5841C98.3055 8.23007 98.5638 8.87076 98.7836 9.5245C98.9487 10.016 99.1579 10.4908 99.3128 10.9858C99.3396 11.0715 99.34 11.2388 99.5322 11.2303C99.8663 11.2155 100.203 11.2218 100.537 11.2303C100.633 11.2324 100.669 11.1911 100.698 11.1114C101.016 10.2322 101.331 9.35128 101.661 8.47598C101.773 8.17927 101.848 7.86669 102.013 7.59009L102.022 7.59574L102.025 7.59362Z" fill="#FEFEFE"/>
<path d="M116.899 16.0738C117.07 16.0262 117.236 15.9635 117.396 15.8864C117.858 15.6511 118.156 15.2814 118.254 14.7772C118.353 14.2639 118.283 13.7724 117.936 13.3512C117.654 13.0107 117.276 12.7722 116.859 12.755C115.751 12.7094 114.639 12.7377 113.53 12.7324C113.424 12.7324 113.405 12.7737 113.406 12.8671C113.408 14.5176 113.408 16.1681 113.406 17.8187C113.406 17.9274 113.436 17.9598 113.545 17.9574C113.915 17.9514 114.286 17.95 114.655 17.9574C114.779 17.9598 114.814 17.9242 114.812 17.8004C114.806 17.2895 114.809 16.7772 114.81 16.2671C114.81 16.2226 114.79 16.1701 114.834 16.1351C114.901 16.0815 115.32 16.1436 115.38 16.2131C115.798 16.6989 116.227 17.1766 116.629 17.6748C116.802 17.8896 116.986 17.9768 117.264 17.9609C117.705 17.9358 118.148 17.9542 118.64 17.9542C118.043 17.3128 117.482 16.7053 116.899 16.0738Z" fill="#FEFEFE"/>
<path d="M119.033 15.3508C119.033 16.1679 119.033 16.9848 119.033 17.8017C119.033 17.8878 119.025 17.958 119.154 17.9576C120.548 17.9536 121.941 17.9536 123.334 17.9576C123.427 17.9576 123.454 17.9269 123.453 17.8359C123.448 17.548 123.44 17.2594 123.455 16.9723C123.464 16.8033 123.42 16.7581 123.246 16.7606C122.359 16.7705 121.471 16.7634 120.583 16.7676C120.469 16.7676 120.411 16.7514 120.421 16.618C120.434 16.4537 120.434 16.2885 120.421 16.1241C120.408 15.9717 120.451 15.9258 120.611 15.9276C121.481 15.9364 122.351 15.9297 123.222 15.9343C123.343 15.9343 123.386 15.9022 123.382 15.777C123.373 15.4947 123.37 15.2125 123.382 14.9302C123.388 14.7845 123.346 14.7436 123.2 14.745C122.324 14.7521 121.448 14.745 120.572 14.7507C120.462 14.7507 120.414 14.7288 120.422 14.6074C120.434 14.4373 120.434 14.2667 120.422 14.0966C120.411 13.9505 120.457 13.9099 120.605 13.9114C121.498 13.9184 122.392 13.9114 123.286 13.9174C123.411 13.9174 123.463 13.8962 123.457 13.7558C123.445 13.4682 123.444 13.1796 123.457 12.8921C123.463 12.751 123.41 12.7316 123.286 12.7319C121.922 12.7362 120.558 12.7362 119.194 12.7319C119.057 12.7319 119.03 12.7739 119.031 12.9009C119.035 13.717 119.033 14.534 119.033 15.3508Z" fill="#FEFEFE"/>
<path d="M93.1806 6.00578C92.9336 6.00578 92.6867 6.01037 92.4397 6.00366C92.3289 6.00084 92.258 6.02095 92.2111 6.13808C92.1134 6.38151 91.9941 6.61648 91.8886 6.85674C91.732 7.21342 91.5831 7.57328 91.425 7.92925C91.267 8.28523 91.0987 8.63486 90.9417 8.99083C90.7819 9.35246 90.6348 9.71937 90.4753 10.0806C90.3303 10.4105 90.1751 10.7358 90.0269 11.0642C89.9782 11.1726 89.9764 11.2385 90.1387 11.2336C90.5381 11.2216 90.9382 11.2184 91.3383 11.2354C91.491 11.2417 91.5425 11.1715 91.5884 11.059C91.6907 10.8053 91.7973 10.553 91.8975 10.2987C91.9327 10.2048 91.9867 10.1692 92.0929 10.1699C92.8098 10.1752 93.5267 10.172 94.245 10.1738C94.2976 10.1738 94.3593 10.1498 94.3918 10.2306C94.5064 10.5163 94.6387 10.7951 94.7414 11.0854C94.7795 11.1913 94.8172 11.2339 94.9291 11.2329C95.364 11.2279 95.7991 11.2279 96.2344 11.2329C96.359 11.2329 96.3861 11.2131 96.33 11.0893C96.0432 10.4588 95.7631 9.82556 95.4833 9.19122C95.0313 8.1634 94.5813 7.13463 94.1335 6.10492C94.1003 6.02907 94.0569 6.00366 93.9755 6.00507C93.7098 6.00896 93.4452 6.00578 93.1806 6.00578Z" fill="#FEFEFE"/>
<path d="M127.63 11.2278C127.373 10.6535 127.125 10.1031 126.881 9.55026C126.38 8.41047 125.88 7.26975 125.382 6.12808C125.342 6.03494 125.289 6.00002 125.184 6.00108C124.679 6.00743 124.173 6.01095 123.667 6.00108C123.517 5.9979 123.468 6.07164 123.422 6.18735C123.352 6.36376 123.273 6.53486 123.197 6.70809C123.049 7.04255 122.901 7.3763 122.754 7.7111C122.598 8.06743 122.444 8.42517 122.286 8.78115C122.138 9.11561 121.986 9.44759 121.837 9.78134C121.652 10.1934 121.507 10.6238 121.261 11.0063C121.221 11.0691 121.235 11.135 121.245 11.1918C121.255 11.2585 121.331 11.2271 121.378 11.2271C121.795 11.2296 122.212 11.2271 122.629 11.231C122.729 11.231 122.775 11.1989 122.809 11.1079C122.912 10.8352 123.025 10.5663 123.135 10.2964C123.164 10.2238 123.196 10.168 123.296 10.1687C124.03 10.1733 124.765 10.1722 125.5 10.1687C125.567 10.1687 125.613 10.1874 125.638 10.2485C125.735 10.4855 125.823 10.7269 125.932 10.9586C125.977 11.0539 125.975 11.2194 126.112 11.2229C126.61 11.2356 127.108 11.2278 127.63 11.2278Z" fill="#FEFEFE"/>
<path d="M107.623 12.735C107.026 12.735 106.468 12.735 105.91 12.735C105.887 12.7339 105.864 12.7384 105.843 12.7479C105.821 12.7575 105.803 12.7719 105.788 12.79C105.651 12.9502 105.514 13.1101 105.376 13.2698C105.123 13.5627 104.872 13.8572 104.614 14.1455C104.53 14.239 104.446 14.2654 104.345 14.1342C104.204 13.9504 104.059 13.7634 103.902 13.5944C103.684 13.3591 103.467 13.1259 103.279 12.8652C103.221 12.7844 103.152 12.7346 103.047 12.7346C102.518 12.7346 101.989 12.7346 101.46 12.7346C101.422 12.7346 101.367 12.7142 101.356 12.7699C101.352 12.7942 101.385 12.8295 101.407 12.8546C101.686 13.1693 101.964 13.4834 102.244 13.7969C102.665 14.2668 103.08 14.7428 103.511 15.2014C103.602 15.2995 103.581 15.3425 103.511 15.4202C103.205 15.7584 102.9 16.098 102.597 16.439C102.285 16.789 101.966 17.1341 101.664 17.4929C101.539 17.641 101.372 17.7592 101.291 17.9536C101.832 17.9536 102.361 17.9497 102.889 17.9568C103.015 17.9568 103.089 17.9109 103.167 17.8178C103.563 17.3472 103.969 16.8853 104.367 16.4168C104.45 16.3187 104.488 16.3279 104.572 16.4281C104.948 16.8811 105.341 17.321 105.721 17.7709C105.77 17.8349 105.835 17.8856 105.909 17.9183C105.983 17.951 106.064 17.9647 106.144 17.9582C106.585 17.9444 107.026 17.9536 107.467 17.9536H107.692C107.688 17.9356 107.681 17.918 107.673 17.9014C106.948 17.0801 106.227 16.2566 105.493 15.4413C105.383 15.3178 105.387 15.237 105.491 15.1238C105.816 14.7692 106.135 14.4097 106.454 14.0509C106.835 13.624 107.215 13.1947 107.623 12.735Z" fill="#FEFEFE"/>
<path d="M127.038 12.7338C126.563 12.7588 125.98 12.6798 125.402 12.7796C124.816 12.8809 124.365 13.1677 124.14 13.7506C124.011 14.0836 123.995 14.4174 124.061 14.7666C124.165 15.3181 124.622 15.7665 125.175 15.8748C125.57 15.9524 125.968 15.9203 126.365 15.9298C126.6 15.9351 126.835 15.927 127.07 15.9425C127.268 15.9552 127.423 16.1076 127.446 16.2692C127.498 16.6128 127.263 16.76 126.969 16.7614C126.099 16.7656 125.229 16.765 124.358 16.7596C124.224 16.7596 124.19 16.7949 124.194 16.9265C124.204 17.2144 124.204 17.5024 124.194 17.7905C124.19 17.9221 124.226 17.9584 124.359 17.9577C125.247 17.9514 126.135 17.9514 127.022 17.9577C127.226 17.9585 127.428 17.9332 127.625 17.8826C128.082 17.7676 128.434 17.5139 128.667 17.1001C128.871 16.737 128.898 16.3401 128.843 15.945C128.777 15.4768 128.517 15.1335 128.078 14.9289C127.785 14.792 127.474 14.7553 127.158 14.75C126.764 14.7433 126.37 14.7476 125.977 14.75C125.889 14.7521 125.801 14.7408 125.716 14.7165C125.634 14.6923 125.563 14.6426 125.511 14.5746C125.46 14.5067 125.432 14.4241 125.431 14.339C125.427 14.1496 125.515 14.037 125.702 13.9622C125.801 13.9266 125.906 13.9108 126.012 13.9157C126.694 13.9157 127.376 13.9118 128.058 13.9188C128.19 13.9188 128.254 13.8797 128.305 13.759C128.432 13.4588 128.57 13.1635 128.713 12.8703C128.767 12.7595 128.749 12.732 128.627 12.7334C128.131 12.7366 127.637 12.7338 127.038 12.7338Z" fill="#FEFEFE"/>
<path d="M133.894 12.7383C132.888 12.7383 131.907 12.7383 130.926 12.7383C130.714 12.7399 130.504 12.7736 130.303 12.8381C129.812 12.9905 129.437 13.2841 129.257 13.7741C129.122 14.1396 129.128 14.5217 129.229 14.8974C129.356 15.3748 129.682 15.663 130.136 15.8278C130.392 15.9209 130.658 15.928 130.924 15.9308C131.324 15.9347 131.724 15.9209 132.123 15.9382C132.508 15.9551 132.682 16.212 132.563 16.4991C132.499 16.6537 132.329 16.7634 132.13 16.7637C131.266 16.7637 130.401 16.7701 129.538 16.7595C129.362 16.757 129.323 16.8117 129.332 16.9754C129.346 17.2395 129.346 17.5041 129.332 17.7682C129.323 17.9298 129.378 17.9604 129.529 17.959C130.451 17.9506 131.374 17.9562 132.297 17.9499C132.664 17.9482 133.022 17.8349 133.324 17.6249C133.847 17.2651 134.03 16.7383 133.996 16.1336C133.97 15.681 133.801 15.2908 133.393 15.0308C133.059 14.8191 132.691 14.7598 132.31 14.751C131.91 14.7418 131.511 14.7478 131.11 14.7492C131.022 14.751 130.934 14.7402 130.849 14.7171C130.789 14.6993 130.734 14.6677 130.689 14.6249C130.643 14.5821 130.608 14.5293 130.586 14.4705C130.564 14.4118 130.556 14.3488 130.563 14.2865C130.57 14.2242 130.591 14.1644 130.625 14.1117C130.744 13.9265 130.933 13.9173 131.121 13.9163C131.821 13.9135 132.52 13.9163 133.219 13.9163C133.29 13.9163 133.356 13.9279 133.396 13.8411C133.555 13.4785 133.721 13.1204 133.894 12.7383Z" fill="#FEFEFE"/>
<path d="M107.892 15.3519C107.892 16.1682 107.895 16.9846 107.89 17.8014C107.89 17.9248 107.925 17.9605 108.047 17.9577C108.405 17.9499 108.763 17.9506 109.122 17.9577C109.239 17.9601 109.287 17.9368 109.285 17.806C109.277 17.3473 109.288 16.8887 109.278 16.43C109.276 16.2861 109.312 16.243 109.461 16.243C110.048 16.243 110.636 16.272 111.222 16.2286C111.648 16.2035 112.047 16.0162 112.338 15.7054C112.757 15.2594 112.887 14.7235 112.771 14.1178C112.708 13.7925 112.58 13.5081 112.354 13.271C111.966 12.8611 111.464 12.7348 110.92 12.7334C109.968 12.7306 109.015 12.7334 108.066 12.7295C107.932 12.7295 107.889 12.7574 107.889 12.901C107.896 13.7195 107.892 14.5355 107.892 15.3519Z" fill="#FEFEFE"/>
<path d="M121.124 10.0455C120.863 10.0455 120.623 10.049 120.383 10.0455C119.937 10.0377 119.517 9.96225 119.219 9.57805C119.009 9.3078 118.955 8.99028 118.95 8.66535C118.944 8.22541 119.025 7.80981 119.396 7.51028C119.662 7.29507 119.977 7.23862 120.305 7.23615C120.764 7.23192 121.223 7.23016 121.681 7.23792C121.809 7.24039 121.837 7.19981 121.834 7.07986C121.826 6.76869 121.826 6.45728 121.834 6.14564C121.837 6.02463 121.794 6.00029 121.684 6.00452C121.033 6.0204 120.379 5.97207 119.73 6.0398C119.18 6.09837 118.666 6.26701 118.267 6.66779C117.842 7.08714 117.592 7.65275 117.568 8.24975C117.533 8.94124 117.56 9.61298 117.956 10.2254C118.344 10.8252 118.923 11.0937 119.584 11.2133C119.869 11.2644 120.169 11.226 120.463 11.2274C120.514 11.2274 120.566 11.2362 120.596 11.1706C120.768 10.8023 120.941 10.4371 121.124 10.0455Z" fill="#FEFEFE"/>
<path d="M116.817 8.61046C116.817 7.79408 116.815 6.97734 116.82 6.16096C116.82 6.04101 116.793 5.99796 116.665 6.00114C116.296 6.00961 115.924 6.00714 115.555 6.00114C115.452 6.00114 115.414 6.02301 115.414 6.13626C115.418 7.78714 115.418 9.43778 115.414 11.0882C115.414 11.2148 115.464 11.2293 115.569 11.2293C115.922 11.2247 116.275 11.2205 116.628 11.2311C116.776 11.2353 116.827 11.205 116.825 11.042C116.812 10.2316 116.817 9.42084 116.817 8.61046Z" fill="#FEFEFE"/>
<path d="M102.007 7.59107C101.844 7.86766 101.768 8.18025 101.655 8.47695C101.325 9.35225 101.011 10.2332 100.692 11.1124C100.663 11.1921 100.627 11.2334 100.531 11.2313C100.196 11.2246 99.8605 11.2182 99.5264 11.2313C99.3341 11.2397 99.3338 11.0725 99.307 10.9868C99.1517 10.4929 98.9425 10.0169 98.7778 9.52548C98.558 8.87174 98.2997 8.23105 98.0584 7.58507C98.0499 7.56602 98.0415 7.54732 98.0327 7.52827L98.0284 7.59107C98.0284 8.74261 98.0242 9.89451 98.0284 11.0461C98.0284 11.1911 97.9953 11.2359 97.846 11.2309C97.4932 11.2193 97.1404 11.2235 96.7876 11.2292C96.68 11.2313 96.6465 11.1985 96.6465 11.0902C96.6498 9.43904 96.6498 7.78793 96.6465 6.13682C96.6465 6.02463 96.6849 6.00029 96.7876 6.00099C97.4283 6.00522 98.069 6.00699 98.7093 6.00099C98.8226 6.00099 98.8582 6.04933 98.8903 6.13858C99.2521 7.13842 99.615 8.13803 99.9791 9.1374C99.9925 9.17444 99.9868 9.22207 100.045 9.23865C100.288 8.57115 100.53 7.90341 100.772 7.23544C100.908 6.85795 101.045 6.48045 101.176 6.10119C101.2 6.0331 101.221 6.00205 101.303 6.00276C101.962 6.00722 102.62 6.00722 103.279 6.00276C103.385 6.00276 103.404 6.04439 103.404 6.13753C103.402 7.78887 103.402 9.4401 103.404 11.0912C103.404 11.1971 103.374 11.2323 103.265 11.2323C102.907 11.226 102.548 11.2235 102.19 11.2323C102.057 11.2359 102.024 11.1971 102.025 11.0665C102.03 9.97953 102.028 8.89255 102.027 7.80557C102.027 7.73501 102.023 7.66445 102.02 7.59389V7.53638L102.007 7.59107Z" fill="#0270CF"/>
<path d="M129.287 8.0874C129.287 9.07525 129.281 10.0631 129.287 11.0488C129.287 11.1956 129.252 11.2372 129.104 11.2323C128.745 11.2213 128.387 11.2256 128.028 11.2323C127.931 11.2323 127.897 11.2093 127.898 11.1063C127.901 9.4491 127.901 7.79187 127.898 6.13465C127.898 6.03798 127.92 6.00305 128.023 6.00411C128.529 6.00905 129.035 6.00905 129.54 6.00411C129.629 6.00411 129.671 6.03763 129.718 6.10995C130.365 7.08474 131.017 8.056 131.666 9.02938C131.694 9.07869 131.735 9.11933 131.785 9.14687V8.95177C131.785 8.02919 131.788 7.10662 131.781 6.18404C131.781 6.03339 131.824 5.99952 131.967 6.00376C132.32 6.0147 132.673 6.01117 133.026 6.00376C133.132 6.00164 133.167 6.0274 133.167 6.13923C133.163 7.79082 133.163 9.44216 133.167 11.0933C133.167 11.1991 133.14 11.2344 133.03 11.2323C132.554 11.2263 132.077 11.228 131.601 11.2323C131.564 11.2357 131.527 11.2285 131.493 11.2115C131.46 11.1945 131.432 11.1685 131.413 11.1363C130.975 10.4893 130.542 9.83859 130.113 9.18426C129.872 8.81629 129.617 8.45643 129.372 8.08846C129.36 8.0366 129.357 7.97768 129.275 7.96886C129.28 8.01049 129.283 8.04895 129.287 8.0874Z" fill="#0270CF"/>
<path d="M116.899 16.074C117.482 16.7055 118.043 17.3131 118.636 17.9552C118.146 17.9552 117.702 17.9368 117.26 17.9619C116.983 17.9777 116.802 17.8913 116.625 17.6758C116.225 17.1772 115.796 16.6999 115.379 16.2141C115.319 16.1435 114.899 16.0825 114.832 16.1361C114.789 16.1714 114.809 16.2236 114.809 16.2681C114.809 16.7793 114.804 17.2912 114.811 17.8013C114.811 17.9252 114.778 17.9608 114.654 17.9583C114.284 17.9502 113.913 17.9516 113.543 17.9583C113.435 17.9601 113.404 17.9284 113.404 17.8197C113.407 16.1691 113.407 14.5185 113.404 12.8681C113.404 12.7746 113.422 12.7326 113.528 12.7334C114.638 12.7386 115.751 12.7104 116.858 12.7559C117.274 12.7732 117.653 13.0117 117.935 13.3522C118.283 13.7734 118.354 14.2649 118.252 14.7782C118.155 15.2823 117.857 15.6521 117.395 15.8874C117.235 15.9642 117.07 16.0266 116.899 16.074ZM115.639 14.9648V14.9624C115.88 14.9624 116.121 14.9701 116.361 14.9599C116.573 14.9511 116.753 14.8685 116.847 14.666C116.888 14.5838 116.905 14.4917 116.897 14.4002C116.888 14.3087 116.854 14.2214 116.799 14.1481C116.666 13.9632 116.462 13.9195 116.252 13.9167C115.812 13.911 115.37 13.9167 114.931 13.9131C114.844 13.9131 114.804 13.9322 114.806 14.0295C114.812 14.3054 114.811 14.5813 114.806 14.8572C114.806 14.9426 114.833 14.968 114.917 14.9666C115.158 14.962 115.398 14.9648 115.639 14.9648Z" fill="#0270CF"/>
<path d="M109.797 11.1503C109.797 9.50585 109.803 7.86109 109.795 6.21633C109.795 6.03358 109.844 5.9983 110.017 6.00006C110.921 6.00923 111.826 6.00006 112.731 6.00606C113.185 6.00888 113.627 6.07662 114.011 6.34898C114.434 6.65027 114.646 7.06058 114.673 7.5792C114.702 8.1084 114.534 8.55399 114.155 8.91808C113.962 9.10218 113.723 9.2318 113.463 9.29382C113.289 9.33686 113.326 9.39966 113.416 9.49668C113.892 10.0075 114.366 10.5196 114.838 11.0328C114.888 11.0868 114.932 11.1464 114.998 11.2275C114.425 11.2275 113.881 11.2275 113.338 11.2275C113.309 11.2265 113.28 11.2188 113.255 11.2051C113.23 11.1913 113.208 11.1718 113.191 11.1481C112.742 10.6173 112.291 10.0881 111.839 9.56053C111.742 9.44658 111.394 9.36896 111.242 9.42612C111.169 9.45399 111.199 9.51538 111.199 9.56089C111.195 10.0601 111.19 10.5597 111.199 11.0589C111.201 11.2 111.158 11.2353 111.022 11.2325C110.629 11.2247 110.236 11.2325 109.842 11.2325C109.795 11.2325 109.798 11.1944 109.797 11.1503ZM112.031 7.201V7.19606C111.79 7.19606 111.549 7.19818 111.308 7.19606C111.228 7.19606 111.191 7.21617 111.192 7.30402C111.196 7.58626 111.194 7.8685 111.192 8.15074C111.192 8.21213 111.208 8.25199 111.28 8.25164C111.78 8.2467 112.28 8.2594 112.778 8.234C113.104 8.21742 113.295 7.99339 113.285 7.71327C113.275 7.43314 113.057 7.21934 112.734 7.20523C112.501 7.19147 112.266 7.201 112.031 7.201Z" fill="#0270CF"/>
<path d="M98.0931 14.7454C99.0041 14.7454 99.9154 14.7503 100.827 14.7454C100.961 14.7454 101.011 14.7736 101.003 14.9175C100.991 15.1931 100.992 15.47 101.003 15.7459C101.009 15.8892 100.971 15.9361 100.82 15.9347C99.9676 15.9273 99.1152 15.9347 98.2628 15.9269C98.0949 15.9251 98.0328 15.9622 98.0511 16.1386C98.0651 16.2968 98.0651 16.456 98.0511 16.6142C98.042 16.7415 98.0864 16.7683 98.2081 16.7676C99.1014 16.7627 99.9951 16.7676 100.89 16.7609C101.045 16.7609 101.092 16.7962 101.083 16.9546C101.07 17.2302 101.075 17.5071 101.083 17.783C101.087 17.9072 101.057 17.9594 100.918 17.9594C99.5423 17.9545 98.1664 17.9545 96.7902 17.9594C96.6844 17.9594 96.6519 17.9315 96.6523 17.8222C96.6558 16.1758 96.6558 14.5293 96.6523 12.8829C96.6523 12.7722 96.6763 12.7312 96.7976 12.7319C98.1792 12.7362 99.5607 12.7362 100.942 12.7319C101.05 12.7319 101.083 12.7623 101.083 12.8709C101.077 13.1645 101.074 13.4587 101.083 13.7529C101.088 13.8902 101.041 13.9184 100.913 13.9177C100.02 13.9124 99.1258 13.9177 98.2314 13.911C98.0804 13.911 98.042 13.9551 98.0511 14.0983C98.0642 14.303 98.0568 14.5094 98.0582 14.715C98.0554 14.7433 98.0674 14.7507 98.0931 14.7454Z" fill="#0270CF"/>
<path d="M104.469 11.1502C104.469 9.50475 104.474 7.85928 104.469 6.21381C104.469 6.04976 104.499 5.99896 104.676 6.00002C106.022 6.00848 107.367 6.00637 108.713 6.00002C108.845 6.00002 108.898 6.02295 108.892 6.16971C108.879 6.45725 108.88 6.74584 108.892 7.03337C108.897 7.1692 108.853 7.19813 108.724 7.19742C107.836 7.19178 106.949 7.19742 106.061 7.19107C105.913 7.19107 105.848 7.2193 105.862 7.38053C105.876 7.53872 105.877 7.69778 105.865 7.8561C105.854 7.9944 105.908 8.02016 106.035 8.01945C106.898 8.01416 107.763 8.01945 108.626 8.01275C108.782 8.01275 108.828 8.04803 108.819 8.20538C108.805 8.46944 108.805 8.73406 108.819 8.99812C108.828 9.16182 108.792 9.2151 108.614 9.21298C107.756 9.20204 106.898 9.21086 106.038 9.20522C105.904 9.20522 105.848 9.23274 105.862 9.37739C105.875 9.53553 105.875 9.69446 105.862 9.85261C105.85 10.0022 105.887 10.053 106.051 10.0512C106.938 10.0417 107.826 10.0491 108.713 10.0438C108.846 10.0438 108.897 10.0692 108.892 10.2142C108.881 10.537 108.892 10.8606 108.892 11.1837C108.892 11.206 108.856 11.231 108.812 11.231H104.513C104.476 11.2172 104.48 11.1784 104.469 11.1502Z" fill="#0270CF"/>
<path d="M119.034 15.3505C119.034 14.5338 119.037 13.7167 119.031 12.9C119.031 12.7729 119.057 12.7303 119.194 12.731C120.558 12.7366 121.922 12.7366 123.286 12.731C123.41 12.731 123.463 12.7497 123.457 12.8911C123.444 13.1787 123.445 13.4673 123.457 13.7548C123.463 13.8959 123.412 13.9171 123.287 13.9164C122.393 13.9114 121.5 13.9164 120.605 13.9104C120.457 13.9104 120.411 13.9495 120.422 14.0956C120.434 14.2657 120.434 14.4364 120.422 14.6065C120.414 14.7278 120.462 14.75 120.573 14.7497C121.448 14.7455 122.324 14.7497 123.2 14.7441C123.348 14.7441 123.388 14.7836 123.382 14.9293C123.37 15.2115 123.372 15.4938 123.382 15.776C123.386 15.9012 123.343 15.9337 123.222 15.9333C122.352 15.9288 121.482 15.9355 120.611 15.9266C120.451 15.9249 120.408 15.9707 120.421 16.1232C120.434 16.2875 120.434 16.4527 120.421 16.6171C120.412 16.7504 120.469 16.767 120.583 16.7667C121.471 16.7624 122.359 16.7695 123.246 16.7596C123.419 16.7596 123.464 16.803 123.456 16.9713C123.44 17.2585 123.449 17.5471 123.453 17.8349C123.453 17.926 123.428 17.957 123.334 17.9567C121.941 17.9541 120.547 17.9541 119.155 17.9567C119.025 17.9567 119.033 17.8861 119.033 17.8007C119.035 16.985 119.035 16.1683 119.034 15.3505Z" fill="#0270CF"/>
<path d="M93.1788 6.00537C93.4434 6.00537 93.708 6.00855 93.9723 6.00537C94.0537 6.00537 94.0971 6.02936 94.1303 6.10522C94.5784 7.13352 95.0281 8.1617 95.4794 9.18976C95.7585 9.8248 96.0386 10.4574 96.3261 11.0878C96.3822 11.2117 96.3551 11.2328 96.2305 11.2314C95.7959 11.2262 95.3608 11.2262 94.9252 11.2314C94.8133 11.2314 94.7756 11.1909 94.7375 11.084C94.6345 10.7943 94.5025 10.5149 94.3879 10.2291C94.3554 10.1483 94.2937 10.1723 94.2411 10.1723C93.5238 10.1705 92.8069 10.1723 92.089 10.1684C91.9832 10.1684 91.9302 10.2037 91.8935 10.2972C91.7933 10.5516 91.6868 10.8038 91.5845 11.0575C91.5386 11.1711 91.4871 11.2413 91.3344 11.2339C90.9353 11.217 90.5353 11.2201 90.1348 11.2321C89.9725 11.2371 89.9743 11.1711 90.023 11.0628C90.1712 10.7343 90.3264 10.409 90.4714 10.0792C90.6309 9.7179 90.778 9.35099 90.9378 8.98937C91.0948 8.63374 91.2634 8.28377 91.4211 7.92779C91.5788 7.57181 91.7281 7.21195 91.8847 6.85527C91.9906 6.61501 92.1095 6.38005 92.2072 6.13662C92.2541 6.01949 92.325 5.99938 92.4358 6.0022C92.6852 6.00996 92.9322 6.00537 93.1788 6.00537ZM93.8943 9.02712C93.6688 8.48839 93.4565 7.97965 93.2434 7.47126C93.2208 7.41799 93.1957 7.36542 93.1601 7.28675C92.922 7.85546 92.6926 8.4016 92.4644 8.94809C92.4256 9.04088 92.4968 9.02641 92.5462 9.02641C92.9865 9.02712 93.4265 9.02712 93.8943 9.02712Z" fill="#0270CF"/>
<path d="M127.631 11.2282C127.11 11.2282 126.612 11.2359 126.114 11.2229C125.977 11.2194 125.979 11.0539 125.934 10.9586C125.825 10.7269 125.737 10.4855 125.64 10.2485C125.615 10.1874 125.569 10.1687 125.502 10.1687C124.767 10.1715 124.032 10.1726 123.298 10.1687C123.198 10.1687 123.167 10.2238 123.137 10.2964C123.028 10.567 122.914 10.8359 122.811 11.1079C122.776 11.1989 122.731 11.2324 122.632 11.231C122.215 11.2254 121.797 11.231 121.38 11.2271C121.334 11.2271 121.257 11.2578 121.247 11.1918C121.238 11.135 121.223 11.0691 121.264 11.0063C121.511 10.6238 121.655 10.1948 121.839 9.78134C121.988 9.44759 122.14 9.11561 122.289 8.78115C122.446 8.42518 122.6 8.06743 122.756 7.7111C122.903 7.3763 123.052 7.04255 123.199 6.70809C123.275 6.53486 123.355 6.3634 123.425 6.18735C123.47 6.07128 123.519 5.9979 123.669 6.00108C124.175 6.01237 124.68 6.00884 125.187 6.00108C125.292 6.00108 125.344 6.03636 125.384 6.12808C125.882 7.26928 126.382 8.41001 126.883 9.55026C127.127 10.1035 127.376 10.6538 127.631 11.2282ZM124.408 7.27928C124.165 7.85822 123.941 8.39307 123.715 8.92686C123.68 9.01506 123.723 9.02635 123.795 9.026C124.2 9.026 124.606 9.02317 125.011 9.026C125.123 9.026 125.123 8.98719 125.087 8.9004C124.865 8.37719 124.646 7.85117 124.408 7.27928Z" fill="#0270CF"/>
<path d="M107.622 12.7353C107.214 13.1939 106.834 13.6243 106.453 14.0523C106.133 14.4111 105.814 14.7706 105.49 15.1251C105.386 15.2387 105.381 15.3195 105.492 15.4427C106.223 16.2601 106.947 17.0818 107.672 17.9031C107.68 17.9197 107.686 17.9372 107.69 17.9553H107.465C107.025 17.9553 106.583 17.9461 106.143 17.9599C106.062 17.9664 105.981 17.9527 105.907 17.92C105.833 17.8873 105.769 17.8366 105.719 17.7726C105.339 17.3227 104.947 16.8828 104.57 16.4298C104.486 16.3296 104.448 16.3204 104.365 16.4185C103.967 16.887 103.561 17.3488 103.166 17.8195C103.087 17.9126 103.014 17.9606 102.888 17.9585C102.359 17.9514 101.83 17.9553 101.289 17.9553C101.37 17.7609 101.536 17.6427 101.662 17.4945C101.965 17.1357 102.283 16.7907 102.596 16.4407C102.9 16.1006 103.204 15.761 103.509 15.4218C103.58 15.3449 103.601 15.3012 103.509 15.2031C103.078 14.7423 102.662 14.2671 102.243 13.7965C101.964 13.4832 101.685 13.1691 101.408 12.8541C101.385 12.8291 101.352 12.7938 101.356 12.7695C101.367 12.7151 101.423 12.7342 101.46 12.7342C101.989 12.7342 102.519 12.7342 103.048 12.7342C103.152 12.7342 103.222 12.7839 103.28 12.8647C103.467 13.1255 103.684 13.3587 103.902 13.594C104.059 13.763 104.203 13.9499 104.345 14.1338C104.447 14.265 104.53 14.2396 104.614 14.145C104.872 13.8568 105.123 13.5622 105.377 13.2694C105.515 13.1099 105.652 12.95 105.788 12.7896C105.803 12.7715 105.822 12.757 105.843 12.7475C105.864 12.7379 105.887 12.7335 105.911 12.7345C106.467 12.7356 107.025 12.7353 107.622 12.7353Z" fill="#0270CF"/>
<path d="M127.038 12.7338C127.638 12.7338 128.132 12.7366 128.626 12.7317C128.748 12.7317 128.767 12.7578 128.712 12.8686C128.569 13.1617 128.43 13.457 128.303 13.7573C128.253 13.8779 128.188 13.9185 128.056 13.9171C127.375 13.91 126.693 13.9136 126.01 13.9139C125.905 13.909 125.799 13.9249 125.7 13.9605C125.513 14.0353 125.426 14.1478 125.429 14.3373C125.43 14.4224 125.459 14.5049 125.51 14.5729C125.561 14.6408 125.633 14.6905 125.715 14.7148C125.799 14.739 125.887 14.7503 125.975 14.7483C126.369 14.7465 126.763 14.7423 127.157 14.7483C127.474 14.7536 127.783 14.7903 128.077 14.9272C128.515 15.1311 128.775 15.4751 128.842 15.9432C128.898 16.3384 128.871 16.7353 128.665 17.0983C128.433 17.5128 128.08 17.7665 127.625 17.8819C127.428 17.9325 127.225 17.9578 127.022 17.957C126.134 17.9514 125.247 17.9514 124.359 17.957C124.225 17.957 124.189 17.9217 124.194 17.7898C124.204 17.5019 124.204 17.2139 124.194 16.9258C124.189 16.7952 124.224 16.7578 124.358 16.7589C125.228 16.7652 126.099 16.7658 126.969 16.7607C127.263 16.7607 127.498 16.6121 127.445 16.2685C127.421 16.1069 127.269 15.9545 127.07 15.9418C126.836 15.9263 126.6 15.9344 126.364 15.9291C125.968 15.9196 125.57 15.9517 125.174 15.8741C124.623 15.7651 124.164 15.3181 124.061 14.7666C123.995 14.4174 124.011 14.0836 124.14 13.7506C124.365 13.1684 124.816 12.8809 125.402 12.7796C125.979 12.6798 126.563 12.7588 127.038 12.7338Z" fill="#0270CF"/>
<path d="M133.895 12.7387C133.722 13.1201 133.556 13.4796 133.396 13.8405C133.357 13.9273 133.29 13.9157 133.22 13.9157C132.52 13.9157 131.821 13.9157 131.121 13.9157C130.934 13.9157 130.744 13.9259 130.625 14.1111C130.592 14.1638 130.57 14.2236 130.564 14.2859C130.557 14.3482 130.565 14.4112 130.586 14.4699C130.608 14.5286 130.643 14.5815 130.689 14.6243C130.735 14.6671 130.79 14.6987 130.85 14.7165C130.935 14.7395 131.023 14.7504 131.111 14.7486C131.51 14.7486 131.91 14.7412 132.31 14.7504C132.691 14.7592 133.059 14.8174 133.393 15.0302C133.802 15.2902 133.971 15.6804 133.996 16.133C134.032 16.7377 133.847 17.2645 133.324 17.6243C133.023 17.8343 132.664 17.9476 132.297 17.9492C131.374 17.9556 130.452 17.9492 129.529 17.9584C129.378 17.9584 129.323 17.9291 129.332 17.7675C129.346 17.5035 129.346 17.2389 129.332 16.9748C129.324 16.8111 129.361 16.7564 129.539 16.7589C130.402 16.7695 131.268 16.7642 132.13 16.7631C132.33 16.7631 132.5 16.653 132.564 16.4985C132.682 16.2113 132.509 15.9545 132.124 15.9376C131.725 15.9203 131.325 15.934 130.924 15.9302C130.658 15.9273 130.393 15.9203 130.136 15.8271C129.683 15.6624 129.357 15.3741 129.229 14.8968C129.128 14.5211 129.123 14.139 129.257 13.7735C129.438 13.2834 129.813 12.9899 130.303 12.8375C130.505 12.7728 130.715 12.739 130.926 12.7373C131.908 12.7391 132.889 12.7387 133.895 12.7387Z" fill="#0270CF"/>
<path d="M107.891 15.3526C107.891 14.5362 107.895 13.7198 107.887 12.9034C107.887 12.7598 107.931 12.7312 108.064 12.7319C109.016 12.7376 109.969 12.7319 110.918 12.7358C111.462 12.7358 111.962 12.8635 112.352 13.2735C112.578 13.5113 112.705 13.7956 112.769 14.1202C112.885 14.7246 112.755 15.2605 112.336 15.7078C112.045 16.0186 111.646 16.2059 111.22 16.231C110.634 16.2744 110.046 16.2469 109.459 16.2455C109.31 16.2455 109.274 16.2885 109.277 16.4325C109.286 16.8911 109.277 17.3498 109.283 17.8084C109.285 17.9393 109.237 17.9626 109.12 17.9601C108.761 17.9534 108.403 17.9527 108.045 17.9601C107.922 17.9629 107.887 17.9273 107.888 17.8038C107.894 16.9853 107.891 16.1689 107.891 15.3526ZM110.105 15.0661C110.346 15.0661 110.587 15.0735 110.827 15.0661C111.247 15.0506 111.488 14.733 111.389 14.3375C111.326 14.0814 111.119 13.9276 110.79 13.9209C110.326 13.9114 109.862 13.9209 109.398 13.9159C109.304 13.9159 109.278 13.9484 109.279 14.0384C109.284 14.3375 109.287 14.6381 109.279 14.9363C109.275 15.0516 109.318 15.0735 109.42 15.0707C109.647 15.0608 109.876 15.0661 110.105 15.0661Z" fill="#0270CF"/>
<path d="M121.123 10.0459C120.94 10.434 120.767 10.8026 120.597 11.1713C120.567 11.2369 120.516 11.2285 120.464 11.2281C120.171 11.2281 119.87 11.2652 119.586 11.214C118.924 11.0955 118.346 10.8259 117.957 10.2262C117.56 9.61298 117.532 8.94125 117.569 8.25046C117.593 7.65292 117.843 7.08674 118.269 6.66709C118.668 6.26631 119.182 6.09767 119.732 6.0391C120.382 5.96854 121.035 6.01794 121.686 6.00382C121.796 6.00135 121.839 6.0257 121.836 6.14494C121.827 6.45612 121.827 6.76752 121.836 7.07916C121.839 7.19911 121.81 7.23969 121.683 7.23722C121.224 7.22946 120.766 7.23122 120.307 7.23545C119.979 7.23792 119.664 7.29437 119.398 7.50958C119.027 7.80911 118.946 8.22471 118.952 8.66465C118.957 8.98958 119.011 9.3071 119.221 9.57735C119.518 9.96155 119.938 10.036 120.385 10.0448C120.623 10.0494 120.862 10.0459 121.123 10.0459Z" fill="#0270CF"/>
<path d="M116.818 8.61108C116.818 9.42253 116.813 10.234 116.823 11.0429C116.825 11.2059 116.774 11.2363 116.626 11.232C116.273 11.2215 115.92 11.2257 115.567 11.2303C115.461 11.2303 115.412 11.2162 115.412 11.0892C115.417 9.43852 115.417 7.78788 115.412 6.13724C115.412 6.02399 115.451 6.0007 115.553 6.00212C115.923 6.00741 116.294 6.00988 116.663 6.00212C116.791 5.99894 116.819 6.04198 116.818 6.16193C116.816 6.97796 116.818 7.7947 116.818 8.61108Z" fill="#0270CF"/>
<path d="M129.287 8.08918C129.283 8.05069 129.279 8.01219 129.275 7.96875C129.356 7.97758 129.359 8.03656 129.372 8.08847L129.287 8.08918Z" fill="#BFDBF2"/>
<path d="M104.469 11.1519C104.48 11.1815 104.476 11.219 104.513 11.2345C104.496 11.3111 104.45 11.267 104.431 11.2454C104.386 11.1967 104.414 11.166 104.469 11.1519Z" fill="#BFDBF2"/>
<path d="M98.0293 7.59484L98.0335 7.53125C98.0425 7.55054 98.0511 7.56947 98.0596 7.58876L98.045 7.59484H98.0293Z" fill="#BFDBF2"/>
<path d="M102.008 7.5931L102.025 7.53809V7.59631L102.016 7.59881L102.008 7.5931Z" fill="#BFDBF2"/>
<path d="M98.0963 14.7494C98.0683 14.7553 98.0548 14.745 98.0568 14.7158L98.0963 14.7494Z" fill="#BFDBF2"/>
<path d="M115.64 14.9631C115.399 14.9631 115.159 14.9603 114.918 14.9631C114.834 14.9631 114.806 14.9391 114.807 14.8538C114.812 14.5779 114.812 14.302 114.807 14.0261C114.807 13.9287 114.845 13.9093 114.932 13.9097C115.372 13.9132 115.814 13.9076 116.253 13.9132C116.465 13.916 116.667 13.9598 116.8 14.1446C116.856 14.218 116.889 14.3053 116.898 14.3968C116.906 14.4883 116.889 14.5803 116.848 14.6626C116.754 14.8651 116.573 14.9476 116.363 14.9564C116.122 14.9667 115.881 14.9589 115.64 14.9589V14.9631Z" fill="#FEFEFE"/>
<path d="M112.031 7.20241C112.266 7.20241 112.502 7.19394 112.737 7.20452C113.059 7.21899 113.278 7.4282 113.288 7.71256C113.298 7.99691 113.107 8.21671 112.781 8.23329C112.282 8.25869 111.782 8.24599 111.283 8.25093C111.212 8.25093 111.194 8.21142 111.195 8.15003C111.195 7.86779 111.197 7.58555 111.195 7.30331C111.195 7.21546 111.23 7.19429 111.311 7.19535C111.551 7.19888 111.792 7.19535 112.033 7.19535L112.031 7.20241Z" fill="#FEFEFE"/>
<path d="M93.8961 9.02677C93.4283 9.02677 92.9883 9.02677 92.548 9.02677C92.4986 9.02677 92.4274 9.04124 92.4662 8.94845C92.6944 8.40196 92.9248 7.85477 93.1619 7.28711C93.1972 7.36614 93.2226 7.41835 93.2452 7.47162C93.4583 7.9786 93.6706 8.48734 93.8961 9.02677Z" fill="#FEFEFE"/>
<path d="M124.406 7.28125C124.645 7.85314 124.865 8.37917 125.086 8.90414C125.121 8.99093 125.121 9.03079 125.01 9.02973C124.605 9.02585 124.199 9.02762 123.794 9.02973C123.723 9.02973 123.677 9.0188 123.714 8.9306C123.94 8.39504 124.164 7.8602 124.406 7.28125Z" fill="#FEFEFE"/>
<path d="M110.106 15.0652C109.877 15.0652 109.647 15.061 109.419 15.0673C109.317 15.0702 109.274 15.0483 109.278 14.9329C109.287 14.6337 109.283 14.3332 109.278 14.035C109.278 13.9451 109.303 13.9116 109.397 13.9126C109.861 13.9169 110.325 13.908 110.789 13.9176C111.12 13.9243 111.326 14.0781 111.389 14.3342C111.487 14.7297 111.247 15.0472 110.827 15.0628C110.586 15.0716 110.345 15.0628 110.104 15.0628L110.106 15.0652Z" fill="#FEFEFE"/>
</g>
<path d="M154.886 5.71631H147.189V18.2871H154.886V5.71631Z" fill="#FF5F00"/>
<path d="M147.981 12.0048C147.98 10.7943 148.254 9.59949 148.783 8.51074C149.312 7.42199 150.082 6.46783 151.034 5.72047C149.855 4.79364 148.438 4.2173 146.947 4.05732C145.455 3.89734 143.949 4.16018 142.6 4.81578C141.251 5.47139 140.114 6.49332 139.318 7.76478C138.522 9.03624 138.1 10.5059 138.1 12.0059C138.1 13.5058 138.522 14.9755 139.318 16.247C140.114 17.5184 141.251 18.5403 142.6 19.196C143.949 19.8516 145.455 20.1144 146.947 19.9544C148.438 19.7944 149.855 19.2181 151.034 18.2913C150.081 17.5437 149.312 16.5892 148.783 15.5C148.254 14.4108 147.979 13.2156 147.981 12.0048Z" fill="#EB001B"/>
<path d="M163.208 16.9574V16.6998H163.319V16.6465H163.055V16.6998H163.159V16.9574H163.208ZM163.721 16.9574V16.6465H163.641L163.548 16.8685L163.455 16.6465H163.375V16.9574H163.432V16.722L163.519 16.9241H163.579L163.666 16.722V16.9574H163.721Z" fill="#F79E1B"/>
<path d="M163.97 12.0035C163.97 13.5036 163.547 14.9733 162.752 16.2448C161.956 17.5163 160.818 18.5383 159.469 19.1938C158.12 19.8493 156.613 20.1119 155.122 19.9517C153.63 19.7915 152.214 19.2149 151.035 18.2878C151.986 17.5398 152.756 16.5853 153.285 15.4965C153.814 14.4077 154.089 13.213 154.089 12.0024C154.089 10.7918 153.814 9.59706 153.285 8.50825C152.756 7.41944 151.986 6.46502 151.035 5.717C152.214 4.78988 153.63 4.21326 155.122 4.05305C156.613 3.89284 158.12 4.15551 159.469 4.81102C160.818 5.46654 161.956 6.48845 162.752 7.75995C163.547 9.03145 163.97 10.5012 163.97 12.0013V12.0035Z" fill="#F79E1B"/>
</g>
<defs>
<clipPath id="clip0_1_13427">
<rect width="164" height="24" fill="white"/>
</clipPath>
</defs>
</svg>
